{"glyphs":{"0":{"ha":836,"x_min":67,"x_max":863,"o":"m 560 1054 q 801 485 863 1018 q 756 262 786 356 q 668 93 726 168 q 354 -53 539 -75 q 118 463 67 -19 q 167 722 135 615 q 264 911 200 829 q 560 1054 390 1075 m 478 949 q 332 904 375 961 q 269 764 300 863 q 224 532 238 665 q 435 53 175 82 q 600 100 551 39 q 656 220 629 138 q 696 415 683 303 q 478 949 754 915 z "},"1":{"ha":338,"x_min":97,"x_max":351,"o":"m 132 813 q 122 808 132 813 q 105 813 113 804 q 106 842 97 821 q 136 882 115 863 l 278 1021 l 310 1050 q 349 1036 351 1081 l 265 36 q 247 -1 264 21 q 213 -36 231 -24 q 183 -51 196 -49 q 160 -36 158 -58 l 238 904 l 172 840 q 132 813 151 821 z "},"2":{"ha":824,"x_min":50,"x_max":914,"o":"m 69 21 l 526 467 q 686 860 768 749 q 463 947 633 932 q 315 896 360 956 q 239 728 271 836 q 215 688 233 710 q 175 654 196 665 q 142 648 154 643 q 136 671 131 653 q 243 897 176 808 q 388 1023 310 986 q 547 1053 467 1060 q 768 714 914 1022 q 578 439 711 594 q 568 429 574 433 l 182 54 q 732 53 311 54 q 743 26 753 53 q 701 -31 732 -8 q 654 -53 669 -53 q 51 -53 85 -51 q 65 3 50 -53 l 69 21 z "},"3":{"ha":789,"x_min":88,"x_max":835,"o":"m 222 803 q 212 793 222 803 q 182 776 201 783 q 155 776 163 768 q 160 815 147 785 q 200 881 174 844 q 546 1053 325 1054 q 756 767 835 1051 q 604 532 715 619 q 740 265 782 472 q 671 103 721 172 q 363 -53 558 -54 q 89 171 104 -51 q 103 207 88 185 q 135 243 118 229 q 165 261 153 257 q 194 251 193 271 q 440 53 208 54 q 526 63 490 53 q 601 108 579 78 q 635 201 622 138 q 588 390 661 326 q 335 450 514 453 q 328 451 331 450 q 325 451 326 451 q 315 479 306 453 q 359 537 328 515 q 406 557 390 558 q 543 572 493 551 q 615 621 593 592 q 653 708 636 650 q 640 886 685 826 q 468 947 596 946 q 337 926 383 947 q 276 885 290 906 q 252 844 261 865 q 222 803 243 824 z "},"4":{"ha":842,"x_min":88,"x_max":796,"o":"m 503 313 l 553 842 l 215 313 l 503 313 m 601 313 l 775 313 q 786 286 796 313 q 744 229 775 251 q 697 207 713 207 l 592 207 l 575 36 q 557 -2 574 21 q 522 -37 540 -25 q 493 -51 504 -49 q 469 -36 468 -58 l 493 207 l 106 207 q 91 224 88 207 q 104 253 94 240 l 576 993 q 653 1047 617 1057 q 669 1036 661 1044 l 601 313 z "},"5":{"ha":833,"x_min":83,"x_max":815,"o":"m 97 195 q 103 206 97 195 q 131 234 110 217 q 169 256 151 251 q 192 247 188 260 q 458 53 250 39 q 638 122 592 61 q 665 183 650 139 q 683 286 679 226 q 582 546 697 494 q 219 496 467 597 q 194 494 203 489 q 189 513 186 499 l 278 968 q 332 1044 289 1021 q 369 1053 349 1054 l 794 1053 q 806 1026 815 1053 q 763 969 794 992 q 717 947 732 947 l 367 947 l 300 608 q 679 642 556 706 q 789 356 803 579 q 606 18 775 133 q 386 -53 514 -46 q 86 161 151 -68 q 97 195 83 174 z "},"6":{"ha":828,"x_min":42,"x_max":868,"o":"m 213 401 q 461 53 207 53 q 554 64 514 53 q 633 109 613 81 q 667 189 653 138 q 458 536 754 522 q 239 444 314 543 q 221 417 226 428 q 213 401 215 406 m 218 506 q 536 642 358 650 q 769 247 868 625 q 706 108 749 169 q 383 -53 589 -53 q 121 499 42 -53 q 364 994 172 864 q 504 1053 435 1043 q 819 867 774 1089 q 808 832 822 854 q 773 793 794 810 q 734 773 751 776 q 714 782 717 769 q 435 947 674 979 q 366 925 389 940 q 322 878 343 910 q 218 506 244 760 z "},"7":{"ha":744,"x_min":138,"x_max":790,"o":"m 146 974 q 163 1004 150 986 q 197 1038 175 1022 q 235 1053 219 1053 l 775 1053 q 788 1042 786 1053 q 783 1017 790 1031 l 296 17 q 265 -24 286 -4 q 224 -50 243 -43 q 199 -47 206 -57 q 201 -17 192 -37 l 672 947 l 157 947 q 146 974 138 947 z "},"8":{"ha":808,"x_min":78,"x_max":807,"o":"m 531 1046 q 771 733 807 1050 q 661 528 757 611 q 764 258 803 461 q 700 108 749 175 q 351 -53 582 -54 q 86 165 78 -51 q 160 404 90 308 q 254 497 201 461 q 179 683 172 554 q 247 897 186 811 q 531 1046 349 1043 m 456 940 q 376 929 410 939 q 322 900 333 917 q 285 758 290 856 q 479 560 275 572 q 515 560 497 560 q 565 564 533 560 q 640 586 624 571 q 655 617 647 593 q 665 664 663 642 q 456 940 699 944 m 393 454 q 304 443 343 454 q 234 406 249 428 q 206 341 219 385 q 192 240 193 297 q 429 53 185 54 q 538 65 492 53 q 628 111 607 83 q 658 194 649 139 q 456 451 704 431 q 393 454 424 450 z "},"9":{"ha":796,"x_min":64,"x_max":869,"o":"m 671 557 q 399 947 717 946 q 289 913 314 947 q 256 834 272 889 q 236 706 240 779 q 438 456 222 479 q 654 533 582 439 q 671 557 663 544 m 654 451 q 357 350 519 331 q 131 633 115 378 q 154 787 136 721 q 215 913 172 853 q 476 1053 318 1054 q 760 521 869 1051 q 478 -12 674 103 q 349 -53 410 -53 q 71 61 161 -53 q 74 91 64 69 q 103 132 83 113 q 144 159 124 151 q 171 158 164 167 q 426 53 254 53 q 488 65 468 53 q 528 106 508 78 q 654 451 603 208 z "},"\u0000":{"ha":0,"x_min":0,"x_max":0,"o":""}," ":{"ha":290,"x_min":0,"x_max":0,"o":""},"!":{"ha":276,"x_min":76,"x_max":289,"o":"m 182 964 q 200 1003 183 981 q 235 1037 217 1025 q 264 1051 253 1049 q 288 1036 289 1058 l 210 239 q 192 200 208 222 q 157 166 175 178 q 128 151 139 154 q 104 167 103 144 l 182 964 m 188 -11 q 178 -19 188 -11 q 142 -26 168 -26 q 98 -12 115 -26 q 78 32 81 1 q 96 78 76 63 q 142 93 115 93 q 188 78 168 93 q 207 33 207 63 q 188 -11 207 4 z "},"\"":{"ha":329,"x_min":85,"x_max":383,"o":"m 114 900 q 132 939 115 917 q 167 973 149 961 q 196 988 185 985 q 219 972 221 994 l 192 683 q 174 644 190 667 q 139 610 157 622 q 110 596 121 599 q 86 611 85 589 l 114 900 m 276 908 q 294 947 278 925 q 329 981 311 969 q 358 996 347 993 q 382 981 383 1003 l 356 689 q 338 651 354 674 q 303 616 321 628 q 274 601 285 604 q 250 617 249 594 l 276 908 z "},"#":{"ha":786,"x_min":21,"x_max":846,"o":"m 395 1011 q 405 1022 395 1011 q 435 1045 414 1033 q 467 1052 456 1057 q 474 1029 479 1047 l 381 696 l 600 693 l 682 972 q 706 1012 688 990 q 747 1045 725 1033 q 779 1051 768 1057 q 785 1028 790 1046 l 686 693 l 825 692 q 836 665 846 692 q 794 608 825 631 q 747 586 763 586 l 654 586 l 600 400 l 781 400 q 792 374 801 400 q 749 317 781 339 q 703 294 718 294 l 568 294 l 490 28 q 466 -12 485 10 q 426 -45 447 -33 q 393 -51 404 -57 q 388 -28 382 -46 l 482 294 q 269 294 375 294 l 196 29 q 172 -11 190 11 q 132 -44 153 -33 q 99 -51 111 -56 q 93 -29 88 -47 l 183 294 q 42 294 113 294 q 31 321 21 294 q 73 378 42 356 q 119 400 104 400 l 213 400 l 265 590 l 100 592 q 89 618 79 592 q 131 675 100 653 q 178 697 163 697 l 294 696 l 371 971 q 395 1011 376 989 m 569 588 l 351 589 l 299 400 q 514 400 406 400 l 569 588 z "},"$":{"ha":867,"x_min":53,"x_max":872,"o":"m 500 1074 q 518 1111 501 1089 q 553 1145 535 1133 q 583 1160 571 1157 q 606 1143 608 1165 l 594 1042 q 726 976 665 1022 q 863 821 813 915 q 840 764 872 803 q 793 726 814 733 q 760 728 765 717 q 631 876 707 813 q 581 904 606 892 l 544 564 q 597 544 586 549 l 610 539 q 729 465 692 500 q 813 307 799 400 q 761 114 826 210 q 672 19 725 60 q 478 -57 581 -50 l 475 -90 q 457 -128 474 -107 q 422 -162 440 -150 q 392 -176 404 -174 q 369 -160 367 -182 l 381 -51 q 194 33 279 -33 q 63 197 110 100 q 86 254 53 217 q 132 292 113 285 q 165 290 158 300 q 290 135 217 204 q 394 78 340 101 l 436 465 q 419 472 432 467 q 358 493 406 476 q 264 544 308 511 q 173 653 200 590 q 160 793 146 717 q 244 943 175 872 q 499 1054 356 1056 l 500 1074 m 486 939 q 451 947 468 943 q 343 938 397 949 q 290 908 314 925 q 264 851 274 883 q 276 744 261 797 q 360 644 308 688 q 450 597 403 618 l 486 939 m 490 51 q 617 63 554 49 q 683 108 656 82 q 706 229 707 164 q 632 365 683 306 q 531 431 585 403 l 490 51 z "},"%":{"ha":1081,"x_min":10,"x_max":1182,"o":"m 1039 981 q 1049 985 1039 981 q 1069 983 1060 990 q 1070 957 1078 976 q 1043 917 1063 938 l 168 -3 q 128 -33 149 -24 q 98 -36 107 -43 q 97 -10 89 -29 q 124 31 104 10 l 999 950 q 1039 981 1018 971 m 393 968 q 478 649 607 896 q 413 556 453 601 q 322 488 372 510 q 237 471 272 467 q 161 493 201 475 q 81 736 10 565 q 161 875 114 818 q 393 968 272 1007 m 304 865 q 222 858 243 885 q 178 781 200 832 q 253 596 126 656 q 317 577 289 579 q 357 582 346 575 l 367 588 q 386 618 375 597 q 304 865 482 804 m 968 463 q 1053 143 1182 390 q 988 50 1028 96 q 897 -17 947 4 q 812 -35 847 -39 q 736 -12 776 -31 q 656 231 585 60 q 736 369 689 313 q 968 463 847 501 m 879 360 q 797 353 818 379 q 753 275 775 326 q 828 90 701 150 q 892 72 864 74 q 932 76 921 69 l 942 82 q 961 113 950 92 q 879 360 1057 299 z "},"&":{"ha":954,"x_min":47,"x_max":933,"o":"m 658 125 q 363 486 464 332 q 221 424 275 463 q 163 288 167 385 q 463 53 153 36 q 658 125 589 60 m 453 597 q 565 638 525 618 q 621 674 604 657 q 624 682 624 678 q 621 851 658 799 q 468 894 583 904 q 364 869 400 889 q 371 768 353 838 q 453 597 392 693 m 736 244 q 799 469 778 338 q 819 508 801 486 q 858 544 836 531 q 893 555 879 557 q 904 536 907 553 q 785 193 871 329 q 925 49 851 124 q 925 20 933 40 q 897 -20 917 0 q 856 -49 876 -40 q 828 -49 835 -57 q 696 85 758 21 q 390 -53 564 -43 q 57 213 47 -72 q 101 365 60 289 q 321 554 167 485 q 256 702 267 650 q 253 792 244 754 q 288 867 263 829 q 400 965 336 938 q 540 1000 464 993 q 722 945 674 1011 q 726 738 769 879 q 640 617 706 672 q 499 529 575 561 q 736 244 589 404 z "},"'":{"ha":181,"x_min":94,"x_max":235,"o":"m 128 907 q 147 944 129 922 q 181 978 164 967 q 210 993 199 990 q 228 992 222 996 q 233 976 235 988 l 201 682 q 183 644 200 665 q 148 610 165 622 q 119 596 131 599 q 101 597 107 593 q 96 613 94 601 l 128 907 z "},"(":{"ha":432,"x_min":8,"x_max":489,"o":"m 388 -51 q 385 -60 388 -51 q 365 -91 383 -69 q 324 -124 346 -112 q 292 -132 303 -136 q 47 394 8 -29 q 156 797 69 642 q 292 960 210 893 q 463 1051 374 1028 q 485 1045 481 1057 q 477 1013 489 1033 q 444 973 465 992 q 404 949 422 954 q 309 904 343 932 q 244 822 275 876 q 153 467 174 694 q 381 -29 117 68 q 388 -51 392 -33 z "},")":{"ha":449,"x_min":17,"x_max":489,"o":"m 110 972 q 113 981 110 972 q 133 1011 115 990 q 173 1044 151 1032 q 206 1051 194 1057 q 453 492 489 940 q 211 -57 421 107 q 42 -143 129 -121 q 20 -135 24 -147 q 28 -103 17 -124 q 63 -63 40 -82 q 103 -40 85 -44 q 197 1 164 -25 q 260 78 231 28 q 347 419 329 199 q 117 949 382 844 q 110 972 106 953 z "},"*":{"ha":532,"x_min":53,"x_max":608,"o":"m 290 903 q 308 940 292 918 q 342 974 324 963 q 371 990 360 986 q 396 975 397 997 l 385 779 l 568 871 q 599 875 589 881 q 601 850 608 869 q 575 810 594 831 q 535 778 556 789 l 442 731 l 578 657 q 582 632 588 651 q 558 592 576 613 q 517 560 539 571 q 486 554 496 549 l 375 614 l 371 528 q 353 490 369 513 q 319 456 338 468 q 290 440 301 444 q 265 456 264 433 l 276 649 l 93 557 q 63 553 72 547 q 60 577 53 558 q 86 617 67 596 q 126 649 106 639 l 222 697 l 83 774 q 79 799 74 779 q 103 839 85 818 q 144 871 122 860 q 175 875 165 882 l 285 815 l 290 903 z "},"+":{"ha":554,"x_min":31,"x_max":594,"o":"m 281 663 q 299 701 282 679 q 333 735 315 722 q 363 750 350 747 q 386 735 388 757 l 368 514 l 574 517 q 588 490 594 517 q 544 433 576 456 q 499 411 513 411 l 360 410 l 347 258 q 329 221 346 243 q 295 186 313 199 q 265 171 278 174 q 242 186 240 164 l 260 408 l 51 406 q 38 432 31 406 q 81 489 49 467 q 126 511 113 511 l 268 513 l 281 663 z "},",":{"ha":286,"x_min":25,"x_max":268,"o":"m 99 123 q 105 134 99 123 q 132 163 111 144 q 172 188 153 182 q 194 182 190 193 q 103 -162 268 7 q 63 -192 83 -183 q 33 -194 42 -201 q 33 -166 25 -186 q 63 -125 42 -146 q 97 -74 83 -103 q 112 -2 110 -46 q 92 90 114 42 q 99 123 88 101 z "},"-":{"ha":467,"x_min":33,"x_max":472,"o":"m 42 268 q 58 299 46 281 q 93 332 71 317 q 131 347 115 347 l 451 346 q 463 319 472 346 q 420 263 451 285 q 374 240 389 240 l 53 242 q 42 268 33 242 z "},".":{"ha":279,"x_min":64,"x_max":242,"o":"m 103 126 q 203 124 157 189 q 196 18 242 69 q 103 19 142 -43 q 103 126 64 81 z "},"/":{"ha":426,"x_min":18,"x_max":499,"o":"m 419 999 q 429 1009 419 999 q 459 1029 439 1019 q 489 1032 479 1039 q 492 1006 499 1025 l 125 8 q 98 -32 118 -11 q 58 -62 78 -53 q 28 -65 38 -72 q 25 -39 18 -58 l 392 958 q 419 999 399 978 z "},":":{"ha":310,"x_min":88,"x_max":300,"o":"m 126 228 q 226 225 181 290 q 219 119 265 171 q 126 120 165 58 q 126 228 88 182 m 161 644 q 261 642 215 707 q 254 536 300 588 q 161 537 200 475 q 161 644 122 599 z "},";":{"ha":286,"x_min":25,"x_max":300,"o":"m 99 123 q 105 134 99 123 q 132 163 111 144 q 172 188 153 182 q 194 182 190 193 q 103 -162 268 7 q 63 -192 83 -183 q 33 -194 42 -201 q 33 -166 25 -186 q 63 -125 42 -146 q 97 -74 83 -103 q 112 -2 110 -46 q 92 90 114 42 q 99 123 88 101 m 161 644 q 261 642 215 707 q 254 536 300 588 q 161 537 200 475 q 161 644 122 599 z "},"<":{"ha":718,"x_min":11,"x_max":751,"o":"m 744 611 q 748 606 744 611 q 742 581 751 601 q 711 541 732 561 q 671 514 690 521 l 242 354 l 697 164 q 703 141 708 160 q 678 101 697 122 q 638 68 660 81 q 606 61 617 56 l 54 290 q 124 392 11 308 l 718 614 q 744 611 738 621 z "},"=":{"ha":528,"x_min":49,"x_max":535,"o":"m 71 364 q 88 394 75 376 q 122 428 100 413 q 160 443 144 443 l 514 443 q 525 417 535 443 q 483 360 514 382 q 436 338 451 338 l 82 338 q 71 364 63 338 m 57 199 q 74 229 61 211 q 108 263 86 247 q 146 278 131 278 l 500 276 q 511 250 521 276 q 469 193 500 215 q 422 171 438 171 l 68 172 q 57 199 49 172 z "},">":{"ha":676,"x_min":-10,"x_max":686,"o":"m 33 545 q 36 555 33 545 q 58 585 39 564 q 98 619 76 607 q 131 625 119 631 l 676 393 q 647 315 686 350 q 608 292 632 301 l 25 60 q -2 61 6 51 q -1 91 -10 71 q 29 131 8 111 q 69 160 50 151 l 496 328 l 39 522 q 33 545 28 526 z "},"?":{"ha":769,"x_min":122,"x_max":788,"o":"m 231 778 q 213 740 229 763 q 179 706 197 718 q 149 690 161 693 q 125 706 122 683 q 199 913 133 828 q 386 1043 279 1017 q 596 1053 492 1069 q 769 758 788 1032 q 708 556 761 643 q 572 418 654 468 q 399 350 490 368 l 397 288 q 381 250 397 272 q 347 215 365 228 q 318 199 329 203 q 292 213 292 190 l 294 354 q 317 409 294 386 q 361 438 340 432 l 383 444 q 543 478 486 451 q 619 532 600 504 q 664 685 657 586 q 515 947 681 929 q 378 947 435 958 q 267 906 285 929 q 244 858 256 892 q 231 778 233 824 m 292 79 q 308 117 292 94 q 342 151 325 139 q 372 168 360 164 q 397 154 399 175 l 392 38 q 374 0 390 22 q 341 -35 358 -22 q 311 -51 324 -47 q 286 -37 285 -58 l 292 79 z "},"@":{"ha":1154,"x_min":21,"x_max":1157,"o":"m 814 596 q 858 636 835 622 q 892 647 881 650 q 900 625 904 643 l 810 235 q 878 147 799 153 q 965 161 936 143 q 996 222 979 175 q 1019 326 1013 268 q 948 671 1049 560 q 614 772 847 782 q 381 708 472 765 q 193 367 243 624 q 336 -68 131 40 q 842 -79 599 -208 q 874 -74 863 -68 q 878 -98 885 -79 q 853 -138 872 -117 q 814 -171 835 -160 q 244 -171 529 -322 q 88 295 21 -53 q 397 793 154 643 q 689 878 524 871 q 1047 768 938 889 q 1125 396 1157 647 q 1074 215 1113 296 q 959 85 1036 135 q 798 41 882 35 q 704 117 714 47 q 389 29 550 -40 q 325 350 251 89 q 471 564 364 485 q 601 629 536 613 q 814 596 721 660 m 769 450 q 768 451 768 450 q 543 526 668 558 q 482 503 500 515 q 428 406 447 476 q 482 131 365 182 q 674 167 599 81 q 705 207 693 189 q 718 226 717 225 l 769 450 z "},"A":{"ha":903,"x_min":63,"x_max":842,"o":"m 137 -22 q 127 -32 137 -22 q 97 -49 117 -42 q 70 -48 78 -57 q 72 -19 63 -39 l 531 981 l 572 1029 q 631 1043 624 1078 l 839 43 q 828 8 842 31 q 792 -31 814 -14 q 753 -52 771 -49 q 733 -43 736 -56 l 668 275 q 664 275 667 275 l 285 275 l 167 19 q 137 -22 157 -1 m 646 381 l 547 850 l 333 381 l 646 381 z "},"B":{"ha":833,"x_min":85,"x_max":804,"o":"m 665 524 q 737 456 696 504 q 791 340 778 408 q 778 208 804 271 q 703 92 751 144 q 404 -53 593 -26 q 99 -53 272 -69 q 86 -36 85 -51 l 172 964 q 231 1046 189 1024 q 265 1053 247 1054 q 507 1018 397 1040 q 675 953 617 996 q 789 758 786 871 q 665 524 790 636 m 621 96 q 656 122 646 111 q 681 168 667 132 q 685 260 696 204 q 626 374 675 317 q 549 433 576 431 q 438 436 504 436 q 226 442 372 436 l 193 51 q 621 96 488 25 m 236 558 l 476 547 q 569 542 528 544 q 647 582 610 544 q 683 674 685 619 q 592 844 681 778 q 404 917 526 893 q 269 938 346 928 l 236 558 z "},"C":{"ha":936,"x_min":72,"x_max":900,"o":"m 893 754 q 875 715 892 738 q 840 681 858 693 q 811 667 822 669 q 788 682 786 660 q 769 797 793 740 q 696 890 744 853 q 588 939 647 928 q 474 935 529 950 q 232 594 300 888 q 260 226 181 374 q 383 97 304 143 q 552 53 463 50 q 697 94 642 56 q 776 197 753 133 q 805 238 785 217 q 845 267 825 258 q 874 269 865 276 q 876 242 883 261 q 808 126 853 183 q 703 26 763 68 q 487 -52 597 -49 q 291 -6 376 -56 q 158 132 206 44 q 129 533 72 293 q 376 956 193 810 q 671 1044 522 1071 q 792 990 739 1032 q 872 886 844 949 q 893 754 900 824 z "},"D":{"ha":893,"x_min":69,"x_max":888,"o":"m 71 -36 l 168 964 q 219 1042 176 1017 q 257 1053 236 1051 q 871 538 888 1090 q 755 184 864 329 q 479 -14 646 39 q 83 -53 313 -67 q 71 -36 69 -53 m 178 51 q 510 83 381 40 q 688 192 639 125 q 765 463 758 288 q 649 826 772 704 q 265 950 525 947 l 178 51 z "},"E":{"ha":800,"x_min":76,"x_max":821,"o":"m 807 1053 q 821 1039 821 1053 q 805 1001 821 1024 q 767 963 789 979 q 729 947 744 947 l 261 947 l 228 558 q 701 558 464 558 q 713 532 722 558 q 670 475 701 497 q 624 453 639 453 q 218 453 421 453 l 185 53 q 719 53 451 53 q 731 26 740 53 q 688 -31 719 -8 q 642 -53 657 -53 l 96 -53 q 81 -49 86 -54 q 78 -33 76 -44 l 163 964 q 181 1003 164 979 q 244 1051 211 1043 q 254 1053 251 1053 q 260 1053 257 1053 l 807 1053 z "},"F":{"ha":807,"x_min":76,"x_max":828,"o":"m 163 964 q 188 1011 164 979 q 244 1051 211 1043 q 254 1053 251 1053 q 260 1053 257 1053 l 807 1053 q 818 1026 828 1053 q 776 969 807 992 q 729 947 744 947 l 261 947 l 228 558 q 701 558 464 558 q 713 532 722 558 q 670 475 701 497 q 624 453 639 453 q 218 453 421 453 l 183 39 q 142 -28 185 10 q 108 -49 126 -42 q 83 -51 89 -57 q 78 -33 76 -44 l 163 964 z "},"G":{"ha":885,"x_min":107,"x_max":910,"o":"m 769 82 q 468 -53 635 -51 q 288 -4 371 -53 q 158 132 204 44 q 107 356 107 229 q 129 533 107 438 q 361 947 190 803 q 617 1051 485 1051 q 775 1004 710 1051 q 894 781 894 918 q 893 753 894 768 q 875 715 892 738 q 840 681 858 693 q 810 667 822 669 q 792 668 799 664 q 788 683 786 672 q 789 703 789 693 q 765 808 789 754 q 688 899 740 861 q 540 946 621 946 q 381 890 446 946 q 321 818 351 865 q 238 618 264 728 q 213 432 213 508 q 258 229 213 315 q 544 53 351 53 q 706 101 639 53 q 776 197 753 135 q 782 206 778 201 l 801 415 l 472 419 q 461 446 451 419 q 503 503 472 481 q 550 525 535 525 l 894 521 q 908 504 910 521 l 864 36 q 846 -2 863 21 q 811 -37 829 -25 q 782 -51 793 -49 q 758 -36 757 -58 l 769 82 z "},"H":{"ha":803,"x_min":74,"x_max":808,"o":"m 160 964 q 178 1002 161 981 q 213 1036 194 1024 q 242 1051 231 1049 q 265 1036 267 1058 l 225 556 l 667 556 l 701 964 q 719 1001 703 979 q 754 1036 736 1024 q 783 1051 772 1049 q 807 1036 808 1058 l 722 36 q 704 -1 721 21 q 669 -36 688 -24 q 640 -51 651 -49 q 617 -36 615 -58 l 658 450 l 215 450 l 181 36 q 163 -1 179 21 q 128 -36 146 -24 q 99 -51 110 -49 q 75 -36 74 -58 l 160 964 z "},"I":{"ha":343,"x_min":99,"x_max":292,"o":"m 185 964 q 203 1002 186 981 q 238 1036 219 1024 q 267 1051 256 1049 q 290 1036 292 1058 l 206 36 q 188 -1 204 21 q 153 -36 171 -24 q 124 -51 135 -49 q 100 -36 99 -58 l 185 964 z "},"J":{"ha":672,"x_min":42,"x_max":688,"o":"m 581 965 q 599 1003 582 981 q 634 1037 617 1025 q 663 1051 651 1049 q 681 1050 675 1054 q 686 1035 688 1046 l 597 240 q 538 76 588 144 q 286 -53 444 -54 q 42 169 51 -51 q 56 206 42 183 q 89 241 71 228 q 119 258 107 254 q 147 247 146 268 q 364 53 157 54 q 463 74 435 53 q 480 114 471 83 q 492 171 489 144 l 581 965 z "},"K":{"ha":806,"x_min":39,"x_max":758,"o":"m 129 964 q 147 1003 131 981 q 182 1037 164 1025 q 211 1051 200 1049 q 235 1036 236 1058 l 183 457 l 675 1013 q 715 1045 693 1033 q 747 1052 736 1057 q 753 1028 758 1047 q 728 988 747 1010 l 419 639 l 736 46 q 731 15 742 36 q 699 -26 719 -7 q 658 -51 678 -44 q 633 -46 639 -57 l 325 532 l 175 363 l 146 36 q 128 -1 144 21 q 93 -36 111 -24 q 64 -51 75 -49 q 40 -36 39 -58 l 129 964 z "},"L":{"ha":751,"x_min":76,"x_max":694,"o":"m 92 -53 q 78 -36 76 -53 l 163 964 q 181 1001 164 979 q 215 1036 197 1024 q 244 1051 233 1049 q 268 1036 269 1058 l 185 53 l 674 53 q 685 26 694 53 q 642 -31 674 -8 q 596 -53 611 -53 l 92 -53 z "},"M":{"ha":1021,"x_min":56,"x_max":1040,"o":"m 954 36 q 936 -2 953 19 q 901 -36 919 -24 q 872 -51 883 -49 q 849 -36 847 -58 l 922 821 l 579 217 q 528 158 550 174 q 498 145 507 143 q 483 161 489 147 l 239 765 l 163 35 q 144 -3 161 18 q 110 -37 128 -25 q 81 -51 92 -49 q 57 -35 56 -57 l 161 965 q 189 1001 163 982 q 240 1033 215 1021 l 265 1046 l 560 315 l 943 989 q 1019 1043 976 1046 q 1040 1036 1029 1043 l 954 36 z "},"N":{"ha":843,"x_min":74,"x_max":860,"o":"m 181 36 q 163 -3 179 19 q 128 -37 146 -25 q 99 -51 110 -49 q 75 -36 74 -58 l 172 964 q 248 1042 225 1029 q 276 1046 271 1056 l 688 213 l 753 964 q 771 1002 754 979 q 806 1037 788 1025 q 835 1051 824 1049 q 858 1036 860 1058 l 771 36 q 743 -1 769 19 q 692 -33 717 -22 l 667 -46 l 254 792 l 181 36 z "},"O":{"ha":935,"x_min":57,"x_max":964,"o":"m 600 1053 q 911 504 964 1042 q 788 131 888 268 q 422 -53 647 -60 q 106 454 57 -42 q 149 688 118 588 q 242 868 181 788 q 600 1053 382 1060 m 522 947 q 313 867 375 951 q 251 732 279 821 q 211 526 222 643 q 500 53 165 64 q 715 132 653 47 q 771 252 746 174 q 806 432 796 331 q 522 947 856 936 z "},"P":{"ha":790,"x_min":76,"x_max":793,"o":"m 163 964 q 188 1011 164 979 q 251 1053 217 1050 q 564 1051 413 1113 q 731 917 669 1010 q 778 713 793 825 q 731 581 769 649 q 626 460 692 514 q 385 344 522 372 q 208 338 297 328 l 183 39 q 142 -28 185 10 q 108 -49 126 -42 q 83 -51 89 -57 q 78 -33 76 -44 l 163 964 m 263 969 l 219 456 q 444 448 338 428 q 606 515 550 468 q 674 651 661 563 q 630 824 686 740 q 488 942 574 908 q 349 975 403 975 q 263 969 296 975 z "},"Q":{"ha":928,"x_min":57,"x_max":964,"o":"m 600 1053 q 911 504 964 1042 q 744 79 883 228 l 883 -135 q 880 -165 890 -144 q 849 -206 869 -186 q 808 -232 828 -225 q 783 -229 789 -239 l 638 -4 q 422 -53 542 -56 q 106 454 57 -42 q 149 688 118 588 q 242 868 181 788 q 600 1053 382 1060 m 522 947 q 313 867 375 951 q 251 732 279 821 q 211 526 222 643 q 500 53 165 64 q 594 60 553 51 l 572 96 q 576 126 565 106 q 607 167 586 147 q 647 193 628 186 q 672 190 667 200 l 713 129 q 770 250 744 169 q 806 432 796 331 q 522 947 856 936 z "},"R":{"ha":829,"x_min":76,"x_max":781,"o":"m 443 360 q 301 335 361 335 q 208 338 240 335 l 183 36 q 165 -1 182 21 q 131 -36 149 -24 q 101 -51 113 -49 q 78 -36 76 -58 l 163 964 q 181 1003 164 979 q 250 1053 215 1049 q 419 1086 332 1086 q 582 1051 506 1086 q 731 925 682 1006 q 781 757 781 844 q 626 460 781 592 q 563 414 596 433 l 718 46 q 710 13 722 35 q 678 -27 699 -8 q 638 -51 657 -46 q 615 -46 619 -57 l 443 360 m 529 472 q 675 681 675 531 q 630 832 675 757 q 503 944 585 907 q 340 981 421 981 q 263 972 300 981 l 219 456 q 496 461 364 421 q 529 472 515 474 z "},"S":{"ha":867,"x_min":57,"x_max":868,"o":"m 857 790 q 851 779 857 790 q 825 749 846 768 q 785 724 804 731 q 760 728 765 718 q 629 878 713 818 q 451 947 546 938 q 349 940 393 953 q 288 908 306 926 q 263 844 271 890 q 278 742 254 797 q 353 649 301 686 q 479 586 404 613 q 533 567 483 585 q 610 539 583 550 q 811 313 789 463 q 763 117 826 213 q 674 21 726 61 q 386 -53 542 -79 q 196 33 282 -35 q 63 197 110 100 q 69 229 57 208 q 101 269 81 250 q 141 294 122 288 q 165 289 160 300 q 292 133 211 197 q 462 54 374 69 q 608 59 550 39 q 683 107 665 79 q 706 232 717 158 q 519 436 686 364 q 444 463 494 447 q 258 549 315 507 q 174 653 201 590 q 160 793 146 717 q 243 942 175 869 q 532 1053 367 1069 q 724 978 636 1042 q 863 821 813 915 q 857 790 868 811 z "},"T":{"ha":732,"x_min":39,"x_max":786,"o":"m 47 974 q 64 1004 51 986 q 99 1038 76 1022 q 136 1053 121 1053 l 765 1053 q 776 1026 786 1053 q 734 969 765 992 q 688 947 703 947 l 472 947 l 394 36 q 376 -1 393 21 q 342 -36 360 -24 q 313 -51 324 -49 q 289 -36 288 -58 l 372 947 l 58 947 q 47 974 39 947 z "},"U":{"ha":861,"x_min":69,"x_max":879,"o":"m 772 964 q 790 1003 774 981 q 825 1037 807 1025 q 854 1051 843 1049 q 878 1036 879 1058 l 807 250 q 806 242 807 246 q 740 113 783 171 q 569 -23 665 13 q 354 -53 472 -58 q 106 243 69 -36 l 164 964 q 182 1001 165 979 q 216 1036 199 1024 q 246 1051 233 1049 q 269 1036 271 1058 l 211 313 q 435 53 179 67 q 593 69 535 47 q 670 115 651 90 q 701 182 689 140 l 772 964 z "},"V":{"ha":851,"x_min":103,"x_max":885,"o":"m 116 991 q 123 1002 116 991 q 151 1031 129 1013 q 190 1052 172 1049 q 211 1043 207 1056 l 440 154 l 779 978 q 808 1018 788 997 q 848 1048 828 1039 q 876 1049 868 1057 q 876 1022 885 1042 l 465 22 q 426 -28 451 -12 q 383 -44 401 -44 l 364 -43 l 106 957 q 116 991 103 969 z "},"W":{"ha":1249,"x_min":114,"x_max":1313,"o":"m 1233 1016 q 1243 1027 1233 1016 q 1273 1047 1253 1038 q 1303 1051 1293 1057 q 1306 1025 1313 1044 l 942 25 l 896 -24 q 839 -43 844 -71 l 678 674 l 413 22 l 368 -26 q 311 -42 317 -75 l 117 958 q 128 993 114 971 q 163 1032 142 1015 q 202 1052 185 1049 q 222 1043 219 1056 l 392 168 l 654 814 q 693 864 668 847 q 736 879 718 881 l 756 879 l 914 175 l 1206 975 q 1233 1016 1213 994 z "},"X":{"ha":894,"x_min":38,"x_max":921,"o":"m 149 984 q 154 995 149 984 q 181 1025 160 1006 q 220 1051 201 1044 q 246 1047 239 1057 l 513 590 l 831 1004 q 869 1040 847 1026 q 902 1053 890 1054 q 915 1044 914 1051 q 897 997 921 1028 l 543 536 l 829 47 q 824 16 835 38 q 792 -25 813 -6 q 752 -51 771 -44 q 726 -47 733 -57 l 454 421 l 128 -3 q 90 -40 111 -25 q 56 -53 68 -54 q 43 -44 44 -51 q 61 3 38 -28 l 422 475 l 143 953 q 149 984 138 963 z "},"Y":{"ha":749,"x_min":50,"x_max":854,"o":"m 62 987 q 68 998 62 987 q 94 1027 74 1008 q 134 1051 115 1046 q 158 1046 153 1057 l 428 463 l 757 992 q 792 1031 771 1013 q 831 1052 814 1049 q 851 1042 849 1056 q 840 1008 854 1029 l 453 385 l 422 36 q 404 -1 421 21 q 369 -36 388 -24 q 340 -51 351 -49 q 317 -36 315 -58 l 349 319 l 56 954 q 62 987 50 965 z "},"Z":{"ha":871,"x_min":42,"x_max":904,"o":"m 186 974 q 203 1004 190 986 q 238 1038 215 1022 q 275 1053 260 1053 l 883 1053 q 896 1026 904 1053 q 881 999 892 1014 l 181 53 l 811 53 q 822 26 832 53 q 780 -31 811 -8 q 733 -53 749 -53 l 67 -53 q 58 -18 42 -53 q 69 1 63 -8 l 769 947 l 197 947 q 186 974 178 947 z "},"[":{"ha":504,"x_min":68,"x_max":474,"o":"m 465 1026 q 449 997 461 1014 q 414 963 436 979 q 376 947 392 947 l 257 947 l 178 53 l 404 53 q 415 26 425 53 q 373 -31 404 -8 q 326 -53 342 -53 l 85 -53 q 71 -36 68 -53 l 160 964 q 185 1021 163 999 q 229 1049 208 1043 l 251 1053 l 454 1053 q 465 1026 474 1053 z "},"\\":{"ha":436,"x_min":107,"x_max":415,"o":"m 121 992 q 128 1003 121 992 q 156 1031 135 1014 q 195 1052 178 1049 q 215 1043 213 1056 l 413 42 q 401 8 415 29 q 366 -31 388 -14 q 327 -52 344 -49 q 307 -42 310 -56 l 110 958 q 121 992 107 971 z "},"]":{"ha":469,"x_min":68,"x_max":479,"o":"m 164 974 q 181 1004 168 986 q 215 1038 193 1022 q 253 1053 238 1053 l 464 1053 q 478 1036 479 1053 l 394 36 q 340 -43 382 -19 q 303 -53 324 -53 l 89 -53 q 78 -26 68 -53 q 120 31 89 8 q 167 53 151 53 l 296 53 l 371 947 l 175 947 q 164 974 156 947 z "},"^":{"ha":678,"x_min":74,"x_max":636,"o":"m 149 57 q 138 47 149 57 q 108 28 128 36 q 81 30 89 21 q 82 58 74 39 l 363 679 l 404 726 q 464 742 454 776 l 633 113 q 623 78 636 100 q 588 40 610 57 q 549 18 567 22 q 528 26 532 14 l 386 556 l 179 97 q 149 57 169 78 z "},"_":{"ha":561,"x_min":6,"x_max":542,"o":"m 14 -26 q 31 4 18 -14 q 65 38 43 22 q 103 53 88 53 l 521 53 q 532 26 542 53 q 490 -31 521 -8 q 443 -53 458 -53 l 25 -53 q 14 -26 6 -53 z "},"`":{"ha":339,"x_min":111,"x_max":376,"o":"m 121 1003 q 126 1014 121 1003 q 151 1043 131 1024 q 192 1070 172 1063 q 218 1068 211 1078 l 369 860 q 367 830 376 850 q 336 790 357 810 q 296 763 315 771 q 269 765 276 756 l 118 974 q 121 1003 111 983 z "},"a":{"ha":717,"x_min":-11,"x_max":710,"o":"m 687 94 q 695 96 687 94 q 707 84 704 97 q 695 49 710 71 q 646 -1 681 26 q 572 -44 611 -29 q 478 -17 496 -75 q 471 71 469 7 q 325 -43 399 -17 q 188 -51 251 -69 q 68 407 -11 4 q 161 626 94 540 q 440 751 275 774 q 549 700 510 743 q 615 751 581 743 q 633 749 626 754 q 638 733 639 744 q 581 72 557 146 q 617 51 592 39 q 649 74 628 57 q 687 94 669 92 m 478 210 q 492 351 488 321 q 357 646 528 624 q 285 644 315 651 q 228 618 243 636 q 171 460 193 574 q 151 258 149 346 q 274 54 160 86 q 408 86 361 29 q 478 210 443 128 z "},"b":{"ha":708,"x_min":74,"x_max":710,"o":"m 361 -53 q 179 28 243 -53 q 160 -5 175 14 q 128 -36 146 -24 q 99 -51 110 -49 q 75 -36 74 -58 l 172 1074 q 190 1111 174 1089 q 225 1146 207 1133 q 254 1161 243 1158 q 278 1146 279 1168 l 238 683 q 403 751 313 753 q 644 646 579 750 q 667 353 710 542 q 557 71 624 165 q 459 -22 513 10 q 361 -53 406 -53 m 208 349 q 208 346 208 347 q 439 53 232 53 q 473 58 468 53 q 481 67 478 63 l 483 71 q 560 275 526 131 q 544 553 601 461 q 325 646 486 644 q 265 633 285 646 q 233 544 247 611 q 218 445 219 476 q 213 406 217 414 l 208 349 z "},"c":{"ha":721,"x_min":42,"x_max":693,"o":"m 569 122 q 578 132 569 122 q 609 157 588 143 q 644 168 631 171 q 654 149 657 165 q 613 52 644 94 q 547 -14 581 10 q 482 -46 513 -37 q 364 -53 413 -62 q 101 321 42 -21 q 329 717 154 617 q 461 758 397 756 q 693 546 685 767 q 678 510 693 532 q 646 474 664 488 q 615 457 628 461 q 588 468 589 447 q 386 651 579 660 q 300 626 325 649 q 209 402 239 569 q 238 151 179 235 q 444 53 297 68 q 543 60 507 47 q 549 85 547 69 q 569 122 551 100 z "},"d":{"ha":682,"x_min":29,"x_max":703,"o":"m 596 1075 q 614 1113 597 1092 q 649 1147 631 1135 q 678 1163 667 1160 q 701 1147 703 1169 l 607 36 q 589 -1 606 21 q 554 -36 572 -24 q 525 -51 536 -49 q 501 -36 500 -58 l 511 74 q 365 -42 440 -14 q 226 -51 290 -69 q 107 407 29 6 q 200 626 133 540 q 479 751 315 774 q 565 721 531 744 l 596 1075 m 546 482 q 396 646 528 631 q 325 644 356 650 q 267 618 281 636 q 213 471 232 572 q 313 54 140 101 q 447 86 400 29 q 519 215 483 129 q 524 224 521 219 l 546 482 z "},"e":{"ha":731,"x_min":68,"x_max":736,"o":"m 199 325 q 422 53 193 68 q 510 56 471 49 q 565 75 560 64 q 598 115 576 96 q 638 141 619 135 q 663 136 656 147 q 636 71 672 118 q 562 -3 600 24 q 488 -40 524 -31 q 342 -53 407 -62 q 96 293 68 -35 q 126 469 104 394 q 197 608 149 543 q 474 751 308 758 q 693 403 736 742 q 638 324 681 347 q 601 315 621 314 l 199 325 m 208 429 q 224 432 218 432 l 593 424 q 394 646 589 639 q 268 606 300 650 q 208 429 226 550 z "},"f":{"ha":556,"x_min":26,"x_max":589,"o":"m 580 890 q 575 880 580 890 q 550 849 571 869 q 509 822 529 829 q 482 822 489 814 q 381 915 429 885 q 306 939 332 944 q 288 800 293 897 l 278 696 q 436 696 357 696 q 447 669 457 696 q 405 613 436 635 q 358 590 374 590 q 268 590 313 590 l 215 36 q 197 -2 214 21 q 163 -37 181 -25 q 133 -51 144 -49 q 110 -36 108 -58 l 169 590 q 47 590 108 590 q 36 617 26 590 q 78 674 47 651 q 125 696 110 696 l 179 696 l 182 728 q 183 753 182 732 q 185 778 185 774 q 186 799 185 782 q 188 822 188 817 q 191 840 189 826 q 194 860 193 854 q 199 876 196 865 q 206 894 201 888 q 293 1005 239 968 q 388 1046 347 1042 q 582 919 468 1053 q 580 890 589 911 z "},"g":{"ha":706,"x_min":56,"x_max":719,"o":"m 636 707 q 685 747 664 742 q 718 736 719 757 q 676 188 690 285 q 640 -11 665 72 q 559 -172 615 -94 q 428 -286 503 -249 q 276 -322 353 -324 q 61 -225 119 -321 q 66 -194 56 -215 q 97 -153 76 -172 q 138 -128 118 -135 q 164 -131 157 -121 q 354 -217 214 -215 q 492 -164 454 -218 q 567 74 544 -90 q 420 -42 494 -15 q 282 -51 346 -69 q 163 407 83 4 q 256 626 189 540 q 535 751 369 774 q 636 707 597 743 m 582 229 q 590 336 592 336 q 586 351 585 340 q 451 646 622 624 q 379 644 410 651 q 322 618 336 636 q 265 460 288 574 q 246 258 243 346 q 368 54 254 86 q 503 86 456 29 q 575 215 539 129 q 582 229 578 222 z "},"h":{"ha":688,"x_min":64,"x_max":681,"o":"m 168 1081 q 186 1119 169 1097 q 221 1153 203 1142 q 250 1168 239 1165 q 274 1153 275 1175 l 226 632 q 327 717 269 683 q 443 751 385 751 q 646 425 681 754 l 613 36 q 594 -1 611 21 q 560 -36 578 -24 q 531 -51 542 -49 q 507 -36 506 -58 l 540 353 q 368 646 572 647 q 308 635 328 646 q 218 482 260 607 q 210 464 215 474 l 171 36 q 153 -2 169 21 q 118 -37 136 -25 q 89 -51 100 -49 q 65 -36 64 -58 l 168 1081 z "},"i":{"ha":264,"x_min":74,"x_max":264,"o":"m 150 664 q 168 701 151 679 q 203 735 185 724 q 233 750 221 747 q 256 735 258 756 l 182 35 q 164 -3 181 18 q 129 -37 147 -25 q 99 -51 111 -49 q 76 -35 74 -57 l 150 664 m 157 903 q 174 940 158 918 q 208 975 190 963 q 239 990 226 988 q 263 975 264 997 l 256 878 q 238 840 254 863 q 204 806 222 818 q 174 790 186 793 q 150 806 149 783 l 157 903 z "},"j":{"ha":453,"x_min":28,"x_max":458,"o":"m 36 -135 q 40 -125 36 -135 q 65 -95 44 -115 q 105 -66 85 -75 q 133 -65 125 -57 q 249 -135 200 -129 q 267 -14 260 -90 l 339 739 q 357 777 340 756 q 392 811 374 799 q 421 826 410 824 q 444 810 446 833 l 372 58 q 369 15 372 51 q 365 -33 367 -22 q 358 -72 364 -43 q 343 -117 351 -101 q 221 -235 294 -206 q 169 -246 190 -246 q 121 -231 149 -246 q 36 -162 86 -211 q 36 -135 28 -154 m 351 943 q 369 981 353 958 q 403 1015 385 1003 q 433 1031 421 1028 q 457 1015 458 1038 l 450 918 q 433 881 449 903 q 399 846 417 858 q 368 831 381 833 q 344 846 343 824 l 351 943 z "},"k":{"ha":688,"x_min":69,"x_max":671,"o":"m 174 1081 q 192 1119 175 1097 q 226 1153 208 1142 q 256 1168 244 1165 q 279 1153 281 1175 l 208 385 l 606 728 q 644 751 626 746 q 667 744 663 756 q 659 710 671 732 q 625 671 647 689 l 365 446 l 651 47 q 649 17 658 38 q 618 -22 639 -3 q 578 -49 597 -42 q 551 -47 558 -57 l 263 356 q 261 357 263 356 l 201 304 l 176 36 q 158 -2 175 21 q 124 -37 142 -25 q 94 -51 106 -49 q 71 -36 69 -58 l 174 1081 z "},"l":{"ha":257,"x_min":69,"x_max":281,"o":"m 174 1081 q 192 1119 175 1097 q 226 1153 208 1142 q 256 1168 244 1165 q 279 1153 281 1175 l 176 36 q 158 -2 175 21 q 124 -37 142 -25 q 94 -51 106 -49 q 71 -36 69 -58 l 174 1081 z "},"m":{"ha":1071,"x_min":74,"x_max":1051,"o":"m 150 664 q 168 701 151 679 q 203 735 185 724 q 233 750 221 747 q 256 735 258 756 l 246 643 q 340 719 285 688 q 454 751 396 751 q 624 615 590 753 q 735 715 672 679 q 856 751 797 751 q 1017 425 1051 754 l 983 36 q 965 -1 982 21 q 931 -36 949 -24 q 901 -51 913 -49 q 878 -36 876 -58 l 911 353 q 781 646 943 647 q 721 635 740 646 q 633 489 674 607 q 629 425 632 458 l 596 36 q 578 -1 594 21 q 543 -36 561 -24 q 514 -51 525 -49 q 490 -36 489 -58 l 524 353 q 526 401 526 385 q 528 424 526 418 q 379 646 532 649 q 319 635 339 646 q 229 482 271 607 q 229 478 229 481 l 182 35 q 164 -3 181 18 q 129 -37 147 -25 q 99 -51 111 -49 q 76 -35 74 -57 l 150 664 z "},"n":{"ha":697,"x_min":74,"x_max":692,"o":"m 150 664 q 168 701 151 679 q 203 735 185 724 q 233 750 221 747 q 256 735 258 756 l 246 643 q 340 719 285 688 q 454 751 396 751 q 657 425 692 754 l 624 36 q 606 -1 622 21 q 571 -36 589 -24 q 542 -51 553 -49 q 518 -36 517 -58 l 551 353 q 379 646 583 647 q 319 635 339 646 q 229 482 271 607 q 229 478 229 481 l 182 35 q 164 -3 181 18 q 129 -37 147 -25 q 99 -51 111 -49 q 76 -35 74 -57 l 150 664 z "},"o":{"ha":747,"x_min":56,"x_max":756,"o":"m 500 751 q 706 333 756 729 q 613 79 685 175 q 336 -53 501 -68 q 99 308 56 -28 q 135 476 111 404 q 208 611 160 549 q 500 751 326 767 m 419 646 q 276 606 314 656 q 235 519 256 579 q 204 378 214 458 q 417 53 165 75 q 543 85 513 44 q 575 153 558 106 q 600 264 592 201 q 419 646 647 626 z "},"p":{"ha":731,"x_min":38,"x_max":778,"o":"m 136 665 q 154 703 138 682 q 189 738 171 725 q 218 753 207 750 q 242 738 243 760 l 236 674 q 433 751 319 753 q 683 332 778 749 q 590 94 647 174 q 474 -19 533 15 q 361 -53 414 -53 q 179 28 243 -53 q 144 -372 179 28 q 126 -410 143 -387 q 92 -444 110 -432 q 63 -460 74 -457 q 39 -444 38 -467 l 136 665 m 208 350 q 208 346 208 349 q 439 53 232 53 q 497 68 483 53 q 584 288 546 118 q 567 551 622 458 q 356 646 511 644 q 265 622 282 646 q 233 545 247 599 q 217 453 218 492 q 213 408 215 415 l 208 350 z "},"q":{"ha":668,"x_min":24,"x_max":663,"o":"m 576 707 q 638 751 606 744 q 661 736 663 758 l 567 -375 q 549 -412 565 -390 q 515 -447 532 -435 q 485 -462 497 -460 q 461 -447 460 -469 l 506 72 q 360 -42 433 -15 q 222 -51 286 -69 q 103 407 24 4 q 196 626 129 540 q 475 751 310 774 q 576 707 538 744 m 528 340 q 526 351 525 344 q 392 646 563 624 q 319 644 350 651 q 263 618 278 636 q 206 460 228 574 q 186 258 183 346 q 308 54 194 86 q 443 86 396 29 q 515 215 479 129 q 518 221 517 218 l 528 340 z "},"r":{"ha":443,"x_min":74,"x_max":489,"o":"m 150 664 q 168 701 151 679 q 203 735 185 724 q 233 750 221 747 q 256 735 258 756 l 249 674 q 469 751 356 764 q 479 722 489 749 q 433 665 465 686 q 389 646 401 644 q 268 617 318 654 q 235 532 244 599 l 182 35 q 164 -3 181 18 q 129 -37 147 -25 q 99 -51 111 -49 q 76 -35 74 -57 l 128 451 q 129 463 128 454 l 150 664 z "},"s":{"ha":710,"x_min":79,"x_max":658,"o":"m 647 540 q 641 529 647 540 q 613 499 635 518 q 574 476 592 481 q 551 483 556 472 q 476 592 528 547 q 367 646 424 638 q 278 636 310 654 q 293 513 250 578 q 443 411 331 456 q 544 367 519 381 q 653 192 656 299 q 572 29 650 107 q 251 -24 431 -111 q 85 131 150 26 q 90 161 79 140 q 121 201 100 182 q 161 228 142 221 q 186 225 181 235 q 378 65 261 107 q 513 58 453 39 q 536 71 532 65 q 543 150 554 101 q 389 293 524 239 q 357 306 383 296 q 257 354 282 335 q 174 574 131 446 q 229 665 190 625 q 443 751 328 768 q 572 692 515 742 q 654 572 629 643 q 647 540 658 561 z "},"t":{"ha":514,"x_min":65,"x_max":479,"o":"m 456 113 q 465 115 456 113 q 476 103 474 117 q 465 69 479 90 q 411 15 451 47 q 322 -39 371 -18 q 179 -19 226 -78 q 156 176 135 32 l 192 594 l 86 594 q 75 621 65 594 q 117 678 86 656 q 164 701 149 701 l 201 701 l 222 939 q 240 976 224 954 q 275 1011 257 999 q 304 1026 293 1024 q 328 1011 329 1033 l 301 701 q 422 701 363 701 q 433 674 443 701 q 391 617 422 639 q 344 594 360 594 l 292 594 l 261 247 q 261 244 261 246 q 279 78 242 119 q 364 57 314 35 q 413 89 388 68 q 456 113 439 110 z "},"u":{"ha":707,"x_min":72,"x_max":690,"o":"m 614 35 q 596 -3 613 19 q 561 -37 579 -25 q 531 -51 543 -49 q 508 -35 506 -57 l 518 56 q 424 -21 479 11 q 310 -53 368 -53 q 107 275 72 -56 l 140 663 q 158 701 142 678 q 193 735 175 724 q 222 750 211 747 q 246 735 247 757 l 213 346 q 385 53 181 51 q 444 64 425 53 q 535 217 493 92 q 535 221 535 218 l 582 664 q 600 702 583 681 q 635 735 617 724 q 665 750 653 747 q 688 735 690 756 l 614 35 z "},"v":{"ha":686,"x_min":93,"x_max":697,"o":"m 106 690 q 113 700 106 690 q 140 729 119 711 q 179 751 161 747 q 201 743 197 754 l 368 149 l 592 678 q 620 718 600 697 q 660 747 640 739 q 689 748 681 756 q 689 719 697 740 l 394 21 q 325 -49 374 -28 q 293 -43 297 -61 l 96 656 q 106 690 93 668 z "},"w":{"ha":1025,"x_min":108,"x_max":1063,"o":"m 561 575 q 614 582 606 607 l 733 147 l 957 678 q 985 718 965 697 q 1026 747 1006 739 q 1054 748 1046 756 q 1054 719 1063 740 l 758 18 l 717 -31 q 657 -46 667 -81 l 538 389 l 383 21 q 354 -19 374 -3 q 289 -51 308 -61 q 282 -40 282 -49 l 111 656 q 122 690 108 668 q 156 730 135 713 q 195 751 178 747 q 217 742 213 754 l 360 154 l 513 518 q 561 575 529 557 z "},"x":{"ha":717,"x_min":51,"x_max":738,"o":"m 104 683 q 109 693 104 683 q 135 723 114 704 q 175 749 156 742 q 200 746 194 756 l 410 414 l 651 707 q 691 741 669 728 q 725 751 713 754 q 734 731 738 749 q 713 692 731 713 l 442 363 l 640 47 q 636 17 646 38 q 606 -24 626 -4 q 565 -50 585 -43 q 540 -47 546 -57 l 351 251 l 138 -7 q 98 -42 119 -28 q 64 -52 76 -56 q 55 -31 51 -49 q 76 7 58 -14 l 319 303 l 100 651 q 104 683 94 661 z "},"y":{"ha":733,"x_min":47,"x_max":711,"o":"m 604 663 q 622 700 606 678 q 656 735 638 722 q 685 750 674 747 q 710 736 711 757 q 668 188 682 285 q 632 -11 657 72 q 551 -172 607 -94 q 419 -286 494 -249 q 268 -322 344 -324 q 53 -225 111 -321 q 58 -194 47 -215 q 89 -153 68 -172 q 129 -128 110 -135 q 156 -131 149 -121 q 346 -217 206 -215 q 483 -164 446 -218 q 557 67 535 -92 q 274 -50 421 -97 q 179 665 79 11 q 199 703 182 682 q 234 737 217 725 q 263 751 251 749 q 281 748 275 753 q 285 733 286 743 q 281 149 224 315 q 361 53 308 69 q 496 82 447 25 q 569 214 533 125 q 574 224 571 218 q 604 663 586 365 z "},"z":{"ha":736,"x_min":64,"x_max":715,"o":"m 139 672 q 156 703 143 685 q 190 736 168 721 q 228 751 213 751 l 694 751 q 707 725 715 751 q 689 696 703 713 l 197 53 l 656 53 q 667 26 676 53 q 624 -31 656 -8 q 578 -53 593 -53 l 81 -53 q 66 -35 64 -51 q 86 3 68 -18 l 578 646 l 150 646 q 139 672 131 646 z "},"{":{"ha":414,"x_min":38,"x_max":528,"o":"m 183 453 q 215 394 222 414 q 211 149 213 383 q 262 8 210 54 q 414 -25 314 -37 q 429 -49 436 -22 q 390 -104 422 -79 q 342 -131 357 -129 q 106 74 103 -149 q 111 397 110 344 l 49 414 q 40 436 38 417 q 74 492 43 456 q 133 539 104 528 l 172 829 q 174 833 172 833 q 228 953 189 906 q 381 1050 304 1044 q 515 1036 446 1057 q 524 1014 528 1032 q 502 974 519 996 q 463 940 485 953 q 429 931 440 928 q 292 938 339 957 q 278 897 279 914 l 228 526 l 183 453 z "},"|":{"ha":268,"x_min":64,"x_max":283,"o":"m 176 965 q 194 1003 178 981 q 229 1037 211 1025 q 258 1051 247 1049 q 282 1036 283 1058 l 171 -94 q 153 -133 169 -111 q 118 -167 136 -156 q 89 -182 100 -179 q 65 -167 64 -189 l 176 965 z "},"}":{"ha":414,"x_min":-7,"x_max":443,"o":"m 303 415 q 268 494 303 415 l 265 868 q 256 910 264 885 q 119 921 211 935 q 87 935 107 919 q 52 974 67 950 q 35 1016 38 997 q 46 1036 33 1035 q 181 1033 117 1049 q 321 917 257 1018 q 360 792 353 864 l 360 788 l 363 496 q 416 441 390 481 q 442 382 442 401 q 432 361 443 363 l 367 351 q 332 29 363 299 q 72 -143 307 -190 q 28 -112 57 -140 q -4 -51 -1 -83 q 14 -29 -7 -24 q 168 -15 111 -54 q 236 118 225 24 q 263 363 264 351 q 303 415 260 382 z "},"~":{"ha":621,"x_min":32,"x_max":667,"o":"m 578 614 q 587 625 578 614 q 617 649 596 636 q 653 660 639 663 q 663 636 667 658 q 654 596 658 614 q 605 506 640 544 q 544 452 569 468 q 497 429 518 436 q 450 425 476 422 q 406 433 424 428 q 361 454 389 439 q 263 519 325 475 q 157 567 201 563 l 139 518 q 110 478 131 499 q 70 448 90 457 q 41 446 50 439 q 39 474 32 453 l 69 551 q 118 619 82 583 q 179 663 154 654 q 223 673 204 672 q 258 671 242 674 q 292 658 274 668 q 367 613 322 644 q 549 536 483 529 q 558 572 554 553 q 578 614 561 592 z "}," ":{"ha":319,"x_min":0,"x_max":0,"o":""},"¡":{"ha":275,"x_min":81,"x_max":285,"o":"m 176 946 q 196 985 179 963 q 231 1018 213 1007 q 260 1032 249 1029 q 282 1015 285 1038 l 268 907 q 249 868 265 890 q 214 835 232 846 q 185 821 196 824 q 163 838 160 815 l 176 946 m 149 714 q 167 752 150 731 q 201 786 183 774 q 231 801 219 799 q 254 786 256 808 l 188 36 q 169 -1 186 21 q 135 -36 153 -24 q 106 -51 117 -49 q 82 -36 81 -58 l 149 714 z "},"¢":{"ha":696,"x_min":42,"x_max":693,"o":"m 379 789 q 397 826 381 804 q 432 861 414 849 q 461 876 450 874 q 485 860 486 883 l 396 -99 q 378 -137 394 -114 q 343 -171 361 -160 q 314 -186 325 -183 q 290 -171 289 -193 l 379 789 m 569 122 q 578 132 569 122 q 609 157 588 143 q 644 168 631 171 q 654 149 657 165 q 613 52 644 94 q 547 -14 581 10 q 482 -46 513 -37 q 364 -53 413 -62 q 101 321 42 -21 q 329 717 154 617 q 461 758 397 756 q 693 546 685 767 q 678 510 693 532 q 646 474 664 488 q 615 457 628 461 q 588 468 589 447 q 386 651 579 660 q 300 626 325 649 q 209 402 239 569 q 238 151 179 235 q 444 53 297 68 q 543 60 507 47 q 549 85 547 69 q 569 122 551 100 z "},"£":{"ha":785,"x_min":54,"x_max":781,"o":"m 719 80 q 717 67 719 80 q 685 27 714 54 q 633 -3 656 0 l 158 -53 q 142 -46 147 -54 q 143 -25 138 -37 q 214 421 200 131 l 75 419 q 61 446 54 419 q 104 503 72 481 q 150 525 136 525 l 217 526 q 218 563 217 544 q 239 776 219 690 q 357 988 267 907 q 511 1053 429 1053 q 776 818 701 1056 q 767 784 781 806 q 733 744 754 763 q 693 722 711 726 q 671 731 675 718 q 436 947 603 950 q 383 936 400 947 q 342 812 358 907 q 324 649 325 717 q 321 528 324 581 l 628 531 q 642 504 649 531 q 599 447 631 469 q 553 425 567 425 l 315 422 q 254 56 299 197 l 703 103 q 719 80 725 106 z "},"¤":{"ha":688,"x_min":42,"x_max":725,"o":"m 238 564 q 200 536 224 544 q 169 535 176 528 l 53 650 q 53 678 44 658 q 81 719 61 697 q 122 747 100 739 q 150 749 143 756 l 267 632 l 249 596 q 238 564 242 568 m 525 563 q 510 583 506 575 q 542 622 521 603 l 654 725 q 694 750 675 744 q 719 746 714 756 q 714 715 725 736 q 682 674 704 694 l 569 572 q 529 547 524 526 q 525 563 532 558 m 522 268 q 554 311 531 300 q 586 314 578 322 l 693 210 q 693 183 701 203 q 664 142 683 164 q 624 113 644 122 q 596 113 603 103 l 489 217 q 489 244 472 232 q 522 268 522 267 m 229 267 q 249 256 256 264 q 219 215 222 218 l 119 118 q 78 89 97 97 q 50 92 58 81 q 57 124 42 100 q 83 160 71 147 l 183 257 q 224 285 225 293 q 229 267 221 268 m 453 697 q 625 414 667 682 q 547 242 607 307 q 314 153 453 142 q 114 397 78 169 q 145 511 125 463 q 207 603 165 560 q 453 697 306 707 m 385 625 q 264 599 296 632 q 228 540 246 581 q 203 444 211 499 q 382 224 171 239 q 489 246 463 218 q 515 292 501 260 q 536 367 529 325 q 385 625 576 613 z "},"¥":{"ha":875,"x_min":50,"x_max":854,"o":"m 124 328 q 142 358 128 340 q 176 392 154 376 q 213 407 199 407 l 640 410 q 654 383 661 410 q 611 326 643 349 q 565 304 579 304 l 138 301 q 124 328 115 301 m 114 194 q 131 225 118 207 q 165 258 143 243 q 203 274 188 274 l 628 268 q 639 242 649 268 q 596 185 628 207 q 550 163 564 163 l 125 168 q 114 194 106 168 m 62 987 q 68 998 62 987 q 94 1027 74 1008 q 134 1051 115 1046 q 158 1046 153 1057 l 428 463 l 757 992 q 792 1031 771 1013 q 831 1052 814 1049 q 851 1042 849 1056 q 840 1008 854 1029 l 453 385 l 422 36 q 404 -1 421 21 q 369 -36 388 -24 q 340 -51 351 -49 q 317 -36 315 -58 l 349 319 l 56 954 q 62 987 50 965 z "},"¦":{"ha":268,"x_min":58,"x_max":272,"o":"m 165 964 q 183 1003 167 981 q 218 1037 200 1025 q 247 1051 236 1049 q 271 1036 272 1058 l 232 601 q 214 564 231 586 q 179 529 197 542 q 150 514 161 517 q 126 529 125 507 l 165 964 m 107 267 q 125 306 108 283 q 160 340 142 328 q 189 354 178 351 q 213 339 214 360 l 165 -128 q 147 -167 164 -144 q 113 -201 131 -189 q 83 -215 94 -212 q 60 -200 58 -221 l 107 267 z "},"§":{"ha":647,"x_min":76,"x_max":660,"o":"m 228 615 l 193 633 q 179 657 189 635 q 163 707 169 679 q 192 847 146 775 q 420 987 263 960 q 643 871 578 1014 q 637 838 649 860 q 604 798 625 817 q 565 774 583 779 q 540 779 546 768 q 353 881 483 904 q 271 856 300 872 q 289 735 256 811 l 588 582 q 593 576 590 581 q 550 331 660 456 l 590 313 q 597 304 596 310 q 610 219 608 254 q 564 63 615 136 q 332 -53 481 -53 q 78 135 99 -56 q 91 170 76 149 q 124 206 106 192 q 154 225 142 219 q 183 215 182 235 q 407 53 200 50 q 492 67 461 53 q 493 213 513 115 l 154 368 q 149 374 150 369 q 156 508 121 429 q 228 615 179 560 m 496 356 q 492 481 532 404 l 279 590 q 246 540 258 567 q 250 469 233 513 l 496 356 z "},"¨":{"ha":554,"x_min":157,"x_max":507,"o":"m 158 903 q 176 954 157 933 q 222 975 196 975 q 268 954 249 975 q 288 903 288 933 q 268 851 288 872 q 222 831 249 831 q 176 851 196 831 q 158 903 157 872 m 378 897 q 396 949 376 928 q 442 969 415 969 q 488 949 468 969 q 507 897 507 928 q 488 846 507 867 q 442 825 468 825 q 396 846 415 825 q 378 897 376 867 z "},"©":{"ha":1096,"x_min":61,"x_max":1132,"o":"m 864 578 q 856 576 864 578 q 825 588 847 575 q 787 624 803 601 q 771 665 771 647 q 764 715 771 692 q 749 732 757 725 q 700 750 726 743 q 624 747 661 753 q 478 649 539 713 q 404 494 431 575 q 390 381 392 438 q 414 294 397 336 q 458 256 433 274 q 558 235 506 238 q 682 271 624 243 q 764 364 733 311 q 792 372 771 376 q 833 349 813 367 q 865 308 854 331 q 868 272 875 285 q 775 169 833 213 q 772 167 774 168 q 629 125 706 133 q 624 125 626 125 q 476 158 547 129 q 460 165 468 161 q 333 283 385 214 q 322 301 326 292 q 282 440 290 369 q 281 446 281 443 q 296 574 282 511 q 297 576 297 575 q 375 742 325 664 q 378 744 376 743 q 540 854 444 817 q 544 856 542 854 q 643 860 593 864 q 650 858 647 858 q 754 818 704 846 q 769 807 761 813 q 854 711 821 765 q 863 696 860 703 q 881 599 881 647 q 864 578 881 581 m 749 889 q 219 578 376 1007 q 178 385 182 471 q 195 253 175 300 q 250 179 215 207 q 440 101 314 128 q 958 390 796 22 q 1010 579 1004 494 q 995 715 1017 664 q 932 800 974 765 q 749 889 867 851 m 713 994 q 961 867 863 946 q 1094 694 1056 789 q 1122 506 1132 600 q 1064 304 1111 413 q 488 -7 888 -96 q 225 108 326 28 q 117 227 156 163 q 70 363 79 292 q 72 507 61 435 q 114 661 83 579 q 713 994 283 1129 z "},"ª":{"ha":610,"x_min":50,"x_max":588,"o":"m 181 401 q 170 392 181 401 q 142 381 160 383 q 122 391 125 378 q 133 426 119 404 q 261 548 186 510 q 414 590 336 586 q 563 333 588 601 l 535 36 q 517 -2 533 21 q 482 -37 500 -25 q 453 -51 464 -49 q 429 -36 428 -58 l 436 40 q 207 -53 311 -69 q 100 140 50 -28 q 150 231 114 186 q 232 304 186 276 q 460 342 317 356 q 342 485 453 492 q 217 440 242 479 q 181 401 203 419 m 444 126 l 454 226 q 210 214 271 251 q 203 196 206 207 q 290 53 165 72 q 373 65 339 46 q 444 126 407 83 z "},"«":{"ha":610,"x_min":29,"x_max":690,"o":"m 679 688 q 689 674 688 685 q 676 642 690 664 q 640 603 661 619 l 440 447 l 638 254 q 638 226 646 246 q 609 187 629 207 q 569 158 589 167 q 540 157 549 149 l 315 376 q 360 458 288 403 l 632 669 q 679 688 661 692 m 417 676 q 423 674 417 676 q 431 660 429 672 q 417 626 432 649 q 381 588 403 604 l 178 433 l 379 244 q 379 216 388 236 q 351 176 371 196 q 310 147 331 156 q 282 144 290 138 l 51 361 q 78 431 29 390 l 375 657 q 417 676 406 679 z "},"¬":{"ha":660,"x_min":51,"x_max":642,"o":"m 60 442 q 76 472 64 454 q 111 506 89 490 q 149 521 133 521 l 626 521 q 640 504 642 521 l 619 250 q 601 213 618 235 q 567 178 585 190 q 538 163 550 165 q 514 178 513 156 l 533 415 l 71 415 q 60 442 51 415 z "},"®":{"ha":1096,"x_min":61,"x_max":1132,"o":"m 600 578 q 605 584 600 578 q 631 583 610 589 q 672 556 651 576 q 701 515 693 536 l 806 231 q 804 198 814 208 q 774 194 794 188 q 732 220 753 200 q 703 261 711 240 l 599 546 q 600 578 590 568 m 493 464 l 469 217 q 451 199 468 200 q 411 212 433 197 q 374 249 389 226 q 361 289 358 272 l 411 828 q 431 846 413 846 q 617 847 532 858 q 764 792 703 836 q 842 699 824 750 q 850 603 860 647 q 601 467 824 476 q 493 464 524 464 m 503 576 q 532 578 517 576 q 742 681 721 585 q 743 717 746 701 q 658 736 718 729 q 518 738 599 743 l 503 576 m 749 889 q 219 578 376 1007 q 178 385 182 471 q 195 253 175 300 q 250 179 215 207 q 440 101 314 128 q 958 390 796 22 q 1010 579 1004 494 q 995 715 1017 664 q 932 800 974 765 q 749 889 867 851 m 713 994 q 961 867 863 946 q 1094 694 1056 789 q 1122 506 1132 600 q 1064 304 1111 413 q 488 -7 888 -96 q 225 108 326 28 q 117 227 156 163 q 70 363 79 292 q 72 507 61 435 q 114 661 83 579 q 713 994 283 1129 z "},"¯":{"ha":467,"x_min":106,"x_max":526,"o":"m 114 868 q 131 899 118 881 q 165 932 143 917 q 203 947 188 947 l 506 947 q 517 921 526 947 q 474 864 506 886 q 428 842 443 842 l 125 842 q 114 868 106 842 z "},"°":{"ha":311,"x_min":32,"x_max":403,"o":"m 264 997 q 399 846 403 1001 q 367 747 397 788 q 308 684 336 706 q 253 656 281 663 q 165 646 210 644 q 43 789 32 651 q 81 894 47 847 q 264 997 150 993 m 189 892 q 153 886 168 890 q 149 861 150 875 q 243 751 140 757 q 292 754 271 750 q 293 771 293 763 q 189 892 296 896 z "},"±":{"ha":554,"x_min":61,"x_max":544,"o":"m 331 676 q 341 683 331 676 q 356 688 351 690 q 361 679 361 685 l 346 490 l 526 490 q 525 464 544 490 q 488 438 506 438 q 342 438 414 438 l 329 293 q 301 256 328 274 q 281 249 286 246 q 276 257 276 251 l 292 438 q 106 438 199 438 q 107 464 88 438 q 144 490 126 490 l 296 490 l 308 643 q 331 676 310 663 m 79 154 q 81 181 61 154 q 118 207 100 207 l 506 210 q 504 183 524 210 q 467 157 485 157 l 79 154 z "},"²":{"ha":793,"x_min":276,"x_max":738,"o":"m 326 801 q 311 799 317 796 q 318 835 306 803 q 358 903 331 867 q 503 974 424 986 q 529 674 738 938 q 518 663 524 668 l 382 546 l 596 553 q 596 526 614 553 q 560 500 578 500 l 310 492 q 324 532 276 492 l 503 686 q 461 921 668 889 q 395 902 415 928 q 363 845 375 876 q 326 801 351 814 z "},"³":{"ha":497,"x_min":119,"x_max":488,"o":"m 124 574 q 139 604 119 589 q 176 618 172 632 q 307 515 201 518 q 372 527 347 514 q 409 584 396 540 q 383 658 422 628 q 249 694 344 688 q 258 708 247 694 q 278 735 268 721 l 288 747 q 374 761 343 743 q 397 808 390 771 q 311 917 419 904 q 239 901 260 922 q 224 874 233 896 q 189 843 214 853 q 176 844 179 839 q 183 871 172 849 q 222 921 194 893 q 353 969 278 976 q 450 840 476 956 q 383 732 436 774 q 460 610 488 700 q 358 482 432 521 q 268 463 318 461 q 124 574 150 465 z "},"´":{"ha":318,"x_min":146,"x_max":374,"o":"m 310 1031 q 321 1040 310 1031 q 349 1052 332 1049 q 370 1043 367 1056 q 360 1008 374 1031 q 217 831 294 901 q 176 805 196 811 q 151 809 157 799 q 157 841 146 819 q 200 892 168 863 q 276 992 232 921 q 310 1031 289 1013 z "},"µ":{"ha":721,"x_min":50,"x_max":690,"o":"m 614 35 q 596 -3 613 19 q 561 -37 579 -25 q 531 -51 543 -49 q 508 -35 506 -57 l 518 56 q 424 -21 479 11 q 297 -53 368 -53 q 176 -14 226 -54 l 156 -222 q 138 -261 154 -239 q 103 -295 121 -283 q 75 -310 86 -307 q 51 -294 50 -317 l 114 353 l 140 663 q 158 701 142 678 q 193 735 175 724 q 222 750 211 747 q 246 735 247 757 l 213 346 q 385 53 181 51 q 444 64 425 53 q 535 217 493 92 q 535 221 535 218 l 582 664 q 600 702 583 681 q 635 735 617 724 q 665 750 653 747 q 688 735 690 756 l 614 35 z "},"¶":{"ha":669,"x_min":93,"x_max":732,"o":"m 732 1000 l 710 872 l 608 872 l 529 0 l 440 0 l 488 536 l 407 536 l 351 0 l 243 0 l 299 525 l 93 701 q 483 1000 136 1017 l 732 1000 z "},"·":{"ha":240,"x_min":96,"x_max":218,"o":"m 111 456 q 129 494 113 472 q 164 528 146 517 q 193 543 182 540 q 217 528 218 550 l 203 386 q 185 347 201 369 q 150 313 168 325 q 121 299 132 301 q 97 314 96 292 l 111 456 z "},"¸":{"ha":264,"x_min":38,"x_max":253,"o":"m 115 -9 q 121 2 115 -9 q 149 31 128 13 q 188 52 171 49 q 210 43 206 56 q 114 -267 253 -129 q 73 -294 93 -286 q 45 -294 53 -303 q 47 -266 38 -286 q 72 -229 56 -246 q 99 -192 89 -212 q 104 -43 129 -125 q 115 -9 101 -31 z "},"¹":{"ha":353,"x_min":113,"x_max":340,"o":"m 124 813 q 118 816 124 813 q 118 836 113 818 q 142 876 124 854 q 182 908 161 897 l 299 972 q 329 979 318 982 q 339 964 340 976 l 297 536 q 279 497 296 519 q 244 463 263 475 q 215 449 226 451 q 192 464 190 442 l 231 860 l 157 819 q 124 813 136 808 z "},"º":{"ha":644,"x_min":32,"x_max":660,"o":"m 432 592 q 601 281 660 581 q 508 54 574 139 q 275 -53 406 -76 q 89 271 32 -10 q 167 456 110 379 q 432 592 271 599 m 354 486 q 238 453 265 490 q 194 335 210 415 q 358 53 144 90 q 436 58 418 44 q 469 117 451 72 q 497 215 486 161 q 354 486 549 478 z "},"»":{"ha":610,"x_min":-6,"x_max":672,"o":"m 40 601 q 44 612 40 601 q 68 642 49 622 q 108 672 88 663 q 138 674 129 681 l 382 457 q 390 449 386 454 q 384 422 394 444 q 336 372 374 400 l 58 161 q 7 147 21 132 q 13 187 -6 160 q 53 231 31 214 l 256 383 l 40 574 q 40 601 32 581 m 296 608 q 300 618 296 608 q 324 648 304 628 q 365 677 344 668 q 393 679 385 686 l 635 454 q 588 368 672 432 l 313 165 q 270 148 282 143 q 258 165 258 153 q 274 199 258 176 q 310 238 289 221 l 507 382 l 296 579 q 296 608 288 588 z "},"¼":{"ha":904,"x_min":11,"x_max":1006,"o":"m 153 813 q 147 816 153 813 q 147 836 142 818 q 172 876 153 854 q 213 908 192 897 l 310 961 q 339 969 328 971 q 349 953 350 967 l 324 539 q 306 501 322 524 q 272 467 290 479 q 243 451 254 454 q 218 467 217 444 l 242 849 l 185 819 q 153 813 164 808 m 965 985 q 976 991 965 985 q 996 990 986 996 q 999 964 1006 983 q 972 924 992 944 l 92 -15 q 51 -47 72 -36 q 21 -51 31 -57 q 18 -25 11 -44 q 44 15 25 -6 l 925 954 q 965 985 944 975 m 674 174 l 686 311 l 568 175 l 674 174 m 879 146 q 863 115 875 133 q 828 82 850 97 q 790 67 806 67 l 763 67 l 760 36 q 742 -2 758 21 q 707 -37 725 -25 q 678 -51 689 -49 q 654 -36 653 -58 l 664 68 l 446 69 q 432 72 438 69 q 430 91 426 75 q 457 133 433 107 l 718 433 l 754 469 q 799 458 803 510 l 772 174 l 868 172 q 879 146 888 172 z "},"½":{"ha":878,"x_min":-24,"x_max":963,"o":"m 149 816 q 143 818 149 816 q 143 839 138 821 q 167 878 149 857 q 207 911 186 900 l 324 975 q 354 982 343 985 q 364 967 365 979 l 319 528 q 301 489 318 511 q 267 455 285 467 q 238 440 249 443 q 214 456 213 435 l 256 863 l 182 822 q 149 816 161 811 m 552 285 q 543 274 552 285 q 513 251 533 263 q 480 243 492 239 q 472 264 468 247 q 540 404 493 346 q 765 489 638 522 q 828 458 806 478 q 842 338 874 419 q 704 149 807 250 l 622 68 l 829 71 q 843 44 850 71 q 801 -12 832 10 q 754 -35 769 -35 l 490 -39 q 499 25 436 -40 l 667 189 q 747 293 732 256 q 729 360 761 331 q 670 386 711 375 q 599 385 629 397 q 578 335 586 364 q 552 285 571 307 m 924 981 q 934 985 924 981 q 953 983 944 990 q 955 957 963 976 q 928 917 947 938 l 56 -3 q 15 -33 36 -24 q -15 -36 -6 -43 q -16 -10 -24 -29 q 11 31 -8 10 l 883 950 q 924 981 903 971 z "},"¾":{"ha":929,"x_min":-24,"x_max":963,"o":"m 924 981 q 934 985 924 981 q 953 983 944 990 q 955 957 963 976 q 928 917 947 938 l 56 -3 q 15 -33 36 -24 q -15 -36 -6 -43 q -16 -10 -24 -29 q 11 31 -8 10 l 883 950 q 924 981 903 971 m 674 174 l 686 311 l 568 175 l 674 174 m 879 146 q 863 115 875 133 q 828 82 850 97 q 790 67 806 67 l 763 67 l 760 36 q 742 -2 758 21 q 707 -37 725 -25 q 678 -51 689 -49 q 654 -36 653 -58 l 664 68 l 446 69 q 432 72 438 69 q 430 91 426 75 q 457 133 433 107 l 718 433 l 754 469 q 799 458 803 510 l 772 174 l 868 172 q 879 146 888 172 m 219 850 q 209 840 219 850 q 179 819 200 829 q 149 817 158 810 q 149 849 139 824 q 179 904 158 875 q 356 997 253 1003 q 472 864 493 988 q 431 781 465 822 q 478 632 500 749 q 433 535 468 578 q 232 442 354 431 q 108 542 132 451 q 119 576 106 554 q 153 615 132 597 q 192 637 175 633 q 214 628 210 640 q 313 547 232 554 q 368 550 346 544 q 372 568 371 558 q 300 686 393 681 q 246 682 276 688 q 279 735 247 682 q 313 788 311 788 q 368 801 344 793 q 275 892 379 885 q 246 890 260 893 q 219 850 238 871 z "},"¿":{"ha":750,"x_min":1,"x_max":710,"o":"m 804 131 q 816 171 804 146 q 845 210 829 195 q 873 229 861 225 q 899 217 898 240 q 855 2 907 95 q 687 -153 789 -112 q 481 -192 586 -194 q 268 76 288 -198 q 301 285 260 191 q 416 440 342 379 q 579 532 490 501 l 571 594 q 582 633 569 609 q 611 672 595 657 q 637 693 627 687 q 666 682 662 705 l 682 542 q 667 484 687 510 q 628 450 648 458 l 607 440 q 453 385 506 419 q 385 321 401 351 q 362 163 355 262 q 546 -76 380 -81 q 682 -57 627 -76 q 786 0 772 -26 q 802 50 795 15 q 804 131 808 85 m 647 815 q 636 775 649 799 q 607 736 622 751 q 580 715 591 721 q 553 726 554 705 l 542 842 q 554 882 542 857 q 582 921 567 906 q 610 941 598 935 q 636 931 635 952 l 647 815 z "},"À":{"ha":903,"x_min":58,"x_max":844,"o":"m 301 1304 q 306 1315 301 1304 q 332 1347 311 1325 q 372 1377 353 1368 q 399 1377 392 1387 l 550 1182 q 547 1152 557 1173 q 517 1110 538 1131 q 476 1079 496 1089 q 450 1079 457 1070 l 299 1274 q 301 1304 292 1283 m 137 -10 q 127 -21 137 -10 q 97 -41 117 -31 q 70 -42 78 -50 q 72 -13 63 -33 l 531 1027 l 572 1079 q 631 1098 624 1132 l 839 116 q 828 81 842 104 q 792 38 814 57 q 753 14 771 19 q 733 21 736 9 l 668 333 q 664 333 667 333 l 285 300 l 167 34 q 137 -10 157 12 m 646 437 l 547 898 l 333 410 l 646 437 z "},"Á":{"ha":903,"x_min":58,"x_max":844,"o":"m 685 1348 q 696 1358 685 1348 q 724 1373 707 1368 q 745 1366 742 1378 q 735 1330 749 1354 q 592 1140 669 1217 q 551 1111 571 1119 q 526 1113 532 1103 q 532 1145 521 1122 q 575 1199 543 1167 q 651 1306 607 1231 q 685 1348 664 1328 m 137 -10 q 127 -21 137 -10 q 97 -41 117 -31 q 70 -42 78 -50 q 72 -13 63 -33 l 531 1027 l 572 1079 q 631 1098 624 1132 l 839 116 q 828 81 842 104 q 792 38 814 57 q 753 14 771 19 q 733 21 736 9 l 668 333 q 664 333 667 333 l 285 300 l 167 34 q 137 -10 157 12 m 646 437 l 547 898 l 333 410 l 646 437 z "},"Â":{"ha":903,"x_min":58,"x_max":844,"o":"m 456 1202 q 418 1160 440 1178 q 383 1141 396 1143 q 367 1147 371 1140 q 381 1193 360 1162 l 503 1375 l 533 1414 q 592 1430 574 1458 l 692 1263 q 686 1231 697 1254 q 654 1187 675 1209 q 614 1158 633 1166 q 589 1159 594 1150 l 514 1288 l 456 1202 m 137 -10 q 127 -21 137 -10 q 97 -41 117 -31 q 70 -42 78 -50 q 72 -13 63 -33 l 531 1027 l 572 1079 q 631 1098 624 1132 l 839 116 q 828 81 842 104 q 792 38 814 57 q 753 14 771 19 q 733 21 736 9 l 668 333 q 664 333 667 333 l 285 300 l 167 34 q 137 -10 157 12 m 646 437 l 547 898 l 333 410 l 646 437 z "},"Ã":{"ha":903,"x_min":58,"x_max":844,"o":"m 549 1278 q 617 1338 579 1325 q 640 1325 642 1348 q 640 1317 640 1324 q 639 1309 639 1311 q 638 1301 639 1307 q 635 1291 636 1294 q 633 1281 635 1287 q 628 1269 631 1274 q 622 1257 625 1263 q 573 1193 601 1216 q 533 1164 544 1170 q 504 1156 521 1158 q 471 1160 481 1156 l 415 1186 l 358 1209 q 293 1146 329 1162 q 264 1153 265 1134 q 264 1162 264 1153 q 262 1174 263 1170 q 262 1189 261 1178 q 265 1207 263 1199 q 273 1227 268 1215 q 285 1250 278 1239 q 363 1322 317 1294 q 401 1333 385 1335 q 419 1332 417 1332 q 422 1331 421 1332 l 507 1297 l 549 1278 m 137 -10 q 127 -21 137 -10 q 97 -41 117 -31 q 70 -42 78 -50 q 72 -13 63 -33 l 531 1027 l 572 1079 q 631 1098 624 1132 l 839 116 q 828 81 842 104 q 792 38 814 57 q 753 14 771 19 q 733 21 736 9 l 668 333 q 664 333 667 333 l 285 300 l 167 34 q 137 -10 157 12 m 646 437 l 547 898 l 333 410 l 646 437 z "},"Ä":{"ha":903,"x_min":58,"x_max":844,"o":"m 332 1193 q 350 1246 331 1223 q 396 1271 369 1269 q 442 1254 422 1273 q 461 1204 461 1235 q 442 1151 461 1174 q 396 1126 422 1129 q 350 1143 369 1124 q 332 1193 331 1162 m 551 1207 q 569 1260 550 1237 q 615 1284 589 1282 q 661 1268 642 1287 q 681 1218 681 1249 q 661 1165 681 1187 q 615 1140 642 1142 q 569 1157 589 1138 q 551 1207 550 1176 m 137 -10 q 127 -21 137 -10 q 97 -41 117 -31 q 70 -42 78 -50 q 72 -13 63 -33 l 531 1027 l 572 1079 q 631 1098 624 1132 l 839 116 q 828 81 842 104 q 792 38 814 57 q 753 14 771 19 q 733 21 736 9 l 668 333 q 664 333 667 333 l 285 300 l 167 34 q 137 -10 157 12 m 646 437 l 547 898 l 333 410 l 646 437 z "},"Å":{"ha":903,"x_min":58,"x_max":844,"o":"m 542 1411 q 665 1300 663 1416 q 654 1213 665 1245 q 624 1153 643 1181 q 465 1054 557 1057 q 343 1194 344 1052 q 379 1314 342 1259 q 542 1411 444 1408 m 557 1168 q 449 1297 582 1313 q 449 1281 449 1289 q 546 1167 450 1166 q 557 1168 551 1167 m 137 -10 q 127 -21 137 -10 q 97 -41 117 -31 q 70 -42 78 -50 q 72 -13 63 -33 l 531 1027 l 572 1079 q 631 1098 624 1132 l 839 116 q 828 81 842 104 q 792 38 814 57 q 753 14 771 19 q 733 21 736 9 l 668 333 q 664 333 667 333 l 285 300 l 167 34 q 137 -10 157 12 m 646 437 l 547 898 l 333 410 l 646 437 z "},"Æ":{"ha":1307,"x_min":-17,"x_max":1376,"o":"m 78 0 q 40 -37 63 -22 q 6 -53 18 -53 q -10 -46 -7 -53 q 6 0 -17 -31 l 725 1000 q 763 1038 740 1022 q 797 1053 785 1053 q 813 1046 810 1053 q 797 1000 819 1031 l 332 353 l 744 347 q 756 321 765 347 q 713 264 744 286 q 667 242 681 242 l 256 247 l 78 0 m 1363 1053 q 1376 1039 1376 1053 q 1360 1001 1376 1024 q 1322 963 1344 979 q 1285 947 1300 947 l 817 947 l 783 558 q 1257 558 1019 558 q 1268 532 1278 558 q 1226 475 1257 497 q 1179 453 1194 453 q 774 453 976 453 l 740 53 q 1275 53 1007 53 q 1286 26 1296 53 q 1244 -31 1275 -8 q 1197 -53 1213 -53 l 651 -53 q 637 -49 642 -54 q 633 -33 632 -44 l 718 964 q 736 1003 719 979 q 800 1051 767 1043 q 810 1053 807 1053 q 815 1053 813 1053 l 1363 1053 z "},"Ç":{"ha":936,"x_min":97,"x_max":972,"o":"m 412 1 q 418 12 412 1 q 447 44 425 24 q 485 69 468 64 q 507 61 503 74 q 411 -257 550 -107 q 370 -288 390 -278 q 342 -290 350 -298 q 344 -262 335 -283 q 369 -223 353 -241 q 396 -183 386 -205 q 401 -34 426 -114 q 412 1 399 -22 m 893 832 q 875 792 892 815 q 840 755 858 768 q 811 738 822 741 q 788 751 786 728 q 769 864 793 810 q 696 951 744 918 q 588 990 647 984 q 474 976 529 996 q 232 615 300 914 q 260 249 181 389 q 383 130 304 170 q 552 101 463 90 q 697 155 642 112 q 776 265 753 199 q 805 308 785 285 q 845 341 825 330 q 874 345 865 352 q 876 318 883 338 q 808 196 853 258 q 703 88 763 135 q 487 -10 597 4 q 291 20 376 -23 q 158 146 206 62 q 129 545 72 299 q 376 988 193 827 q 671 1103 522 1117 q 792 1060 739 1097 q 872 962 844 1022 q 893 832 900 902 z "},"È":{"ha":800,"x_min":72,"x_max":914,"o":"m 371 1363 q 376 1373 371 1363 q 401 1405 381 1384 q 442 1436 422 1426 q 468 1436 461 1445 l 619 1241 q 617 1211 626 1232 q 586 1168 607 1190 q 546 1138 565 1147 q 519 1137 526 1128 l 368 1333 q 371 1363 361 1342 m 807 1123 q 821 1111 821 1125 q 805 1072 821 1095 q 767 1030 789 1048 q 729 1011 744 1012 l 261 970 l 228 578 q 701 620 464 599 q 713 594 722 622 q 670 534 701 559 q 624 507 639 509 q 218 472 421 490 l 185 69 q 719 116 451 92 q 731 90 740 118 q 688 30 719 55 q 642 3 657 5 l 96 -44 q 81 -42 86 -47 q 78 -27 76 -38 l 163 978 q 181 1019 164 994 q 244 1073 211 1062 q 254 1075 251 1075 q 260 1075 257 1075 l 807 1123 z "},"É":{"ha":800,"x_min":72,"x_max":914,"o":"m 680 1348 q 691 1358 680 1348 q 719 1373 701 1368 q 740 1366 736 1378 q 729 1330 743 1354 q 586 1140 664 1217 q 546 1111 565 1119 q 521 1113 526 1103 q 526 1145 515 1122 q 569 1199 538 1167 q 646 1306 601 1231 q 680 1348 658 1328 m 807 1123 q 821 1111 821 1125 q 805 1072 821 1095 q 767 1030 789 1048 q 729 1011 744 1012 l 261 970 l 228 578 q 701 620 464 599 q 713 594 722 622 q 670 534 701 559 q 624 507 639 509 q 218 472 421 490 l 185 69 q 719 116 451 92 q 731 90 740 118 q 688 30 719 55 q 642 3 657 5 l 96 -44 q 81 -42 86 -47 q 78 -27 76 -38 l 163 978 q 181 1019 164 994 q 244 1073 211 1062 q 254 1075 251 1075 q 260 1075 257 1075 l 807 1123 z "},"Ê":{"ha":800,"x_min":72,"x_max":914,"o":"m 450 1202 q 413 1160 435 1178 q 378 1141 390 1143 q 361 1147 365 1140 q 375 1193 354 1162 l 497 1375 l 528 1414 q 586 1430 568 1458 l 686 1263 q 681 1231 692 1254 q 649 1187 669 1209 q 608 1158 628 1166 q 583 1159 589 1150 l 508 1288 l 450 1202 m 807 1123 q 821 1111 821 1125 q 805 1072 821 1095 q 767 1030 789 1048 q 729 1011 744 1012 l 261 970 l 228 578 q 701 620 464 599 q 713 594 722 622 q 670 534 701 559 q 624 507 639 509 q 218 472 421 490 l 185 69 q 719 116 451 92 q 731 90 740 118 q 688 30 719 55 q 642 3 657 5 l 96 -44 q 81 -42 86 -47 q 78 -27 76 -38 l 163 978 q 181 1019 164 994 q 244 1073 211 1062 q 254 1075 251 1075 q 260 1075 257 1075 l 807 1123 z "},"Ë":{"ha":800,"x_min":72,"x_max":914,"o":"m 326 1193 q 344 1246 325 1223 q 390 1271 364 1269 q 436 1254 417 1273 q 456 1204 456 1235 q 436 1151 456 1174 q 390 1126 417 1129 q 344 1143 364 1124 q 326 1193 325 1162 m 546 1207 q 564 1260 544 1237 q 610 1284 583 1282 q 656 1268 636 1287 q 675 1218 675 1249 q 656 1165 675 1187 q 610 1140 636 1142 q 564 1157 583 1138 q 546 1207 544 1176 m 807 1123 q 821 1111 821 1125 q 805 1072 821 1095 q 767 1030 789 1048 q 729 1011 744 1012 l 261 970 l 228 578 q 701 620 464 599 q 713 594 722 622 q 670 534 701 559 q 624 507 639 509 q 218 472 421 490 l 185 69 q 719 116 451 92 q 731 90 740 118 q 688 30 719 55 q 642 3 657 5 l 96 -44 q 81 -42 86 -47 q 78 -27 76 -38 l 163 978 q 181 1019 164 994 q 244 1073 211 1062 q 254 1075 251 1075 q 260 1075 257 1075 l 807 1123 z "},"Ì":{"ha":343,"x_min":93,"x_max":385,"o":"m 40 1304 q 45 1315 40 1304 q 71 1347 50 1325 q 111 1377 92 1368 q 138 1377 131 1387 l 289 1182 q 286 1152 296 1173 q 256 1110 276 1131 q 215 1079 235 1089 q 189 1079 196 1070 l 38 1274 q 40 1304 31 1283 m 185 980 q 203 1020 186 997 q 238 1057 219 1043 q 267 1075 256 1071 q 290 1061 292 1084 l 206 54 q 188 15 204 39 q 153 -23 171 -9 q 124 -41 135 -37 q 100 -27 99 -50 l 185 980 z "},"Í":{"ha":343,"x_min":93,"x_max":579,"o":"m 426 1348 q 436 1358 426 1348 q 465 1373 447 1368 q 485 1366 482 1378 q 475 1330 489 1354 q 332 1140 410 1217 q 292 1111 311 1119 q 267 1113 272 1103 q 272 1145 261 1122 q 315 1199 283 1167 q 392 1306 347 1231 q 426 1348 404 1328 m 185 980 q 203 1020 186 997 q 238 1057 219 1043 q 267 1075 256 1071 q 290 1061 292 1084 l 206 54 q 188 15 204 39 q 153 -23 171 -9 q 124 -41 135 -37 q 100 -27 99 -50 l 185 980 z "},"Î":{"ha":343,"x_min":93,"x_max":518,"o":"m 196 1202 q 158 1160 181 1178 q 124 1141 136 1143 q 107 1147 111 1140 q 121 1193 100 1162 l 243 1375 l 274 1414 q 332 1430 314 1458 l 432 1263 q 426 1231 438 1254 q 394 1187 415 1209 q 354 1158 374 1166 q 329 1159 335 1150 l 254 1288 l 196 1202 m 185 980 q 203 1020 186 997 q 238 1057 219 1043 q 267 1075 256 1071 q 290 1061 292 1084 l 206 54 q 188 15 204 39 q 153 -23 171 -9 q 124 -41 135 -37 q 100 -27 99 -50 l 185 980 z "},"Ï":{"ha":343,"x_min":93,"x_max":501,"o":"m 71 1193 q 89 1246 69 1223 q 135 1271 108 1269 q 181 1254 161 1273 q 200 1204 200 1235 q 181 1151 200 1174 q 135 1126 161 1129 q 89 1143 108 1124 q 71 1193 69 1162 m 290 1207 q 308 1260 289 1237 q 354 1284 328 1282 q 400 1268 381 1287 q 419 1218 419 1249 q 400 1165 419 1187 q 354 1140 381 1142 q 308 1157 328 1138 q 290 1207 289 1176 m 185 980 q 203 1020 186 997 q 238 1057 219 1043 q 267 1075 256 1071 q 290 1061 292 1084 l 206 54 q 188 15 204 39 q 153 -23 171 -9 q 124 -41 135 -37 q 100 -27 99 -50 l 185 980 z "},"Ð":{"ha":949,"x_min":35,"x_max":940,"o":"m 43 456 q 60 486 47 468 q 94 519 72 504 q 132 535 117 535 l 485 535 q 496 508 506 535 q 454 451 485 474 q 407 429 422 429 l 54 429 q 43 456 35 429 m 124 -36 l 221 964 q 272 1042 229 1017 q 310 1053 289 1051 q 924 538 940 1090 q 808 184 917 329 q 532 -14 699 39 q 136 -53 365 -67 q 124 -36 122 -53 m 231 51 q 563 83 433 40 q 740 192 692 125 q 818 463 811 288 q 701 826 825 704 q 318 950 578 947 l 231 51 z "},"Ñ":{"ha":843,"x_min":68,"x_max":953,"o":"m 613 1278 q 681 1338 643 1325 q 704 1325 706 1348 q 703 1317 704 1324 q 703 1309 703 1311 q 701 1301 703 1307 q 699 1291 700 1294 q 697 1281 699 1287 q 692 1269 694 1274 q 686 1257 689 1263 q 637 1193 665 1216 q 597 1164 608 1170 q 568 1156 585 1158 q 535 1160 544 1156 l 479 1186 l 422 1209 q 357 1146 393 1162 q 328 1153 329 1134 q 328 1162 328 1153 q 326 1174 326 1170 q 326 1189 325 1178 q 329 1207 326 1199 q 337 1227 332 1215 q 349 1250 342 1239 q 426 1322 381 1294 q 465 1333 449 1335 q 483 1332 481 1332 q 486 1331 485 1332 l 571 1297 l 613 1278 m 181 52 q 163 11 179 35 q 128 -26 146 -12 q 99 -43 110 -39 q 75 -30 74 -52 l 172 979 q 248 1064 225 1049 q 276 1070 271 1079 l 688 273 l 753 1030 q 771 1070 754 1045 q 806 1107 788 1094 q 835 1124 824 1121 q 858 1111 860 1134 l 771 104 q 743 64 769 87 q 692 27 717 40 l 667 12 l 254 814 l 181 52 z "},"Ò":{"ha":935,"x_min":53,"x_max":1056,"o":"m 354 1304 q 359 1315 354 1304 q 385 1347 364 1325 q 425 1377 406 1368 q 451 1377 444 1387 l 603 1182 q 600 1152 610 1173 q 569 1110 590 1131 q 529 1079 549 1089 q 503 1079 510 1070 l 351 1274 q 354 1304 344 1283 m 600 1105 q 911 584 964 1126 q 788 199 888 346 q 422 -16 647 -3 q 106 463 57 -37 q 149 701 118 598 q 242 889 181 803 q 600 1105 382 1093 m 522 993 q 313 894 375 984 q 251 754 279 845 q 211 545 222 662 q 500 97 165 78 q 715 195 653 104 q 771 320 746 239 q 806 502 796 400 q 522 993 856 1011 z "},"Ó":{"ha":935,"x_min":53,"x_max":1056,"o":"m 738 1348 q 749 1358 738 1348 q 777 1373 760 1368 q 798 1366 794 1378 q 788 1330 801 1354 q 644 1140 722 1217 q 604 1111 624 1119 q 579 1113 585 1103 q 585 1145 574 1122 q 628 1199 596 1167 q 704 1306 660 1231 q 738 1348 717 1328 m 600 1105 q 911 584 964 1126 q 788 199 888 346 q 422 -16 647 -3 q 106 463 57 -37 q 149 701 118 598 q 242 889 181 803 q 600 1105 382 1093 m 522 993 q 313 894 375 984 q 251 754 279 845 q 211 545 222 662 q 500 97 165 78 q 715 195 653 104 q 771 320 746 239 q 806 502 796 400 q 522 993 856 1011 z "},"Ô":{"ha":935,"x_min":53,"x_max":1056,"o":"m 508 1202 q 471 1160 493 1178 q 436 1141 449 1143 q 419 1147 424 1140 q 433 1193 413 1162 l 556 1375 l 586 1414 q 644 1430 626 1458 l 744 1263 q 739 1231 750 1254 q 707 1187 728 1209 q 667 1158 686 1166 q 642 1159 647 1150 l 567 1288 l 508 1202 m 600 1105 q 911 584 964 1126 q 788 199 888 346 q 422 -16 647 -3 q 106 463 57 -37 q 149 701 118 598 q 242 889 181 803 q 600 1105 382 1093 m 522 993 q 313 894 375 984 q 251 754 279 845 q 211 545 222 662 q 500 97 165 78 q 715 195 653 104 q 771 320 746 239 q 806 502 796 400 q 522 993 856 1011 z "},"Õ":{"ha":935,"x_min":53,"x_max":1056,"o":"m 603 1278 q 671 1338 633 1325 q 694 1325 696 1348 q 694 1317 694 1324 q 693 1309 693 1311 q 692 1301 693 1307 q 690 1291 690 1294 q 687 1281 689 1287 q 682 1269 685 1274 q 676 1257 679 1263 q 627 1193 656 1216 q 587 1164 599 1170 q 558 1156 575 1158 q 525 1160 535 1156 l 469 1186 l 413 1209 q 347 1146 383 1162 q 318 1153 319 1134 q 318 1162 318 1153 q 316 1174 317 1170 q 316 1189 315 1178 q 319 1207 317 1199 q 327 1227 322 1215 q 339 1250 332 1239 q 417 1322 371 1294 q 455 1333 439 1335 q 473 1332 471 1332 q 476 1331 475 1332 l 561 1297 l 603 1278 m 600 1105 q 911 584 964 1126 q 788 199 888 346 q 422 -16 647 -3 q 106 463 57 -37 q 149 701 118 598 q 242 889 181 803 q 600 1105 382 1093 m 522 993 q 313 894 375 984 q 251 754 279 845 q 211 545 222 662 q 500 97 165 78 q 715 195 653 104 q 771 320 746 239 q 806 502 796 400 q 522 993 856 1011 z "},"Ö":{"ha":935,"x_min":53,"x_max":1056,"o":"m 385 1193 q 403 1246 383 1223 q 449 1271 422 1269 q 494 1254 475 1273 q 514 1204 514 1235 q 494 1151 514 1174 q 449 1126 475 1129 q 403 1143 422 1124 q 385 1193 383 1162 m 604 1207 q 622 1260 603 1237 q 668 1284 642 1282 q 714 1268 694 1287 q 733 1218 733 1249 q 714 1165 733 1187 q 668 1140 694 1142 q 622 1157 642 1138 q 604 1207 603 1176 m 600 1105 q 911 584 964 1126 q 788 199 888 346 q 422 -16 647 -3 q 106 463 57 -37 q 149 701 118 598 q 242 889 181 803 q 600 1105 382 1093 m 522 993 q 313 894 375 984 q 251 754 279 845 q 211 545 222 662 q 500 97 165 78 q 715 195 653 104 q 771 320 746 239 q 806 502 796 400 q 522 993 856 1011 z "},"×":{"ha":472,"x_min":61,"x_max":465,"o":"m 432 480 q 442 484 432 480 q 458 478 451 488 q 456 449 465 469 q 425 408 446 428 l 329 315 l 433 200 q 431 171 440 192 q 402 131 422 150 q 362 103 382 111 q 333 103 342 94 l 229 219 l 135 129 q 94 102 114 110 q 68 103 75 94 q 71 133 61 113 q 101 174 81 154 l 192 261 l 88 375 q 90 404 81 383 q 119 444 99 425 q 159 472 139 464 q 188 472 179 481 l 292 357 l 392 453 q 432 480 413 472 z "},"Ø":{"ha":942,"x_min":57,"x_max":964,"o":"m 840 1086 q 881 1108 863 1104 q 901 1101 899 1113 q 893 1068 906 1089 l 210 -107 q 176 -147 197 -128 q 136 -169 154 -165 q 115 -162 118 -174 q 124 -129 111 -150 l 807 1046 q 840 1086 819 1067 m 600 1053 q 911 504 964 1042 q 788 131 888 268 q 422 -53 647 -60 q 106 454 57 -42 q 149 688 118 588 q 242 868 181 788 q 600 1053 382 1060 m 522 947 q 313 867 375 951 q 251 732 279 821 q 211 526 222 643 q 500 53 165 64 q 715 132 653 47 q 771 252 746 174 q 806 432 796 331 q 522 947 856 936 z "},"Ù":{"ha":861,"x_min":65,"x_max":972,"o":"m 322 1304 q 327 1315 322 1304 q 353 1347 332 1325 q 393 1377 374 1368 q 419 1377 413 1387 l 571 1182 q 568 1152 578 1173 q 538 1110 558 1131 q 497 1079 517 1089 q 471 1079 478 1070 l 319 1274 q 322 1304 313 1283 m 772 1031 q 790 1072 774 1048 q 825 1109 807 1096 q 854 1126 843 1122 q 878 1113 879 1135 l 807 321 q 806 312 807 316 q 740 177 783 239 q 569 27 665 71 q 354 -22 472 -17 q 106 252 69 -30 l 164 978 q 182 1017 165 994 q 216 1055 199 1041 q 246 1073 233 1069 q 269 1060 271 1082 l 211 331 q 435 91 179 82 q 593 121 535 94 q 670 174 651 147 q 701 243 689 201 l 772 1031 z "},"Ú":{"ha":861,"x_min":65,"x_max":972,"o":"m 708 1348 q 718 1358 708 1348 q 747 1373 729 1368 q 767 1366 764 1378 q 757 1330 771 1354 q 614 1140 692 1217 q 574 1111 593 1119 q 549 1113 554 1103 q 554 1145 543 1122 q 597 1199 565 1167 q 674 1306 629 1231 q 708 1348 686 1328 m 772 1031 q 790 1072 774 1048 q 825 1109 807 1096 q 854 1126 843 1122 q 878 1113 879 1135 l 807 321 q 806 312 807 316 q 740 177 783 239 q 569 27 665 71 q 354 -22 472 -17 q 106 252 69 -30 l 164 978 q 182 1017 165 994 q 216 1055 199 1041 q 246 1073 233 1069 q 269 1060 271 1082 l 211 331 q 435 91 179 82 q 593 121 535 94 q 670 174 651 147 q 701 243 689 201 l 772 1031 z "},"Û":{"ha":861,"x_min":65,"x_max":972,"o":"m 478 1202 q 440 1160 463 1178 q 406 1141 418 1143 q 389 1147 393 1140 q 403 1193 382 1162 l 525 1375 l 556 1414 q 614 1430 596 1458 l 714 1263 q 708 1231 719 1254 q 676 1187 697 1209 q 636 1158 656 1166 q 611 1159 617 1150 l 536 1288 l 478 1202 m 772 1031 q 790 1072 774 1048 q 825 1109 807 1096 q 854 1126 843 1122 q 878 1113 879 1135 l 807 321 q 806 312 807 316 q 740 177 783 239 q 569 27 665 71 q 354 -22 472 -17 q 106 252 69 -30 l 164 978 q 182 1017 165 994 q 216 1055 199 1041 q 246 1073 233 1069 q 269 1060 271 1082 l 211 331 q 435 91 179 82 q 593 121 535 94 q 670 174 651 147 q 701 243 689 201 l 772 1031 z "},"Ü":{"ha":861,"x_min":65,"x_max":972,"o":"m 353 1193 q 371 1246 351 1223 q 417 1271 390 1269 q 463 1254 443 1273 q 482 1204 482 1235 q 463 1151 482 1174 q 417 1126 443 1129 q 371 1143 390 1124 q 353 1193 351 1162 m 572 1207 q 590 1260 571 1237 q 636 1284 610 1282 q 682 1268 663 1287 q 701 1218 701 1249 q 682 1165 701 1187 q 636 1140 663 1142 q 590 1157 610 1138 q 572 1207 571 1176 m 772 1031 q 790 1072 774 1048 q 825 1109 807 1096 q 854 1126 843 1122 q 878 1113 879 1135 l 807 321 q 806 312 807 316 q 740 177 783 239 q 569 27 665 71 q 354 -22 472 -17 q 106 252 69 -30 l 164 978 q 182 1017 165 994 q 216 1055 199 1041 q 246 1073 233 1069 q 269 1060 271 1082 l 211 331 q 435 91 179 82 q 593 121 535 94 q 670 174 651 147 q 701 243 689 201 l 772 1031 z "},"Ý":{"ha":749,"x_min":133,"x_max":944,"o":"m 648 1348 q 659 1358 648 1348 q 687 1373 669 1368 q 708 1366 704 1378 q 697 1330 711 1354 q 554 1140 632 1217 q 514 1111 533 1119 q 489 1113 494 1103 q 494 1145 483 1122 q 538 1199 506 1167 q 614 1306 569 1231 q 648 1348 626 1328 m 62 992 q 68 1003 62 992 q 94 1035 74 1015 q 134 1063 115 1056 q 158 1060 153 1070 l 428 500 l 757 1058 q 792 1100 771 1080 q 831 1125 814 1120 q 851 1117 849 1130 q 840 1082 854 1104 l 453 424 l 422 73 q 404 34 421 58 q 369 -4 388 10 q 340 -22 351 -18 q 317 -8 315 -31 l 349 350 l 56 959 q 62 992 50 970 z "},"Þ":{"ha":831,"x_min":82,"x_max":833,"o":"m 178 964 q 196 1003 179 981 q 231 1037 213 1025 q 260 1051 249 1049 q 283 1036 285 1058 l 260 793 q 691 758 549 819 q 819 542 833 697 q 753 362 811 436 q 628 249 694 288 q 204 193 485 164 l 189 36 q 171 -2 188 21 q 136 -37 154 -25 q 107 -51 118 -49 q 83 -36 82 -58 l 178 964 m 251 692 l 215 308 q 458 296 357 286 q 679 363 642 314 q 714 469 707 399 q 593 656 725 600 q 251 692 479 706 z "},"ß":{"ha":772,"x_min":67,"x_max":779,"o":"m 174 36 q 156 -1 172 21 q 122 -36 139 -24 q 92 -51 104 -49 q 68 -36 67 -58 q 124 613 101 400 q 204 842 138 751 q 504 986 317 994 q 682 806 715 976 q 612 665 668 736 q 472 538 556 593 l 747 308 q 751 300 750 306 q 708 106 779 201 q 507 -28 631 -1 q 247 -44 386 -54 q 236 -17 226 -43 q 280 40 249 18 q 325 61 311 63 q 529 73 443 56 q 638 108 615 90 q 649 152 646 121 q 647 211 653 183 l 331 475 q 363 549 303 501 q 399 572 376 560 q 517 642 481 610 q 564 700 553 674 q 426 881 632 871 q 342 874 379 882 q 276 839 292 861 q 229 682 240 789 q 174 36 207 471 z "},"à":{"ha":717,"x_min":-11,"x_max":717,"o":"m 175 1017 q 180 1027 175 1017 q 206 1059 185 1038 q 246 1090 226 1080 q 272 1090 265 1099 l 424 895 q 421 865 431 886 q 390 822 411 844 q 350 792 369 801 q 324 792 331 783 l 172 987 q 175 1017 165 996 m 687 155 q 695 157 687 155 q 707 146 704 159 q 695 109 710 133 q 646 55 681 86 q 572 6 611 24 q 478 25 496 -32 q 471 112 469 48 q 325 -15 399 18 q 188 -35 251 -47 q 68 413 -11 3 q 161 640 94 549 q 440 790 275 798 q 549 748 510 788 q 615 805 581 794 q 633 805 626 809 q 638 789 639 800 q 581 123 557 195 q 617 105 592 91 q 649 131 628 112 q 687 155 669 150 m 478 252 q 492 394 488 363 q 357 677 528 670 q 285 669 315 679 q 228 638 243 657 q 171 475 193 590 q 151 272 149 359 q 274 78 160 100 q 408 122 361 61 q 478 252 443 167 z "},"á":{"ha":717,"x_min":-11,"x_max":717,"o":"m 560 1060 q 571 1070 560 1060 q 599 1085 582 1080 q 620 1078 617 1090 q 610 1043 624 1066 q 467 852 544 930 q 426 823 446 831 q 401 825 407 815 q 407 857 396 835 q 450 912 418 880 q 526 1019 482 944 q 560 1060 539 1041 m 687 155 q 695 157 687 155 q 707 146 704 159 q 695 109 710 133 q 646 55 681 86 q 572 6 611 24 q 478 25 496 -32 q 471 112 469 48 q 325 -15 399 18 q 188 -35 251 -47 q 68 413 -11 3 q 161 640 94 549 q 440 790 275 798 q 549 748 510 788 q 615 805 581 794 q 633 805 626 809 q 638 789 639 800 q 581 123 557 195 q 617 105 592 91 q 649 131 628 112 q 687 155 669 150 m 478 252 q 492 394 488 363 q 357 677 528 670 q 285 669 315 679 q 228 638 243 657 q 171 475 193 590 q 151 272 149 359 q 274 78 160 100 q 408 122 361 61 q 478 252 443 167 z "},"â":{"ha":717,"x_min":-11,"x_max":717,"o":"m 331 914 q 293 873 315 891 q 258 854 271 855 q 242 859 246 853 q 256 905 235 874 l 378 1088 l 408 1127 q 467 1143 449 1171 l 567 975 q 561 944 572 966 q 529 900 550 921 q 489 871 508 879 q 464 872 469 863 l 389 1000 l 331 914 m 687 155 q 695 157 687 155 q 707 146 704 159 q 695 109 710 133 q 646 55 681 86 q 572 6 611 24 q 478 25 496 -32 q 471 112 469 48 q 325 -15 399 18 q 188 -35 251 -47 q 68 413 -11 3 q 161 640 94 549 q 440 790 275 798 q 549 748 510 788 q 615 805 581 794 q 633 805 626 809 q 638 789 639 800 q 581 123 557 195 q 617 105 592 91 q 649 131 628 112 q 687 155 669 150 m 478 252 q 492 394 488 363 q 357 677 528 670 q 285 669 315 679 q 228 638 243 657 q 171 475 193 590 q 151 272 149 359 q 274 78 160 100 q 408 122 361 61 q 478 252 443 167 z "},"ã":{"ha":717,"x_min":-11,"x_max":717,"o":"m 422 991 q 490 1051 453 1038 q 514 1038 515 1060 q 513 1030 514 1036 q 513 1022 513 1024 q 511 1013 513 1019 q 509 1003 510 1007 q 506 993 508 1000 q 501 981 504 987 q 496 969 499 975 q 447 905 475 929 q 406 876 418 882 q 378 869 394 870 q 344 873 354 868 l 289 899 l 232 921 q 167 859 203 874 q 138 866 139 847 q 138 874 138 866 q 135 887 136 882 q 135 901 135 891 q 139 919 136 912 q 147 940 142 927 q 158 962 151 952 q 236 1034 190 1007 q 274 1046 258 1047 q 292 1045 290 1045 q 296 1044 294 1045 l 381 1009 l 422 991 m 687 155 q 695 157 687 155 q 707 146 704 159 q 695 109 710 133 q 646 55 681 86 q 572 6 611 24 q 478 25 496 -32 q 471 112 469 48 q 325 -15 399 18 q 188 -35 251 -47 q 68 413 -11 3 q 161 640 94 549 q 440 790 275 798 q 549 748 510 788 q 615 805 581 794 q 633 805 626 809 q 638 789 639 800 q 581 123 557 195 q 617 105 592 91 q 649 131 628 112 q 687 155 669 150 m 478 252 q 492 394 488 363 q 357 677 528 670 q 285 669 315 679 q 228 638 243 657 q 171 475 193 590 q 151 272 149 359 q 274 78 160 100 q 408 122 361 61 q 478 252 443 167 z "},"ä":{"ha":717,"x_min":-11,"x_max":717,"o":"m 206 906 q 224 958 204 936 q 269 983 243 981 q 315 967 296 986 q 335 917 335 947 q 315 864 335 886 q 269 839 296 841 q 224 856 243 837 q 206 906 204 875 m 425 919 q 443 972 424 950 q 489 997 463 995 q 535 980 515 999 q 554 930 554 961 q 535 877 554 900 q 489 853 515 855 q 443 869 463 850 q 425 919 424 888 m 687 155 q 695 157 687 155 q 707 146 704 159 q 695 109 710 133 q 646 55 681 86 q 572 6 611 24 q 478 25 496 -32 q 471 112 469 48 q 325 -15 399 18 q 188 -35 251 -47 q 68 413 -11 3 q 161 640 94 549 q 440 790 275 798 q 549 748 510 788 q 615 805 581 794 q 633 805 626 809 q 638 789 639 800 q 581 123 557 195 q 617 105 592 91 q 649 131 628 112 q 687 155 669 150 m 478 252 q 492 394 488 363 q 357 677 528 670 q 285 669 315 679 q 228 638 243 657 q 171 475 193 590 q 151 272 149 359 q 274 78 160 100 q 408 122 361 61 q 478 252 443 167 z "},"å":{"ha":717,"x_min":-11,"x_max":717,"o":"m 447 1204 q 571 1093 568 1209 q 560 1006 571 1039 q 529 946 549 974 q 371 847 463 850 q 249 987 250 845 q 285 1107 247 1052 q 447 1204 350 1201 m 463 961 q 354 1090 488 1106 q 354 1074 354 1082 q 451 960 356 959 q 463 961 457 961 m 687 155 q 695 157 687 155 q 707 146 704 159 q 695 109 710 133 q 646 55 681 86 q 572 6 611 24 q 478 25 496 -32 q 471 112 469 48 q 325 -15 399 18 q 188 -35 251 -47 q 68 413 -11 3 q 161 640 94 549 q 440 790 275 798 q 549 748 510 788 q 615 805 581 794 q 633 805 626 809 q 638 789 639 800 q 581 123 557 195 q 617 105 592 91 q 649 131 628 112 q 687 155 669 150 m 478 252 q 492 394 488 363 q 357 677 528 670 q 285 669 315 679 q 228 638 243 657 q 171 475 193 590 q 151 272 149 359 q 274 78 160 100 q 408 122 361 61 q 478 252 443 167 z "},"æ":{"ha":1074,"x_min":10,"x_max":1139,"o":"m 529 256 q 571 285 551 276 q 599 285 590 293 q 599 257 607 276 q 485 64 551 143 q 346 -43 418 -17 q 208 -51 272 -69 q 89 407 10 4 q 182 626 115 540 q 461 751 296 774 q 618 421 660 726 q 599 382 615 404 q 564 349 582 360 q 535 335 546 338 q 517 336 524 332 q 513 351 511 340 q 378 646 549 624 q 306 644 336 651 q 249 618 264 636 q 194 471 214 574 q 294 54 124 103 q 429 86 382 29 q 501 215 465 129 q 529 256 510 235 m 601 325 q 825 53 596 68 q 913 56 874 49 q 968 75 963 64 q 1001 115 979 96 q 1040 141 1022 135 q 1065 136 1058 147 q 1039 71 1075 118 q 965 -3 1003 24 q 890 -40 926 -31 q 744 -53 810 -62 q 499 293 471 -35 q 529 469 507 394 q 600 608 551 543 q 876 751 711 758 q 1096 403 1139 742 q 1040 324 1083 347 q 1004 315 1024 314 l 601 325 m 611 429 q 626 432 621 432 l 996 424 q 797 646 992 639 q 671 606 703 650 q 611 429 629 550 z "},"ç":{"ha":721,"x_min":39,"x_max":753,"o":"m 305 1 q 311 12 305 1 q 340 44 318 24 q 378 69 361 64 q 400 61 396 74 q 304 -257 443 -107 q 263 -288 283 -278 q 235 -290 243 -298 q 237 -262 228 -283 q 263 -223 246 -241 q 289 -183 279 -205 q 294 -34 319 -114 q 305 1 292 -22 m 569 171 q 578 183 569 171 q 609 210 588 194 q 644 224 631 226 q 654 206 657 223 q 613 106 644 151 q 547 34 581 60 q 482 -4 513 7 q 364 -21 413 -26 q 101 330 42 -17 q 329 745 154 630 q 461 799 397 790 q 693 606 685 827 q 678 569 693 593 q 646 531 664 546 q 615 511 628 516 q 588 519 589 499 q 386 685 579 710 q 300 653 325 677 q 209 420 239 590 q 238 172 179 250 q 444 92 297 94 q 543 107 507 92 q 549 133 547 117 q 569 171 551 148 z "},"è":{"ha":731,"x_min":64,"x_max":801,"o":"m 243 1017 q 248 1027 243 1017 q 274 1059 253 1038 q 314 1090 294 1080 q 340 1090 333 1099 l 492 895 q 489 865 499 886 q 458 822 479 844 q 418 792 438 801 q 392 792 399 783 l 240 987 q 243 1017 233 996 m 199 342 q 422 90 193 85 q 510 100 471 90 q 565 124 560 113 q 598 168 576 146 q 638 197 619 189 q 663 194 656 205 q 636 126 672 177 q 562 46 600 76 q 488 2 524 15 q 342 -23 407 -27 q 96 301 68 -29 q 126 480 104 404 q 197 626 149 556 q 474 793 308 785 q 693 463 736 806 q 638 379 681 407 q 601 368 621 368 l 199 342 m 208 447 q 224 452 218 451 l 593 475 q 394 680 589 690 q 268 629 300 676 q 208 447 226 570 z "},"é":{"ha":731,"x_min":64,"x_max":801,"o":"m 627 1060 q 638 1070 627 1060 q 666 1085 649 1080 q 687 1078 683 1090 q 676 1043 690 1066 q 533 852 611 930 q 493 823 513 831 q 468 825 474 815 q 474 857 463 835 q 517 912 485 880 q 593 1019 549 944 q 627 1060 606 1041 m 199 342 q 422 90 193 85 q 510 100 471 90 q 565 124 560 113 q 598 168 576 146 q 638 197 619 189 q 663 194 656 205 q 636 126 672 177 q 562 46 600 76 q 488 2 524 15 q 342 -23 407 -27 q 96 301 68 -29 q 126 480 104 404 q 197 626 149 556 q 474 793 308 785 q 693 463 736 806 q 638 379 681 407 q 601 368 621 368 l 199 342 m 208 447 q 224 452 218 451 l 593 475 q 394 680 589 690 q 268 629 300 676 q 208 447 226 570 z "},"ê":{"ha":731,"x_min":64,"x_max":801,"o":"m 397 914 q 360 873 382 891 q 325 854 338 855 q 308 859 313 853 q 322 905 301 874 l 444 1088 l 475 1127 q 533 1143 515 1171 l 633 975 q 628 944 639 966 q 596 900 617 921 q 556 871 575 879 q 531 872 536 863 l 456 1000 l 397 914 m 199 342 q 422 90 193 85 q 510 100 471 90 q 565 124 560 113 q 598 168 576 146 q 638 197 619 189 q 663 194 656 205 q 636 126 672 177 q 562 46 600 76 q 488 2 524 15 q 342 -23 407 -27 q 96 301 68 -29 q 126 480 104 404 q 197 626 149 556 q 474 793 308 785 q 693 463 736 806 q 638 379 681 407 q 601 368 621 368 l 199 342 m 208 447 q 224 452 218 451 l 593 475 q 394 680 589 690 q 268 629 300 676 q 208 447 226 570 z "},"ë":{"ha":731,"x_min":64,"x_max":801,"o":"m 274 906 q 292 958 272 936 q 338 983 311 981 q 383 967 364 986 q 403 917 403 947 q 383 864 403 886 q 338 839 364 841 q 292 856 311 837 q 274 906 272 875 m 493 919 q 511 972 492 950 q 557 997 531 995 q 603 980 583 999 q 622 930 622 961 q 603 877 622 900 q 557 853 583 855 q 511 869 531 850 q 493 919 492 888 m 199 342 q 422 90 193 85 q 510 100 471 90 q 565 124 560 113 q 598 168 576 146 q 638 197 619 189 q 663 194 656 205 q 636 126 672 177 q 562 46 600 76 q 488 2 524 15 q 342 -23 407 -27 q 96 301 68 -29 q 126 480 104 404 q 197 626 149 556 q 474 793 308 785 q 693 463 736 806 q 638 379 681 407 q 601 368 621 368 l 199 342 m 208 447 q 224 452 218 451 l 593 475 q 394 680 589 690 q 268 629 300 676 q 208 447 226 570 z "},"ì":{"ha":264,"x_min":68,"x_max":331,"o":"m 0 1017 q 5 1027 0 1017 q 31 1059 10 1038 q 71 1090 51 1080 q 97 1090 90 1099 l 249 895 q 246 865 256 886 q 215 822 236 844 q 175 792 194 801 q 149 792 156 783 l -3 987 q 0 1017 -10 996 m 150 677 q 168 716 151 692 q 203 753 185 740 q 233 770 221 767 q 256 757 258 778 l 182 51 q 164 11 181 34 q 129 -26 147 -12 q 99 -43 111 -39 q 76 -28 74 -51 l 150 677 z "},"í":{"ha":264,"x_min":68,"x_max":368,"o":"m 215 1060 q 225 1070 215 1060 q 253 1085 236 1080 q 274 1078 271 1090 q 264 1043 278 1066 q 121 852 199 930 q 81 823 100 831 q 56 825 61 815 q 61 857 50 835 q 104 912 72 880 q 181 1019 136 944 q 215 1060 193 1041 m 150 677 q 168 716 151 692 q 203 753 185 740 q 233 770 221 767 q 256 757 258 778 l 182 51 q 164 11 181 34 q 129 -26 147 -12 q 99 -43 111 -39 q 76 -28 74 -51 l 150 677 z "},"î":{"ha":264,"x_min":68,"x_max":478,"o":"m 156 914 q 118 873 140 891 q 83 854 96 855 q 67 859 71 853 q 81 905 60 874 l 203 1088 l 233 1127 q 292 1143 274 1171 l 392 975 q 386 944 397 966 q 354 900 375 921 q 314 871 333 879 q 289 872 294 863 l 214 1000 l 156 914 m 150 677 q 168 716 151 692 q 203 753 185 740 q 233 770 221 767 q 256 757 258 778 l 182 51 q 164 11 181 34 q 129 -26 147 -12 q 99 -43 111 -39 q 76 -28 74 -51 l 150 677 z "},"ï":{"ha":264,"x_min":68,"x_max":461,"o":"m 31 906 q 49 958 29 936 q 94 983 68 981 q 140 967 121 986 q 160 917 160 947 q 140 864 160 886 q 94 839 121 841 q 49 856 68 837 q 31 906 29 875 m 250 919 q 268 972 249 950 q 314 997 288 995 q 360 980 340 999 q 379 930 379 961 q 360 877 379 900 q 314 853 340 855 q 268 869 288 850 q 250 919 249 888 m 150 677 q 168 716 151 692 q 203 753 185 740 q 233 770 221 767 q 256 757 258 778 l 182 51 q 164 11 181 34 q 129 -26 147 -12 q 99 -43 111 -39 q 76 -28 74 -51 l 150 677 z "},"ð":{"ha":744,"x_min":33,"x_max":728,"o":"m 589 374 q 586 376 588 375 q 400 480 483 454 q 274 486 317 506 q 204 334 231 467 q 221 134 178 201 q 371 56 264 67 q 528 76 478 44 q 585 210 567 101 q 589 374 596 281 m 308 631 q 300 632 308 631 q 291 651 292 633 q 306 691 290 668 q 344 728 322 714 l 413 771 q 200 835 328 821 q 182 853 183 836 q 195 893 181 871 q 233 931 210 915 q 272 943 256 946 q 540 850 440 924 l 671 932 q 710 943 693 946 q 727 923 726 940 q 712 883 728 906 q 674 846 696 860 l 596 797 q 674 626 654 728 q 690 228 722 368 q 552 5 657 79 q 310 -56 447 -69 q 94 278 33 -28 q 297 586 143 517 q 472 594 381 624 q 564 554 514 581 q 476 722 543 657 l 347 642 q 308 631 325 628 z "},"ñ":{"ha":697,"x_min":68,"x_max":758,"o":"m 150 677 q 168 716 151 692 q 203 753 185 740 q 233 770 221 767 q 256 757 258 778 l 246 665 q 340 749 285 712 q 454 791 396 786 q 657 482 692 815 l 624 91 q 606 52 622 75 q 571 14 589 28 q 542 -4 553 0 q 518 9 517 -13 l 551 401 q 379 679 583 698 q 319 663 339 675 q 229 502 271 631 q 229 498 229 501 l 182 51 q 164 11 181 34 q 129 -26 147 -12 q 99 -43 111 -39 q 76 -28 74 -51 l 150 677 m 388 1007 q 456 1068 418 1055 q 479 1054 481 1077 q 478 1047 479 1053 q 478 1038 478 1040 q 476 1030 478 1036 q 474 1020 475 1023 q 472 1010 474 1016 q 467 998 469 1003 q 461 986 464 992 q 412 922 440 945 q 372 893 383 899 q 343 885 360 887 q 310 890 319 885 l 254 915 l 197 938 q 132 875 168 891 q 103 883 104 863 q 103 891 103 883 q 101 903 101 899 q 101 918 100 907 q 104 936 101 928 q 112 956 107 944 q 124 979 117 968 q 201 1051 156 1023 q 240 1063 224 1064 q 258 1061 256 1061 q 261 1060 260 1062 l 346 1026 l 388 1007 z "},"ò":{"ha":747,"x_min":53,"x_max":819,"o":"m 243 1017 q 248 1027 243 1017 q 274 1059 253 1038 q 314 1090 294 1080 q 340 1090 333 1099 l 492 895 q 489 865 499 886 q 458 822 479 844 q 418 792 438 801 q 392 792 399 783 l 240 987 q 243 1017 233 996 m 500 795 q 706 395 756 795 q 613 133 685 235 q 336 -23 501 -24 q 99 317 56 -23 q 135 488 111 414 q 208 629 160 563 q 500 795 326 795 m 419 683 q 276 630 314 683 q 235 539 256 602 q 204 396 214 477 q 417 89 165 89 q 543 132 513 89 q 575 204 558 154 q 600 316 592 253 q 419 683 647 683 z "},"ó":{"ha":747,"x_min":53,"x_max":819,"o":"m 627 1060 q 638 1070 627 1060 q 666 1085 649 1080 q 687 1078 683 1090 q 676 1043 690 1066 q 533 852 611 930 q 493 823 513 831 q 468 825 474 815 q 474 857 463 835 q 517 912 485 880 q 593 1019 549 944 q 627 1060 606 1041 m 500 795 q 706 395 756 795 q 613 133 685 235 q 336 -23 501 -24 q 99 317 56 -23 q 135 488 111 414 q 208 629 160 563 q 500 795 326 795 m 419 683 q 276 630 314 683 q 235 539 256 602 q 204 396 214 477 q 417 89 165 89 q 543 132 513 89 q 575 204 558 154 q 600 316 592 253 q 419 683 647 683 z "},"ô":{"ha":747,"x_min":53,"x_max":819,"o":"m 397 914 q 360 873 382 891 q 325 854 338 855 q 308 859 313 853 q 322 905 301 874 l 444 1088 l 475 1127 q 533 1143 515 1171 l 633 975 q 628 944 639 966 q 596 900 617 921 q 556 871 575 879 q 531 872 536 863 l 456 1000 l 397 914 m 500 795 q 706 395 756 795 q 613 133 685 235 q 336 -23 501 -24 q 99 317 56 -23 q 135 488 111 414 q 208 629 160 563 q 500 795 326 795 m 419 683 q 276 630 314 683 q 235 539 256 602 q 204 396 214 477 q 417 89 165 89 q 543 132 513 89 q 575 204 558 154 q 600 316 592 253 q 419 683 647 683 z "},"õ":{"ha":747,"x_min":53,"x_max":819,"o":"m 500 795 q 706 395 756 795 q 613 133 685 235 q 336 -23 501 -24 q 99 317 56 -23 q 135 488 111 414 q 208 629 160 563 q 500 795 326 795 m 419 683 q 276 630 314 683 q 235 539 256 602 q 204 396 214 477 q 417 89 165 89 q 543 132 513 89 q 575 204 558 154 q 600 316 592 253 q 419 683 647 683 m 531 1007 q 599 1068 561 1055 q 622 1054 624 1077 q 622 1047 622 1053 q 621 1038 621 1040 q 619 1030 621 1036 q 617 1020 618 1023 q 615 1010 617 1016 q 610 998 613 1003 q 604 986 607 992 q 555 922 583 945 q 515 893 526 899 q 486 885 503 887 q 453 890 463 885 l 397 915 l 340 938 q 275 875 311 891 q 246 883 247 863 q 246 891 246 883 q 244 903 244 899 q 244 918 243 907 q 247 936 244 928 q 255 956 250 944 q 267 979 260 968 q 344 1051 299 1023 q 383 1063 367 1064 q 401 1061 399 1061 q 404 1060 403 1062 l 489 1026 l 531 1007 z "},"ö":{"ha":747,"x_min":53,"x_max":819,"o":"m 274 906 q 292 958 272 936 q 338 983 311 981 q 383 967 364 986 q 403 917 403 947 q 383 864 403 886 q 338 839 364 841 q 292 856 311 837 q 274 906 272 875 m 493 919 q 511 972 492 950 q 557 997 531 995 q 603 980 583 999 q 622 930 622 961 q 603 877 622 900 q 557 853 583 855 q 511 869 531 850 q 493 919 492 888 m 500 795 q 706 395 756 795 q 613 133 685 235 q 336 -23 501 -24 q 99 317 56 -23 q 135 488 111 414 q 208 629 160 563 q 500 795 326 795 m 419 683 q 276 630 314 683 q 235 539 256 602 q 204 396 214 477 q 417 89 165 89 q 543 132 513 89 q 575 204 558 154 q 600 316 592 253 q 419 683 647 683 z "},"÷":{"ha":660,"x_min":31,"x_max":658,"o":"m 254 565 q 271 596 258 578 q 306 629 283 614 q 343 644 328 644 l 479 644 q 490 618 500 644 q 448 561 479 583 q 401 539 417 539 l 265 539 q 254 565 246 539 m 214 147 q 231 178 218 160 q 265 212 243 196 q 303 228 288 228 l 418 231 q 432 206 439 231 q 390 148 421 171 q 343 125 358 125 l 228 122 q 214 147 206 121 m 39 363 q 56 393 43 375 q 90 426 68 411 q 128 442 113 442 l 638 442 q 649 415 658 442 q 606 358 638 381 q 560 336 575 336 l 50 336 q 39 363 31 336 z "},"ø":{"ha":686,"x_min":56,"x_max":756,"o":"m 640 825 q 679 849 661 844 q 701 842 697 853 q 694 808 706 829 l 172 -106 q 138 -144 160 -126 q 99 -168 115 -162 q 76 -161 81 -172 q 83 -128 72 -149 l 606 786 q 640 825 618 807 m 500 751 q 706 333 756 729 q 613 79 685 175 q 336 -53 501 -68 q 99 308 56 -28 q 135 476 111 404 q 208 611 160 549 q 500 751 326 767 m 419 646 q 276 606 314 656 q 235 519 256 579 q 204 378 214 458 q 417 53 165 75 q 543 85 513 44 q 575 153 558 106 q 600 264 592 201 q 419 646 647 626 z "},"ù":{"ha":707,"x_min":67,"x_max":757,"o":"m 226 1017 q 231 1027 226 1017 q 257 1059 236 1038 q 297 1090 278 1080 q 324 1090 317 1099 l 475 895 q 472 865 482 886 q 442 822 463 844 q 401 792 421 801 q 375 792 382 783 l 224 987 q 226 1017 217 996 m 614 88 q 596 49 613 73 q 561 12 579 26 q 531 -5 543 -1 q 508 10 506 -13 l 518 101 q 424 16 479 53 q 310 -26 368 -21 q 107 284 72 -49 l 140 675 q 158 715 142 690 q 193 752 175 739 q 222 769 211 766 q 246 756 247 779 l 213 364 q 385 86 181 67 q 444 103 425 90 q 535 263 493 135 q 535 268 535 265 l 582 715 q 600 755 583 732 q 635 791 617 778 q 665 808 653 804 q 688 795 690 816 l 614 88 z "},"ú":{"ha":707,"x_min":67,"x_max":765,"o":"m 612 1060 q 623 1070 612 1060 q 651 1085 633 1080 q 672 1078 668 1090 q 661 1043 675 1066 q 518 852 596 930 q 478 823 497 831 q 453 825 458 815 q 458 857 447 835 q 501 912 469 880 q 578 1019 533 944 q 612 1060 590 1041 m 614 88 q 596 49 613 73 q 561 12 579 26 q 531 -5 543 -1 q 508 10 506 -13 l 518 101 q 424 16 479 53 q 310 -26 368 -21 q 107 284 72 -49 l 140 675 q 158 715 142 690 q 193 752 175 739 q 222 769 211 766 q 246 756 247 779 l 213 364 q 385 86 181 67 q 444 103 425 90 q 535 263 493 135 q 535 268 535 265 l 582 715 q 600 755 583 732 q 635 791 617 778 q 665 808 653 804 q 688 795 690 816 l 614 88 z "},"û":{"ha":707,"x_min":67,"x_max":757,"o":"m 382 914 q 344 873 367 891 q 310 854 322 855 q 293 859 297 853 q 307 905 286 874 l 429 1088 l 460 1127 q 518 1143 500 1171 l 618 975 q 613 944 624 966 q 581 900 601 921 q 540 871 560 879 q 515 872 521 863 l 440 1000 l 382 914 m 614 88 q 596 49 613 73 q 561 12 579 26 q 531 -5 543 -1 q 508 10 506 -13 l 518 101 q 424 16 479 53 q 310 -26 368 -21 q 107 284 72 -49 l 140 675 q 158 715 142 690 q 193 752 175 739 q 222 769 211 766 q 246 756 247 779 l 213 364 q 385 86 181 67 q 444 103 425 90 q 535 263 493 135 q 535 268 535 265 l 582 715 q 600 755 583 732 q 635 791 617 778 q 665 808 653 804 q 688 795 690 816 l 614 88 z "},"ü":{"ha":707,"x_min":67,"x_max":757,"o":"m 257 906 q 275 958 256 936 q 321 983 294 981 q 367 967 347 986 q 386 917 386 947 q 367 864 386 886 q 321 839 347 841 q 275 856 294 837 q 257 906 256 875 m 476 919 q 494 972 475 950 q 540 997 514 995 q 586 980 567 999 q 606 930 606 961 q 586 877 606 900 q 540 853 567 855 q 494 869 514 850 q 476 919 475 888 m 614 88 q 596 49 613 73 q 561 12 579 26 q 531 -5 543 -1 q 508 10 506 -13 l 518 101 q 424 16 479 53 q 310 -26 368 -21 q 107 284 72 -49 l 140 675 q 158 715 142 690 q 193 752 175 739 q 222 769 211 766 q 246 756 247 779 l 213 364 q 385 86 181 67 q 444 103 425 90 q 535 263 493 135 q 535 268 535 265 l 582 715 q 600 755 583 732 q 635 791 617 778 q 665 808 653 804 q 688 795 690 816 l 614 88 z "},"ý":{"ha":733,"x_min":28,"x_max":778,"o":"m 623 1060 q 634 1070 623 1060 q 662 1085 644 1080 q 683 1078 679 1090 q 672 1043 686 1066 q 529 852 607 930 q 489 823 508 831 q 464 825 469 815 q 469 857 458 835 q 513 912 481 880 q 589 1019 544 944 q 623 1060 601 1041 m 604 715 q 622 754 606 731 q 656 792 638 778 q 685 810 674 806 q 710 798 711 819 q 668 246 682 344 q 632 44 657 130 q 551 -123 607 -41 q 419 -249 494 -205 q 268 -299 344 -293 q 53 -220 111 -311 q 58 -189 47 -211 q 89 -146 68 -166 q 129 -116 110 -125 q 156 -117 149 -108 q 346 -186 206 -197 q 483 -122 446 -179 q 557 115 535 -45 q 274 -26 421 -60 q 179 681 79 18 q 199 721 182 698 q 234 757 217 744 q 263 774 251 771 q 281 772 275 777 q 285 758 286 768 q 281 173 224 335 q 361 84 308 96 q 496 125 447 64 q 569 264 533 172 q 574 274 571 268 q 604 715 586 417 z "},"þ":{"ha":682,"x_min":63,"x_max":664,"o":"m 257 943 l 225 564 q 428 674 299 674 q 614 575 557 674 q 651 333 664 481 q 569 86 639 185 q 372 -15 499 -12 q 183 99 233 -15 l 154 -244 l 63 -253 l 167 943 l 257 943 m 558 332 q 564 397 558 332 q 528 535 569 463 q 411 607 486 607 q 276 532 336 607 q 204 333 215 457 q 364 53 179 53 q 495 127 443 53 q 558 332 547 201 z "},"ÿ":{"ha":733,"x_min":28,"x_max":778,"o":"m 268 906 q 286 958 267 936 q 332 983 306 981 q 378 967 358 986 q 397 917 397 947 q 378 864 397 886 q 332 839 358 841 q 286 856 306 837 q 268 906 267 875 m 488 919 q 506 972 486 950 q 551 997 525 995 q 597 980 578 999 q 617 930 617 961 q 597 877 617 900 q 551 853 578 855 q 506 869 525 850 q 488 919 486 888 m 604 715 q 622 754 606 731 q 656 792 638 778 q 685 810 674 806 q 710 798 711 819 q 668 246 682 344 q 632 44 657 130 q 551 -123 607 -41 q 419 -249 494 -205 q 268 -299 344 -293 q 53 -220 111 -311 q 58 -189 47 -211 q 89 -146 68 -166 q 129 -116 110 -125 q 156 -117 149 -108 q 346 -186 206 -197 q 483 -122 446 -179 q 557 115 535 -45 q 274 -26 421 -60 q 179 681 79 18 q 199 721 182 698 q 234 757 217 744 q 263 774 251 771 q 281 772 275 777 q 285 758 286 768 q 281 173 224 335 q 361 84 308 96 q 496 125 447 64 q 569 264 533 172 q 574 274 571 268 q 604 715 586 417 z "},"Ā":{"ha":903,"x_min":58,"x_max":844,"o":"m 314 1138 q 331 1170 318 1151 q 365 1206 343 1189 q 403 1225 388 1223 l 706 1251 q 717 1226 726 1253 q 674 1165 706 1190 q 628 1139 643 1140 l 325 1112 q 314 1138 306 1111 m 137 -10 q 127 -21 137 -10 q 97 -41 117 -31 q 70 -42 78 -50 q 72 -13 63 -33 l 531 1027 l 572 1079 q 631 1098 624 1132 l 839 116 q 828 81 842 104 q 792 38 814 57 q 753 14 771 19 q 733 21 736 9 l 668 333 q 664 333 667 333 l 285 300 l 167 34 q 137 -10 157 12 m 646 437 l 547 898 l 333 410 l 646 437 z "},"ā":{"ha":717,"x_min":-11,"x_max":717,"o":"m 189 850 q 206 882 193 863 q 240 919 218 901 q 278 937 263 936 l 581 964 q 592 938 601 965 q 549 878 581 903 q 503 851 518 853 l 200 825 q 189 850 181 823 m 687 155 q 695 157 687 155 q 707 146 704 159 q 695 109 710 133 q 646 55 681 86 q 572 6 611 24 q 478 25 496 -32 q 471 112 469 48 q 325 -15 399 18 q 188 -35 251 -47 q 68 413 -11 3 q 161 640 94 549 q 440 790 275 798 q 549 748 510 788 q 615 805 581 794 q 633 805 626 809 q 638 789 639 800 q 581 123 557 195 q 617 105 592 91 q 649 131 628 112 q 687 155 669 150 m 478 252 q 492 394 488 363 q 357 677 528 670 q 285 669 315 679 q 228 638 243 657 q 171 475 193 590 q 151 272 149 359 q 274 78 160 100 q 408 122 361 61 q 478 252 443 167 z "},"Ă":{"ha":903,"x_min":58,"x_max":844,"o":"m 609 1303 q 611 1316 609 1303 q 630 1353 613 1330 q 665 1390 647 1377 q 694 1407 682 1404 q 711 1406 706 1410 q 715 1391 717 1401 q 663 1251 704 1311 q 476 1133 586 1140 q 335 1287 319 1124 q 353 1327 336 1303 q 388 1365 369 1351 q 417 1382 406 1378 q 440 1369 442 1391 q 554 1245 428 1239 q 594 1253 578 1246 q 609 1303 606 1276 m 137 -10 q 127 -21 137 -10 q 97 -41 117 -31 q 70 -42 78 -50 q 72 -13 63 -33 l 531 1027 l 572 1079 q 631 1098 624 1132 l 839 116 q 828 81 842 104 q 792 38 814 57 q 753 14 771 19 q 733 21 736 9 l 668 333 q 664 333 667 333 l 285 300 l 167 34 q 137 -10 157 12 m 646 437 l 547 898 l 333 410 l 646 437 z "},"ă":{"ha":717,"x_min":-11,"x_max":717,"o":"m 484 1015 q 486 1029 484 1015 q 505 1066 488 1042 q 540 1103 522 1090 q 569 1119 557 1116 q 586 1118 581 1123 q 590 1104 592 1114 q 538 963 579 1024 q 351 846 461 852 q 210 1000 194 836 q 228 1040 211 1015 q 263 1077 244 1064 q 292 1095 281 1091 q 315 1081 317 1104 q 429 958 303 951 q 469 966 453 959 q 484 1015 481 989 m 687 155 q 695 157 687 155 q 707 146 704 159 q 695 109 710 133 q 646 55 681 86 q 572 6 611 24 q 478 25 496 -32 q 471 112 469 48 q 325 -15 399 18 q 188 -35 251 -47 q 68 413 -11 3 q 161 640 94 549 q 440 790 275 798 q 549 748 510 788 q 615 805 581 794 q 633 805 626 809 q 638 789 639 800 q 581 123 557 195 q 617 105 592 91 q 649 131 628 112 q 687 155 669 150 m 478 252 q 492 394 488 363 q 357 677 528 670 q 285 669 315 679 q 228 638 243 657 q 171 475 193 590 q 151 272 149 359 q 274 78 160 100 q 408 122 361 61 q 478 252 443 167 z "},"Ą":{"ha":903,"x_min":-86,"x_max":844,"o":"m 137 -10 q 127 -21 137 -10 q 97 -41 117 -31 q 70 -42 78 -50 q 72 -13 63 -33 l 531 1027 l 572 1079 q 631 1098 624 1132 l 839 116 q 828 81 842 104 q 792 38 814 57 q 753 14 771 19 q 733 21 736 9 l 668 333 q 664 333 667 333 l 285 300 l 167 34 q 137 -10 157 12 m 646 437 l 547 898 l 333 410 l 646 437 m 161 -165 q 145 -197 158 -178 q 110 -233 132 -215 q 72 -254 89 -251 q -33 -245 0 -264 q -51 -167 -65 -225 q 54 25 -25 -72 q 94 61 72 48 q 126 71 115 75 q 132 47 138 67 q 97 -8 126 27 q 51 -100 68 -43 q 67 -137 46 -124 q 147 -142 89 -149 q 161 -165 168 -138 z "},"ą":{"ha":717,"x_min":-11,"x_max":717,"o":"m 326 -172 q 310 -204 324 -185 q 276 -240 297 -222 q 238 -261 254 -258 q 133 -252 165 -271 q 114 -174 100 -232 q 219 18 140 -79 q 259 54 238 41 q 292 64 281 68 q 297 40 303 60 q 263 -15 292 20 q 217 -107 233 -50 q 233 -144 211 -131 q 313 -149 254 -156 q 326 -172 333 -145 m 687 155 q 695 157 687 155 q 707 146 704 159 q 695 109 710 133 q 646 55 681 86 q 572 6 611 24 q 478 25 496 -32 q 471 112 469 48 q 325 -15 399 18 q 188 -35 251 -47 q 68 413 -11 3 q 161 640 94 549 q 440 790 275 798 q 549 748 510 788 q 615 805 581 794 q 633 805 626 809 q 638 789 639 800 q 581 123 557 195 q 617 105 592 91 q 649 131 628 112 q 687 155 669 150 m 478 252 q 492 394 488 363 q 357 677 528 670 q 285 669 315 679 q 228 638 243 657 q 171 475 193 590 q 151 272 149 359 q 274 78 160 100 q 408 122 361 61 q 478 252 443 167 z "},"Ć":{"ha":936,"x_min":97,"x_max":972,"o":"m 738 1348 q 749 1358 738 1348 q 777 1373 760 1368 q 798 1366 794 1378 q 788 1330 801 1354 q 644 1140 722 1217 q 604 1111 624 1119 q 579 1113 585 1103 q 585 1145 574 1122 q 628 1199 596 1167 q 704 1306 660 1231 q 738 1348 717 1328 m 893 832 q 875 792 892 815 q 840 755 858 768 q 811 738 822 741 q 788 751 786 728 q 769 864 793 810 q 696 951 744 918 q 588 990 647 984 q 474 976 529 996 q 232 615 300 914 q 260 249 181 389 q 383 130 304 170 q 552 101 463 90 q 697 155 642 112 q 776 265 753 199 q 805 308 785 285 q 845 341 825 330 q 874 345 865 352 q 876 318 883 338 q 808 196 853 258 q 703 88 763 135 q 487 -10 597 4 q 291 20 376 -23 q 158 146 206 62 q 129 545 72 299 q 376 988 193 827 q 671 1103 522 1117 q 792 1060 739 1097 q 872 962 844 1022 q 893 832 900 902 z "},"ć":{"ha":721,"x_min":39,"x_max":760,"o":"m 606 1060 q 617 1070 606 1060 q 645 1085 628 1080 q 666 1078 663 1090 q 656 1043 669 1066 q 513 852 590 930 q 472 823 492 831 q 447 825 453 815 q 453 857 442 835 q 496 912 464 880 q 572 1019 528 944 q 606 1060 585 1041 m 569 171 q 578 183 569 171 q 609 210 588 194 q 644 224 631 226 q 654 206 657 223 q 613 106 644 151 q 547 34 581 60 q 482 -4 513 7 q 364 -21 413 -26 q 101 330 42 -17 q 329 745 154 630 q 461 799 397 790 q 693 606 685 827 q 678 569 693 593 q 646 531 664 546 q 615 511 628 516 q 588 519 589 499 q 386 685 579 710 q 300 653 325 677 q 209 420 239 590 q 238 172 179 250 q 444 92 297 94 q 543 107 507 92 q 549 133 547 117 q 569 171 551 148 z "},"Ĉ":{"ha":936,"x_min":97,"x_max":972,"o":"m 508 1202 q 471 1160 493 1178 q 436 1141 449 1143 q 419 1147 424 1140 q 433 1193 413 1162 l 556 1375 l 586 1414 q 644 1430 626 1458 l 744 1263 q 739 1231 750 1254 q 707 1187 728 1209 q 667 1158 686 1166 q 642 1159 647 1150 l 567 1288 l 508 1202 m 893 832 q 875 792 892 815 q 840 755 858 768 q 811 738 822 741 q 788 751 786 728 q 769 864 793 810 q 696 951 744 918 q 588 990 647 984 q 474 976 529 996 q 232 615 300 914 q 260 249 181 389 q 383 130 304 170 q 552 101 463 90 q 697 155 642 112 q 776 265 753 199 q 805 308 785 285 q 845 341 825 330 q 874 345 865 352 q 876 318 883 338 q 808 196 853 258 q 703 88 763 135 q 487 -10 597 4 q 291 20 376 -23 q 158 146 206 62 q 129 545 72 299 q 376 988 193 827 q 671 1103 522 1117 q 792 1060 739 1097 q 872 962 844 1022 q 893 832 900 902 z "},"ĉ":{"ha":721,"x_min":39,"x_max":753,"o":"m 376 914 q 339 873 361 891 q 304 854 317 855 q 288 859 292 853 q 301 905 281 874 l 424 1088 l 454 1127 q 513 1143 494 1171 l 613 975 q 607 944 618 966 q 575 900 596 921 q 535 871 554 879 q 510 872 515 863 l 435 1000 l 376 914 m 569 171 q 578 183 569 171 q 609 210 588 194 q 644 224 631 226 q 654 206 657 223 q 613 106 644 151 q 547 34 581 60 q 482 -4 513 7 q 364 -21 413 -26 q 101 330 42 -17 q 329 745 154 630 q 461 799 397 790 q 693 606 685 827 q 678 569 693 593 q 646 531 664 546 q 615 511 628 516 q 588 519 589 499 q 386 685 579 710 q 300 653 325 677 q 209 420 239 590 q 238 172 179 250 q 444 92 297 94 q 543 107 507 92 q 549 133 547 117 q 569 171 551 148 z "},"Ċ":{"ha":936,"x_min":97,"x_max":972,"o":"m 564 1302 q 633 1216 646 1305 q 539 1125 621 1126 q 478 1214 465 1124 q 564 1302 490 1300 m 893 832 q 875 792 892 815 q 840 755 858 768 q 811 738 822 741 q 788 751 786 728 q 769 864 793 810 q 696 951 744 918 q 588 990 647 984 q 474 976 529 996 q 232 615 300 914 q 260 249 181 389 q 383 130 304 170 q 552 101 463 90 q 697 155 642 112 q 776 265 753 199 q 805 308 785 285 q 845 341 825 330 q 874 345 865 352 q 876 318 883 338 q 808 196 853 258 q 703 88 763 135 q 487 -10 597 4 q 291 20 376 -23 q 158 146 206 62 q 129 545 72 299 q 376 988 193 827 q 671 1103 522 1117 q 792 1060 739 1097 q 872 962 844 1022 q 893 832 900 902 z "},"ċ":{"ha":721,"x_min":39,"x_max":753,"o":"m 432 1014 q 501 928 514 1017 q 407 837 489 839 q 346 926 333 836 q 432 1014 358 1012 m 569 171 q 578 183 569 171 q 609 210 588 194 q 644 224 631 226 q 654 206 657 223 q 613 106 644 151 q 547 34 581 60 q 482 -4 513 7 q 364 -21 413 -26 q 101 330 42 -17 q 329 745 154 630 q 461 799 397 790 q 693 606 685 827 q 678 569 693 593 q 646 531 664 546 q 615 511 628 516 q 588 519 589 499 q 386 685 579 710 q 300 653 325 677 q 209 420 239 590 q 238 172 179 250 q 444 92 297 94 q 543 107 507 92 q 549 133 547 117 q 569 171 551 148 z "},"Č":{"ha":936,"x_min":97,"x_max":972,"o":"m 404 1353 q 410 1365 404 1353 q 435 1397 415 1376 q 475 1426 456 1418 q 501 1425 494 1434 l 586 1290 l 660 1393 q 698 1434 676 1417 q 731 1452 719 1451 q 746 1444 743 1452 q 729 1396 751 1428 l 593 1203 q 507 1149 529 1111 l 399 1322 q 404 1353 393 1331 m 893 832 q 875 792 892 815 q 840 755 858 768 q 811 738 822 741 q 788 751 786 728 q 769 864 793 810 q 696 951 744 918 q 588 990 647 984 q 474 976 529 996 q 232 615 300 914 q 260 249 181 389 q 383 130 304 170 q 552 101 463 90 q 697 155 642 112 q 776 265 753 199 q 805 308 785 285 q 845 341 825 330 q 874 345 865 352 q 876 318 883 338 q 808 196 853 258 q 703 88 763 135 q 487 -10 597 4 q 291 20 376 -23 q 158 146 206 62 q 129 545 72 299 q 376 988 193 827 q 671 1103 522 1117 q 792 1060 739 1097 q 872 962 844 1022 q 893 832 900 902 z "},"č":{"ha":721,"x_min":39,"x_max":753,"o":"m 272 1066 q 278 1077 272 1066 q 303 1110 283 1088 q 343 1139 324 1131 q 369 1138 363 1147 l 454 1002 l 528 1106 q 566 1147 544 1129 q 599 1164 588 1164 q 614 1156 611 1164 q 597 1109 619 1140 l 461 915 q 375 862 397 823 l 267 1034 q 272 1066 261 1043 m 569 171 q 578 183 569 171 q 609 210 588 194 q 644 224 631 226 q 654 206 657 223 q 613 106 644 151 q 547 34 581 60 q 482 -4 513 7 q 364 -21 413 -26 q 101 330 42 -17 q 329 745 154 630 q 461 799 397 790 q 693 606 685 827 q 678 569 693 593 q 646 531 664 546 q 615 511 628 516 q 588 519 589 499 q 386 685 579 710 q 300 653 325 677 q 209 420 239 590 q 238 172 179 250 q 444 92 297 94 q 543 107 507 92 q 549 133 547 117 q 569 171 551 148 z "},"Ď":{"ha":893,"x_min":64,"x_max":983,"o":"m 389 1353 q 394 1365 389 1353 q 420 1397 400 1376 q 460 1426 440 1418 q 486 1425 479 1434 l 571 1290 l 644 1393 q 683 1434 661 1417 q 716 1452 704 1451 q 731 1444 728 1452 q 714 1396 736 1428 l 578 1203 q 492 1149 514 1111 l 383 1322 q 389 1353 378 1331 m 71 -30 l 168 979 q 219 1061 176 1032 q 257 1075 236 1072 q 871 614 888 1168 q 755 250 864 405 q 479 28 646 95 q 83 -45 313 -39 q 71 -30 69 -47 m 178 67 q 510 127 381 74 q 688 252 639 181 q 765 529 758 354 q 649 882 772 772 q 265 973 525 993 l 178 67 z "},"ď":{"ha":682,"x_min":29,"x_max":1013,"o":"m 596 1127 q 614 1167 597 1144 q 649 1204 631 1190 q 678 1222 667 1218 q 701 1209 703 1231 l 607 89 q 589 50 606 74 q 554 12 572 26 q 525 -5 536 -2 q 501 8 500 -15 l 511 118 q 365 -10 440 25 q 226 -32 290 -44 q 107 416 29 8 q 200 644 133 552 q 479 793 315 801 q 565 770 531 791 l 596 1127 m 546 530 q 396 680 528 677 q 325 673 356 681 q 267 641 281 661 q 213 489 232 593 q 313 81 140 114 q 447 125 400 64 q 519 261 483 171 q 524 269 521 265 l 546 530 m 842 940 q 848 951 842 940 q 875 983 854 962 q 915 1011 896 1004 q 938 1007 933 1018 q 846 655 1011 839 q 806 621 826 632 q 776 617 785 611 q 776 645 768 624 q 806 689 785 666 q 840 742 826 713 q 855 816 853 772 q 835 907 857 860 q 842 940 831 917 z "},"Đ":{"ha":990,"x_min":68,"x_max":982,"o":"m 76 460 q 93 490 81 472 q 128 524 106 508 q 165 539 150 539 l 538 539 q 549 513 558 539 q 507 456 538 478 q 460 433 475 433 l 88 433 q 76 460 68 433 m 165 -36 l 263 964 q 314 1042 271 1017 q 351 1053 331 1051 q 965 538 982 1090 q 849 184 958 329 q 574 -14 740 39 q 178 -53 407 -67 q 165 -36 164 -53 m 272 51 q 604 83 475 40 q 782 192 733 125 q 860 463 853 288 q 743 826 867 704 q 360 950 619 947 l 272 51 z "},"đ":{"ha":660,"x_min":29,"x_max":794,"o":"m 363 882 q 379 913 367 894 q 414 946 392 931 q 451 961 436 961 l 774 958 q 785 932 794 958 q 743 875 774 897 q 696 853 711 853 l 374 856 q 363 882 354 856 m 596 1075 q 614 1113 597 1092 q 649 1147 631 1135 q 678 1163 667 1160 q 701 1147 703 1169 l 607 36 q 589 -1 606 21 q 554 -36 572 -24 q 525 -51 536 -49 q 501 -36 500 -58 l 511 74 q 365 -42 440 -14 q 226 -51 290 -69 q 107 407 29 6 q 200 626 133 540 q 479 751 315 774 q 565 721 531 744 l 596 1075 m 546 482 q 396 646 528 631 q 325 644 356 650 q 267 618 281 636 q 213 471 232 572 q 313 54 140 101 q 447 86 400 29 q 519 215 483 129 q 524 224 521 219 l 546 482 z "},"Ē":{"ha":800,"x_min":72,"x_max":914,"o":"m 308 1138 q 325 1170 313 1151 q 360 1206 338 1189 q 397 1225 382 1223 l 700 1251 q 711 1226 721 1253 q 669 1165 700 1190 q 622 1139 638 1140 l 319 1112 q 308 1138 300 1111 m 807 1123 q 821 1111 821 1125 q 805 1072 821 1095 q 767 1030 789 1048 q 729 1011 744 1012 l 261 970 l 228 578 q 701 620 464 599 q 713 594 722 622 q 670 534 701 559 q 624 507 639 509 q 218 472 421 490 l 185 69 q 719 116 451 92 q 731 90 740 118 q 688 30 719 55 q 642 3 657 5 l 96 -44 q 81 -42 86 -47 q 78 -27 76 -38 l 163 978 q 181 1019 164 994 q 244 1073 211 1062 q 254 1075 251 1075 q 260 1075 257 1075 l 807 1123 z "},"ē":{"ha":731,"x_min":64,"x_max":801,"o":"m 256 850 q 272 882 260 863 q 307 919 285 901 q 344 937 329 936 l 647 964 q 658 938 668 965 q 616 878 647 903 q 569 851 585 853 l 267 825 q 256 850 247 823 m 199 342 q 422 90 193 85 q 510 100 471 90 q 565 124 560 113 q 598 168 576 146 q 638 197 619 189 q 663 194 656 205 q 636 126 672 177 q 562 46 600 76 q 488 2 524 15 q 342 -23 407 -27 q 96 301 68 -29 q 126 480 104 404 q 197 626 149 556 q 474 793 308 785 q 693 463 736 806 q 638 379 681 407 q 601 368 621 368 l 199 342 m 208 447 q 224 452 218 451 l 593 475 q 394 680 589 690 q 268 629 300 676 q 208 447 226 570 z "},"Ę":{"ha":800,"x_min":72,"x_max":914,"o":"m 507 -157 q 491 -188 504 -170 q 456 -225 478 -207 q 418 -245 435 -243 q 313 -237 346 -256 q 294 -159 281 -217 q 400 34 321 -64 q 440 70 418 56 q 472 79 461 83 q 478 56 483 76 q 443 1 472 36 q 397 -92 414 -35 q 413 -128 392 -116 q 493 -133 435 -141 q 507 -157 514 -130 m 807 1123 q 821 1111 821 1125 q 805 1072 821 1095 q 767 1030 789 1048 q 729 1011 744 1012 l 261 970 l 228 578 q 701 620 464 599 q 713 594 722 622 q 670 534 701 559 q 624 507 639 509 q 218 472 421 490 l 185 69 q 719 116 451 92 q 731 90 740 118 q 688 30 719 55 q 642 3 657 5 l 96 -44 q 81 -42 86 -47 q 78 -27 76 -38 l 163 978 q 181 1019 164 994 q 244 1073 211 1062 q 254 1075 251 1075 q 260 1075 257 1075 l 807 1123 z "},"ę":{"ha":731,"x_min":64,"x_max":801,"o":"m 456 -172 q 440 -204 453 -185 q 405 -240 426 -222 q 367 -261 383 -258 q 262 -252 294 -271 q 243 -174 229 -232 q 349 18 269 -79 q 388 54 367 41 q 421 64 410 68 q 426 40 432 60 q 392 -15 421 20 q 346 -107 363 -50 q 362 -144 340 -131 q 442 -149 383 -156 q 456 -172 463 -145 m 199 342 q 422 90 193 85 q 510 100 471 90 q 565 124 560 113 q 598 168 576 146 q 638 197 619 189 q 663 194 656 205 q 636 126 672 177 q 562 46 600 76 q 488 2 524 15 q 342 -23 407 -27 q 96 301 68 -29 q 126 480 104 404 q 197 626 149 556 q 474 793 308 785 q 693 463 736 806 q 638 379 681 407 q 601 368 621 368 l 199 342 m 208 447 q 224 452 218 451 l 593 475 q 394 680 589 690 q 268 629 300 676 q 208 447 226 570 z "},"Ě":{"ha":800,"x_min":72,"x_max":914,"o":"m 349 1353 q 354 1365 349 1353 q 380 1397 360 1376 q 419 1426 400 1418 q 446 1425 439 1434 l 531 1290 l 604 1393 q 642 1434 621 1417 q 676 1452 664 1451 q 690 1444 688 1452 q 674 1396 696 1428 l 538 1203 q 451 1149 474 1111 l 343 1322 q 349 1353 338 1331 m 807 1123 q 821 1111 821 1125 q 805 1072 821 1095 q 767 1030 789 1048 q 729 1011 744 1012 l 261 970 l 228 578 q 701 620 464 599 q 713 594 722 622 q 670 534 701 559 q 624 507 639 509 q 218 472 421 490 l 185 69 q 719 116 451 92 q 731 90 740 118 q 688 30 719 55 q 642 3 657 5 l 96 -44 q 81 -42 86 -47 q 78 -27 76 -38 l 163 978 q 181 1019 164 994 q 244 1073 211 1062 q 254 1075 251 1075 q 260 1075 257 1075 l 807 1123 z "},"ě":{"ha":731,"x_min":64,"x_max":801,"o":"m 296 1066 q 301 1077 296 1066 q 327 1110 307 1088 q 367 1139 347 1131 q 393 1138 386 1147 l 478 1002 l 551 1106 q 590 1147 568 1129 q 623 1164 611 1164 q 638 1156 635 1164 q 621 1109 643 1140 l 485 915 q 399 862 421 823 l 290 1034 q 296 1066 285 1043 m 199 342 q 422 90 193 85 q 510 100 471 90 q 565 124 560 113 q 598 168 576 146 q 638 197 619 189 q 663 194 656 205 q 636 126 672 177 q 562 46 600 76 q 488 2 524 15 q 342 -23 407 -27 q 96 301 68 -29 q 126 480 104 404 q 197 626 149 556 q 474 793 308 785 q 693 463 736 806 q 638 379 681 407 q 601 368 621 368 l 199 342 m 208 447 q 224 452 218 451 l 593 475 q 394 680 589 690 q 268 629 300 676 q 208 447 226 570 z "},"Ĝ":{"ha":885,"x_min":126,"x_max":975,"o":"m 517 1202 q 479 1160 501 1178 q 444 1141 457 1143 q 428 1147 432 1140 q 442 1193 421 1162 l 564 1375 l 594 1414 q 653 1430 635 1458 l 753 1263 q 747 1231 758 1254 q 715 1187 736 1209 q 675 1158 694 1166 q 650 1159 656 1150 l 575 1288 l 517 1202 m 769 149 q 468 -12 635 4 q 288 21 371 -20 q 158 146 204 62 q 107 365 107 239 q 129 545 107 447 q 361 979 190 819 q 617 1105 485 1094 q 775 1072 710 1113 q 894 859 894 996 q 893 831 894 846 q 875 792 892 815 q 840 755 858 768 q 810 738 822 741 q 792 737 799 734 q 788 752 786 741 q 789 772 789 762 q 765 875 789 823 q 688 959 740 926 q 540 993 621 1000 q 381 924 446 985 q 321 846 351 896 q 238 639 264 751 q 213 451 213 527 q 258 252 213 334 q 544 100 351 84 q 706 163 639 109 q 776 265 753 201 q 782 274 778 269 l 801 485 l 472 461 q 461 486 451 459 q 503 547 472 522 q 550 573 535 572 l 894 599 q 908 584 910 600 l 864 112 q 846 72 863 96 q 811 34 829 48 q 782 17 793 21 q 758 30 757 8 l 769 149 z "},"ĝ":{"ha":706,"x_min":36,"x_max":786,"o":"m 406 914 q 368 873 390 891 q 333 854 346 855 q 317 859 321 853 q 331 905 310 874 l 453 1088 l 483 1127 q 542 1143 524 1171 l 642 975 q 636 944 647 966 q 604 900 625 921 q 564 871 583 879 q 539 872 544 863 l 464 1000 l 406 914 m 636 763 q 685 807 664 800 q 718 799 719 820 q 676 247 690 345 q 640 45 665 130 q 559 -123 615 -41 q 428 -249 503 -205 q 276 -298 353 -293 q 61 -220 119 -310 q 66 -188 56 -210 q 97 -145 76 -166 q 138 -116 118 -124 q 164 -116 157 -107 q 354 -186 214 -197 q 492 -121 454 -178 q 567 123 544 -43 q 420 -6 494 28 q 282 -27 346 -39 q 163 421 83 11 q 256 649 189 557 q 535 798 369 806 q 636 763 597 795 m 582 280 q 590 388 592 388 q 586 403 585 391 q 451 685 622 678 q 379 678 410 687 q 322 646 336 666 q 265 483 288 599 q 246 280 243 367 q 368 86 254 108 q 503 130 456 69 q 575 266 539 176 q 582 280 578 273 z "},"Ğ":{"ha":885,"x_min":126,"x_max":975,"o":"m 670 1303 q 672 1316 670 1303 q 691 1353 674 1330 q 726 1390 708 1377 q 755 1407 743 1404 q 772 1406 767 1410 q 776 1391 778 1401 q 724 1251 765 1311 q 538 1133 647 1140 q 396 1287 381 1124 q 414 1327 397 1303 q 449 1365 431 1351 q 478 1382 467 1378 q 501 1369 503 1391 q 615 1245 489 1239 q 656 1253 639 1246 q 670 1303 667 1276 m 769 149 q 468 -12 635 4 q 288 21 371 -20 q 158 146 204 62 q 107 365 107 239 q 129 545 107 447 q 361 979 190 819 q 617 1105 485 1094 q 775 1072 710 1113 q 894 859 894 996 q 893 831 894 846 q 875 792 892 815 q 840 755 858 768 q 810 738 822 741 q 792 737 799 734 q 788 752 786 741 q 789 772 789 762 q 765 875 789 823 q 688 959 740 926 q 540 993 621 1000 q 381 924 446 985 q 321 846 351 896 q 238 639 264 751 q 213 451 213 527 q 258 252 213 334 q 544 100 351 84 q 706 163 639 109 q 776 265 753 201 q 782 274 778 269 l 801 485 l 472 461 q 461 486 451 459 q 503 547 472 522 q 550 573 535 572 l 894 599 q 908 584 910 600 l 864 112 q 846 72 863 96 q 811 34 829 48 q 782 17 793 21 q 758 30 757 8 l 769 149 z "},"ğ":{"ha":706,"x_min":36,"x_max":786,"o":"m 495 1015 q 497 1029 495 1015 q 516 1066 499 1042 q 551 1103 533 1090 q 580 1119 568 1116 q 597 1118 592 1123 q 601 1104 603 1114 q 549 963 590 1024 q 363 846 472 852 q 221 1000 206 836 q 239 1040 222 1015 q 274 1077 256 1064 q 303 1095 292 1091 q 326 1081 328 1104 q 440 958 314 951 q 481 966 464 959 q 495 1015 492 989 m 636 763 q 685 807 664 800 q 718 799 719 820 q 676 247 690 345 q 640 45 665 130 q 559 -123 615 -41 q 428 -249 503 -205 q 276 -298 353 -293 q 61 -220 119 -310 q 66 -188 56 -210 q 97 -145 76 -166 q 138 -116 118 -124 q 164 -116 157 -107 q 354 -186 214 -197 q 492 -121 454 -178 q 567 123 544 -43 q 420 -6 494 28 q 282 -27 346 -39 q 163 421 83 11 q 256 649 189 557 q 535 798 369 806 q 636 763 597 795 m 582 280 q 590 388 592 388 q 586 403 585 391 q 451 685 622 678 q 379 678 410 687 q 322 646 336 666 q 265 483 288 599 q 246 280 243 367 q 368 86 254 108 q 503 130 456 69 q 575 266 539 176 q 582 280 578 273 z "},"Ġ":{"ha":885,"x_min":126,"x_max":975,"o":"m 575 1302 q 644 1216 657 1305 q 550 1125 632 1126 q 489 1214 476 1124 q 575 1302 501 1300 m 769 149 q 468 -12 635 4 q 288 21 371 -20 q 158 146 204 62 q 107 365 107 239 q 129 545 107 447 q 361 979 190 819 q 617 1105 485 1094 q 775 1072 710 1113 q 894 859 894 996 q 893 831 894 846 q 875 792 892 815 q 840 755 858 768 q 810 738 822 741 q 792 737 799 734 q 788 752 786 741 q 789 772 789 762 q 765 875 789 823 q 688 959 740 926 q 540 993 621 1000 q 381 924 446 985 q 321 846 351 896 q 238 639 264 751 q 213 451 213 527 q 258 252 213 334 q 544 100 351 84 q 706 163 639 109 q 776 265 753 201 q 782 274 778 269 l 801 485 l 472 461 q 461 486 451 459 q 503 547 472 522 q 550 573 535 572 l 894 599 q 908 584 910 600 l 864 112 q 846 72 863 96 q 811 34 829 48 q 782 17 793 21 q 758 30 757 8 l 769 149 z "},"ġ":{"ha":706,"x_min":36,"x_max":786,"o":"m 400 1014 q 469 928 482 1017 q 375 837 457 839 q 314 926 301 836 q 400 1014 326 1012 m 636 763 q 685 807 664 800 q 718 799 719 820 q 676 247 690 345 q 640 45 665 130 q 559 -123 615 -41 q 428 -249 503 -205 q 276 -298 353 -293 q 61 -220 119 -310 q 66 -188 56 -210 q 97 -145 76 -166 q 138 -116 118 -124 q 164 -116 157 -107 q 354 -186 214 -197 q 492 -121 454 -178 q 567 123 544 -43 q 420 -6 494 28 q 282 -27 346 -39 q 163 421 83 11 q 256 649 189 557 q 535 798 369 806 q 636 763 597 795 m 582 280 q 590 388 592 388 q 586 403 585 391 q 451 685 622 678 q 379 678 410 687 q 322 646 336 666 q 265 483 288 599 q 246 280 243 367 q 368 86 254 108 q 503 130 456 69 q 575 266 539 176 q 582 280 578 273 z "},"Ģ":{"ha":885,"x_min":126,"x_max":975,"o":"m 428 -98 q 435 -86 428 -98 q 463 -55 442 -75 q 502 -30 485 -35 q 524 -37 519 -25 q 428 -355 567 -206 q 387 -387 407 -377 q 359 -389 367 -397 q 360 -361 351 -381 q 386 -321 369 -340 q 413 -282 403 -303 q 418 -133 443 -212 q 428 -98 415 -120 m 769 149 q 468 -12 635 4 q 288 21 371 -20 q 158 146 204 62 q 107 365 107 239 q 129 545 107 447 q 361 979 190 819 q 617 1105 485 1094 q 775 1072 710 1113 q 894 859 894 996 q 893 831 894 846 q 875 792 892 815 q 840 755 858 768 q 810 738 822 741 q 792 737 799 734 q 788 752 786 741 q 789 772 789 762 q 765 875 789 823 q 688 959 740 926 q 540 993 621 1000 q 381 924 446 985 q 321 846 351 896 q 238 639 264 751 q 213 451 213 527 q 258 252 213 334 q 544 100 351 84 q 706 163 639 109 q 776 265 753 201 q 782 274 778 269 l 801 485 l 472 461 q 461 486 451 459 q 503 547 472 522 q 550 573 535 572 l 894 599 q 908 584 910 600 l 864 112 q 846 72 863 96 q 811 34 829 48 q 782 17 793 21 q 758 30 757 8 l 769 149 z "},"ģ":{"ha":706,"x_min":36,"x_max":786,"o":"m 636 763 q 685 807 664 800 q 718 799 719 820 q 676 247 690 345 q 640 45 665 130 q 559 -123 615 -41 q 428 -249 503 -205 q 276 -298 353 -293 q 61 -220 119 -310 q 66 -188 56 -210 q 97 -145 76 -166 q 138 -116 118 -124 q 164 -116 157 -107 q 354 -186 214 -197 q 492 -121 454 -178 q 567 123 544 -43 q 420 -6 494 28 q 282 -27 346 -39 q 163 421 83 11 q 256 649 189 557 q 535 798 369 806 q 636 763 597 795 m 582 280 q 590 388 592 388 q 586 403 585 391 q 451 685 622 678 q 379 678 410 687 q 322 646 336 666 q 265 483 288 599 q 246 280 243 367 q 368 86 254 108 q 503 130 456 69 q 575 266 539 176 q 582 280 578 273 m 463 775 q 457 764 463 775 q 431 732 451 753 q 391 704 410 712 q 368 708 372 697 q 460 1060 294 877 q 500 1094 479 1083 q 529 1098 521 1105 q 529 1070 538 1091 q 500 1026 521 1049 q 466 973 479 1002 q 451 899 453 943 q 471 809 449 855 q 463 775 475 798 z "},"ĥ":{"ha":713,"x_min":83,"x_max":682,"o":"m 461 1175 l 549 1175 l 636 968 l 578 968 l 500 1115 l 389 968 l 332 968 l 461 1175 m 574 382 q 553 551 583 497 q 435 606 522 606 q 293 550 347 606 q 203 311 217 471 l 175 0 l 83 0 l 167 949 l 258 949 l 224 556 q 460 674 308 674 q 594 638 542 674 q 665 376 682 571 l 632 0 l 540 0 l 574 382 z "},"Ħ":{"ha":938,"x_min":42,"x_max":1043,"o":"m 50 749 q 67 778 54 761 q 101 811 79 796 q 139 828 124 826 l 1022 828 q 1033 800 1043 828 q 992 743 1022 765 q 944 721 960 721 l 61 721 q 50 749 42 722 m 285 964 q 303 1002 286 981 q 338 1036 319 1024 q 367 1051 356 1049 q 390 1036 392 1058 l 350 556 l 792 556 l 826 964 q 844 1001 828 979 q 879 1036 861 1024 q 908 1051 897 1049 q 932 1036 933 1058 l 847 36 q 829 -1 846 21 q 794 -36 813 -24 q 765 -51 776 -49 q 742 -36 740 -58 l 783 450 l 340 450 l 306 36 q 288 -1 304 21 q 253 -36 271 -24 q 224 -51 235 -49 q 200 -36 199 -58 l 285 964 z "},"ħ":{"ha":719,"x_min":15,"x_max":681,"o":"m 25 883 q 42 913 29 896 q 78 946 56 931 q 114 961 100 961 l 464 950 q 475 922 485 950 q 432 865 463 888 q 386 844 400 843 l 36 856 q 25 883 15 857 m 168 1081 q 186 1119 169 1097 q 221 1153 203 1142 q 250 1168 239 1165 q 274 1153 275 1175 l 226 632 q 327 717 269 683 q 443 751 385 751 q 646 425 681 754 l 613 36 q 594 -1 611 21 q 560 -36 578 -24 q 531 -51 542 -49 q 507 -36 506 -58 l 540 353 q 368 646 572 647 q 308 635 328 646 q 218 482 260 607 q 210 464 215 474 l 171 36 q 153 -2 169 21 q 118 -37 136 -25 q 89 -51 100 -49 q 65 -36 64 -58 l 168 1081 z "},"Ĩ":{"ha":343,"x_min":79,"x_max":474,"o":"m 289 1278 q 357 1338 319 1325 q 381 1325 382 1348 q 380 1317 381 1324 q 379 1309 379 1311 q 378 1301 379 1307 q 376 1291 376 1294 q 373 1281 375 1287 q 368 1269 371 1274 q 363 1257 365 1263 q 313 1193 342 1216 q 273 1164 285 1170 q 244 1156 261 1158 q 211 1160 221 1156 l 156 1186 l 99 1209 q 33 1146 69 1162 q 4 1153 6 1134 q 4 1162 4 1153 q 2 1174 3 1170 q 2 1189 1 1178 q 6 1207 3 1199 q 13 1227 8 1215 q 25 1250 18 1239 q 103 1322 57 1294 q 141 1333 125 1335 q 159 1332 157 1332 q 163 1331 161 1332 l 247 1297 l 289 1278 m 185 980 q 203 1020 186 997 q 238 1057 219 1043 q 267 1075 256 1071 q 290 1061 292 1084 l 206 54 q 188 15 204 39 q 153 -23 171 -9 q 124 -41 135 -37 q 100 -27 99 -50 l 185 980 z "},"ĩ":{"ha":264,"x_min":38,"x_max":432,"o":"m 247 991 q 315 1051 278 1038 q 339 1038 340 1060 q 338 1030 339 1036 q 338 1022 338 1024 q 336 1013 338 1019 q 334 1003 335 1007 q 331 993 333 1000 q 326 981 329 987 q 321 969 324 975 q 272 905 300 929 q 231 876 243 882 q 203 869 219 870 q 169 873 179 868 l 114 899 l 57 921 q -8 859 28 874 q -37 866 -36 847 q -37 874 -37 866 q -40 887 -39 882 q -40 901 -40 891 q -36 919 -39 912 q -28 940 -33 927 q -17 962 -24 952 q 61 1034 15 1007 q 99 1046 83 1047 q 117 1045 115 1045 q 121 1044 119 1045 l 206 1009 l 247 991 m 150 677 q 168 716 151 692 q 203 753 185 740 q 233 770 221 767 q 256 757 258 778 l 182 51 q 164 11 181 34 q 129 -26 147 -12 q 99 -43 111 -39 q 76 -28 74 -51 l 150 677 z "},"Ī":{"ha":343,"x_min":93,"x_max":550,"o":"m 54 1138 q 71 1170 58 1151 q 106 1206 83 1189 q 143 1225 128 1223 l 446 1251 q 457 1226 467 1253 q 415 1165 446 1190 q 368 1139 383 1140 l 65 1112 q 54 1138 46 1111 m 185 980 q 203 1020 186 997 q 238 1057 219 1043 q 267 1075 256 1071 q 290 1061 292 1084 l 206 54 q 188 15 204 39 q 153 -23 171 -9 q 124 -41 135 -37 q 100 -27 99 -50 l 185 980 z "},"ī":{"ha":264,"x_min":68,"x_max":510,"o":"m 14 850 q 31 882 18 863 q 65 919 43 901 q 103 937 88 936 l 406 964 q 417 938 426 965 q 374 878 406 903 q 328 851 343 853 l 25 825 q 14 850 6 823 m 150 677 q 168 716 151 692 q 203 753 185 740 q 233 770 221 767 q 256 757 258 778 l 182 51 q 164 11 181 34 q 129 -26 147 -12 q 99 -43 111 -39 q 76 -28 74 -51 l 150 677 z "},"Ĭ":{"ha":343,"x_min":93,"x_max":551,"o":"m 349 1303 q 351 1316 349 1303 q 370 1353 353 1330 q 405 1390 388 1377 q 434 1407 422 1404 q 451 1406 446 1410 q 456 1391 457 1401 q 403 1251 444 1311 q 217 1133 326 1140 q 75 1287 60 1124 q 93 1327 76 1303 q 128 1365 110 1351 q 157 1382 146 1378 q 181 1369 182 1391 q 294 1245 168 1239 q 335 1253 318 1246 q 349 1303 346 1276 m 185 980 q 203 1020 186 997 q 238 1057 219 1043 q 267 1075 256 1071 q 290 1061 292 1084 l 206 54 q 188 15 204 39 q 153 -23 171 -9 q 124 -41 135 -37 q 100 -27 99 -50 l 185 980 z "},"ĭ":{"ha":264,"x_min":68,"x_max":511,"o":"m 309 1015 q 311 1029 309 1015 q 330 1066 313 1042 q 365 1103 347 1090 q 394 1119 382 1116 q 411 1118 406 1123 q 415 1104 417 1114 q 363 963 404 1024 q 176 846 286 852 q 35 1000 19 836 q 53 1040 36 1015 q 88 1077 69 1064 q 117 1095 106 1091 q 140 1081 142 1104 q 254 958 128 951 q 294 966 278 959 q 309 1015 306 989 m 150 677 q 168 716 151 692 q 203 753 185 740 q 233 770 221 767 q 256 757 258 778 l 182 51 q 164 11 181 34 q 129 -26 147 -12 q 99 -43 111 -39 q 76 -28 74 -51 l 150 677 z "},"Į":{"ha":343,"x_min":-21,"x_max":385,"o":"m 226 -157 q 210 -188 224 -170 q 176 -225 197 -207 q 138 -245 154 -243 q 33 -237 65 -256 q 14 -159 0 -217 q 119 34 40 -64 q 159 70 138 56 q 192 79 181 83 q 197 56 203 76 q 163 1 192 36 q 117 -92 133 -35 q 133 -128 111 -116 q 213 -133 154 -141 q 226 -157 233 -130 m 185 980 q 203 1020 186 997 q 238 1057 219 1043 q 267 1075 256 1071 q 290 1061 292 1084 l 206 54 q 188 15 204 39 q 153 -23 171 -9 q 124 -41 135 -37 q 100 -27 99 -50 l 185 980 z "},"į":{"ha":264,"x_min":-39,"x_max":351,"o":"m 208 -157 q 192 -188 206 -170 q 158 -225 179 -207 q 119 -245 136 -243 q 15 -237 47 -256 q -4 -159 -18 -217 q 101 34 22 -64 q 141 70 119 56 q 174 79 163 83 q 179 56 185 76 q 144 1 174 36 q 99 -92 115 -35 q 115 -128 93 -116 q 194 -133 136 -141 q 208 -157 215 -130 m 150 677 q 168 716 151 692 q 203 753 185 740 q 233 770 221 767 q 256 757 258 778 l 182 51 q 164 11 181 34 q 129 -26 147 -12 q 99 -43 111 -39 q 76 -28 74 -51 l 150 677 m 157 917 q 174 956 158 932 q 208 993 190 979 q 239 1011 226 1007 q 263 998 264 1020 l 256 900 q 238 861 254 885 q 204 823 222 837 q 174 805 186 809 q 150 819 149 796 l 157 917 z "},"İ":{"ha":343,"x_min":93,"x_max":429,"o":"m 253 1302 q 322 1216 335 1305 q 228 1125 310 1126 q 167 1214 154 1124 q 253 1302 179 1300 m 185 980 q 203 1020 186 997 q 238 1057 219 1043 q 267 1075 256 1071 q 290 1061 292 1084 l 206 54 q 188 15 204 39 q 153 -23 171 -9 q 124 -41 135 -37 q 100 -27 99 -50 l 185 980 z "},"ı":{"ha":264,"x_min":74,"x_max":258,"o":"m 150 664 q 168 701 151 679 q 203 735 185 724 q 233 750 221 747 q 256 735 258 756 l 182 35 q 164 -3 181 18 q 129 -37 147 -25 q 99 -51 111 -49 q 76 -35 74 -57 l 150 664 z "},"Ĳ":{"ha":915,"x_min":46,"x_max":1000,"o":"m 581 1016 q 599 1055 582 1031 q 634 1092 617 1079 q 663 1109 651 1106 q 681 1110 675 1113 q 686 1095 688 1106 l 597 293 q 538 123 588 196 q 286 -28 444 -15 q 42 173 51 -47 q 56 210 42 187 q 89 249 71 234 q 119 269 107 264 q 147 260 146 281 q 364 85 157 68 q 463 114 435 91 q 480 156 471 125 q 492 214 489 187 l 581 1016 m 800 980 q 818 1020 801 997 q 853 1057 835 1043 q 882 1075 871 1071 q 906 1061 907 1084 l 821 54 q 803 15 819 39 q 768 -23 786 -9 q 739 -41 750 -37 q 715 -27 714 -50 l 800 980 z "},"ĳ":{"ha":574,"x_min":68,"x_max":814,"o":"m 150 677 q 168 716 151 692 q 203 753 185 740 q 233 770 221 767 q 256 757 258 778 l 182 51 q 164 11 181 34 q 129 -26 147 -12 q 99 -43 111 -39 q 76 -28 74 -51 l 150 677 m 157 917 q 174 956 158 932 q 208 993 190 979 q 239 1011 226 1007 q 263 998 264 1020 l 256 900 q 238 861 254 885 q 204 823 222 837 q 174 805 186 809 q 150 819 149 796 l 157 917 m 300 -132 q 304 -121 300 -132 q 328 -89 308 -111 q 369 -57 349 -68 q 397 -54 389 -46 q 513 -113 464 -112 q 531 9 524 -68 l 603 769 q 621 808 604 785 q 656 845 638 831 q 685 863 674 859 q 708 849 710 872 l 636 91 q 633 47 636 84 q 629 -1 631 10 q 622 -41 628 -11 q 607 -87 615 -71 q 485 -215 558 -180 q 433 -231 454 -229 q 385 -220 413 -233 q 300 -159 350 -204 q 300 -132 292 -152 m 615 974 q 633 1013 617 989 q 667 1051 649 1036 q 697 1068 685 1065 q 721 1055 722 1078 l 714 957 q 697 918 713 942 q 663 881 681 895 q 632 863 644 867 q 608 876 607 854 l 615 974 z "},"Ĵ":{"ha":672,"x_min":46,"x_max":878,"o":"m 581 1016 q 599 1055 582 1031 q 634 1092 617 1079 q 663 1109 651 1106 q 681 1110 675 1113 q 686 1095 688 1106 l 597 293 q 538 123 588 196 q 286 -28 444 -15 q 42 173 51 -47 q 56 210 42 187 q 89 249 71 234 q 119 269 107 264 q 147 260 146 281 q 364 85 157 68 q 463 114 435 91 q 480 156 471 125 q 492 214 489 187 l 581 1016 m 556 1159 q 518 1117 540 1135 q 483 1098 496 1099 q 467 1104 471 1097 q 481 1150 460 1119 l 603 1332 l 633 1371 q 692 1387 674 1415 l 792 1220 q 786 1188 797 1211 q 754 1144 775 1166 q 714 1115 733 1123 q 689 1116 694 1107 l 614 1245 l 556 1159 z "},"ĵ":{"ha":453,"x_min":14,"x_max":556,"o":"m 233 914 q 196 873 218 891 q 161 854 174 855 q 144 859 149 853 q 158 905 138 874 l 281 1088 l 311 1127 q 369 1143 351 1171 l 469 975 q 464 944 475 966 q 432 900 453 921 q 392 871 411 879 q 367 872 372 863 l 292 1000 l 233 914 m 36 -132 q 40 -121 36 -132 q 65 -89 44 -111 q 105 -57 85 -68 q 133 -54 125 -46 q 249 -113 200 -112 q 267 9 260 -68 l 339 769 q 357 808 340 785 q 392 845 374 831 q 421 863 410 859 q 444 849 446 872 l 372 91 q 369 47 372 84 q 365 -1 367 10 q 358 -41 364 -11 q 343 -87 351 -71 q 221 -215 294 -180 q 169 -231 190 -229 q 121 -220 149 -233 q 36 -159 86 -204 q 36 -132 28 -152 z "},"Ķ":{"ha":806,"x_min":33,"x_max":850,"o":"m 427 -82 q 434 -71 427 -82 q 462 -40 440 -60 q 501 -15 483 -20 q 522 -22 518 -10 q 426 -340 565 -190 q 385 -371 406 -361 q 358 -374 365 -381 q 359 -345 350 -366 q 385 -306 368 -324 q 411 -266 401 -288 q 417 -117 442 -197 q 427 -82 414 -105 m 129 975 q 147 1016 131 992 q 182 1053 164 1039 q 211 1070 200 1066 q 235 1057 236 1079 l 183 473 l 675 1072 q 715 1108 693 1094 q 747 1117 736 1121 q 753 1094 758 1114 q 728 1051 747 1075 l 419 676 l 736 110 q 731 78 742 101 q 699 35 719 56 q 658 7 678 15 q 633 10 639 -1 l 325 560 l 175 378 l 146 49 q 128 10 144 33 q 93 -28 111 -14 q 64 -46 75 -42 q 40 -33 39 -55 l 129 975 z "},"ķ":{"ha":688,"x_min":64,"x_max":736,"o":"m 348 -82 q 355 -71 348 -82 q 383 -40 361 -60 q 422 -15 404 -20 q 443 -22 439 -10 q 347 -340 486 -190 q 306 -371 326 -361 q 278 -374 286 -381 q 280 -345 271 -366 q 306 -306 289 -324 q 332 -266 322 -288 q 338 -117 363 -197 q 348 -82 335 -105 m 174 1096 q 192 1136 175 1113 q 226 1173 208 1160 q 256 1190 244 1187 q 279 1177 281 1200 l 208 403 l 606 781 q 644 807 626 801 q 667 802 663 814 q 659 768 671 791 q 625 725 647 745 l 365 478 l 651 104 q 649 74 658 95 q 618 32 639 53 q 578 1 597 11 q 551 1 558 -8 l 263 379 q 261 380 263 379 l 201 322 l 176 52 q 158 12 175 36 q 124 -26 142 -13 q 94 -43 106 -39 q 71 -30 69 -52 l 174 1096 z "},"ĸ":{"ha":650,"x_min":72,"x_max":694,"o":"m 133 636 q 151 674 135 653 q 186 708 168 696 q 215 724 204 721 q 239 708 240 731 l 203 299 l 624 686 q 663 712 644 706 q 688 708 682 718 q 683 676 694 697 q 651 636 672 656 l 433 436 l 649 46 q 643 15 654 36 q 611 -25 632 -6 q 571 -51 590 -44 q 546 -46 551 -57 l 332 342 l 196 217 l 179 36 q 161 -1 178 21 q 126 -36 144 -24 q 97 -51 108 -49 q 74 -36 72 -58 l 133 636 z "},"Ĺ":{"ha":751,"x_min":71,"x_max":788,"o":"m 634 1348 q 645 1358 634 1348 q 673 1373 656 1368 q 694 1366 690 1378 q 683 1330 697 1354 q 540 1140 618 1217 q 500 1111 519 1119 q 475 1113 481 1103 q 481 1145 469 1122 q 524 1199 492 1167 q 600 1306 556 1231 q 634 1348 613 1328 m 92 -45 q 78 -29 76 -46 l 163 978 q 181 1017 164 994 q 215 1055 197 1041 q 244 1073 233 1069 q 268 1060 269 1082 l 185 69 l 674 112 q 685 86 694 114 q 642 26 674 51 q 596 -1 611 1 l 92 -45 z "},"ĺ":{"ha":257,"x_min":64,"x_max":564,"o":"m 410 1337 q 421 1347 410 1337 q 449 1362 432 1357 q 470 1355 467 1367 q 460 1319 474 1342 q 317 1129 394 1206 q 276 1099 296 1107 q 251 1101 257 1092 q 257 1134 246 1111 q 300 1188 268 1156 q 376 1295 332 1220 q 410 1337 389 1317 m 174 1096 q 192 1136 175 1113 q 226 1173 208 1160 q 256 1190 244 1187 q 279 1177 281 1200 l 176 52 q 158 12 175 36 q 124 -26 142 -13 q 94 -43 106 -39 q 71 -30 69 -52 l 174 1096 z "},"Ļ":{"ha":751,"x_min":71,"x_max":700,"o":"m 338 -82 q 345 -71 338 -82 q 373 -40 351 -60 q 412 -15 394 -20 q 433 -22 429 -10 q 338 -340 476 -190 q 297 -371 317 -361 q 269 -374 276 -381 q 270 -345 261 -366 q 296 -306 279 -324 q 322 -266 313 -288 q 328 -117 353 -197 q 338 -82 325 -105 m 92 -45 q 78 -29 76 -46 l 163 978 q 181 1017 164 994 q 215 1055 197 1041 q 244 1073 233 1069 q 268 1060 269 1082 l 185 69 l 674 112 q 685 86 694 114 q 642 26 674 51 q 596 -1 611 1 l 92 -45 z "},"ļ":{"ha":257,"x_min":-32,"x_max":383,"o":"m 72 -82 q 78 -71 72 -82 q 106 -40 85 -60 q 145 -15 128 -20 q 167 -22 163 -10 q 71 -340 210 -190 q 30 -371 50 -361 q 2 -374 10 -381 q 3 -345 -6 -366 q 29 -306 13 -324 q 56 -266 46 -288 q 61 -117 86 -197 q 72 -82 58 -105 m 174 1096 q 192 1136 175 1113 q 226 1173 208 1160 q 256 1190 244 1187 q 279 1177 281 1200 l 176 52 q 158 12 175 36 q 124 -26 142 -13 q 94 -43 106 -39 q 71 -30 69 -52 l 174 1096 z "},"Ľ":{"ha":751,"x_min":71,"x_max":1050,"o":"m 880 951 q 886 962 880 951 q 913 994 892 974 q 952 1022 933 1015 q 975 1018 971 1029 q 883 666 1049 850 q 843 633 864 643 q 814 629 822 622 q 814 656 806 636 q 843 700 822 677 q 877 754 864 724 q 892 827 890 783 q 872 918 894 871 q 880 951 868 928 m 92 -45 q 78 -29 76 -46 l 163 978 q 181 1017 164 994 q 215 1055 197 1041 q 244 1073 233 1069 q 268 1060 269 1082 l 185 69 l 674 112 q 685 86 694 114 q 642 26 674 51 q 596 -1 611 1 l 92 -45 z "},"ľ":{"ha":257,"x_min":64,"x_max":583,"o":"m 413 940 q 419 951 413 940 q 446 983 425 962 q 485 1011 467 1004 q 508 1007 504 1018 q 417 655 582 839 q 376 621 397 632 q 347 617 356 611 q 347 645 339 624 q 376 689 356 666 q 410 742 397 713 q 426 816 424 772 q 406 907 428 860 q 413 940 401 917 m 174 1096 q 192 1136 175 1113 q 226 1173 208 1160 q 256 1190 244 1187 q 279 1177 281 1200 l 176 52 q 158 12 175 36 q 124 -26 142 -13 q 94 -43 106 -39 q 71 -30 69 -52 l 174 1096 z "},"Ŀ":{"ha":751,"x_min":71,"x_max":700,"o":"m 336 526 q 354 567 338 543 q 389 604 371 591 q 418 621 407 617 q 442 608 443 630 l 428 465 q 410 424 426 448 q 375 387 393 401 q 346 370 357 374 q 322 384 321 361 l 336 526 m 92 -45 q 78 -29 76 -46 l 163 978 q 181 1017 164 994 q 215 1055 197 1041 q 244 1073 233 1069 q 268 1060 269 1082 l 185 69 l 674 112 q 685 86 694 114 q 642 26 674 51 q 596 -1 611 1 l 92 -45 z "},"ŀ":{"ha":550,"x_min":64,"x_max":538,"o":"m 382 465 q 400 506 383 482 q 435 543 417 529 q 464 560 453 556 q 488 547 489 569 l 474 404 q 456 363 472 387 q 421 326 439 340 q 392 309 403 313 q 368 322 367 300 l 382 465 m 174 1096 q 192 1136 175 1113 q 226 1173 208 1160 q 256 1190 244 1187 q 279 1177 281 1200 l 176 52 q 158 12 175 36 q 124 -26 142 -13 q 94 -43 106 -39 q 71 -30 69 -52 l 174 1096 z "},"Ł":{"ha":679,"x_min":-14,"x_max":722,"o":"m 171 911 q 189 950 172 928 q 224 984 206 972 q 253 999 242 996 q 276 983 278 1006 l 239 592 l 415 672 q 444 674 436 682 q 445 647 453 667 q 417 607 438 628 q 376 578 397 586 l 231 511 l 186 53 l 701 53 q 713 26 722 53 q 670 -31 701 -8 q 624 -53 639 -53 l 93 -53 q 79 -36 76 -53 l 128 464 l 24 417 q -6 415 3 407 q -6 442 -14 422 q 22 482 1 461 q 63 511 42 503 l 135 546 l 171 911 z "},"ł":{"ha":272,"x_min":-35,"x_max":415,"o":"m -24 404 q -29 407 -24 404 q -29 428 -35 410 q -4 468 -24 446 q 36 501 15 489 l 372 682 q 404 688 393 693 q 410 664 415 682 q 385 624 404 646 q 344 590 365 603 l 8 410 q -24 404 -12 399 m 174 1081 q 192 1119 175 1097 q 226 1153 208 1142 q 256 1168 244 1165 q 279 1153 281 1175 l 176 36 q 158 -2 175 21 q 124 -37 142 -25 q 94 -51 106 -49 q 71 -36 69 -58 l 174 1081 z "},"Ń":{"ha":843,"x_min":68,"x_max":953,"o":"m 630 1369 q 641 1379 630 1369 q 669 1394 651 1389 q 690 1387 686 1399 q 679 1351 693 1374 q 536 1161 614 1238 q 496 1131 515 1139 q 471 1133 476 1123 q 476 1166 465 1143 q 519 1220 488 1188 q 596 1327 551 1252 q 630 1369 608 1349 m 181 52 q 163 11 179 35 q 128 -26 146 -12 q 99 -43 110 -39 q 75 -30 74 -52 l 172 979 q 248 1064 225 1049 q 276 1070 271 1079 l 688 273 l 753 1030 q 771 1070 754 1045 q 806 1107 788 1094 q 835 1124 824 1121 q 858 1111 860 1134 l 771 104 q 743 64 769 87 q 692 27 717 40 l 667 12 l 254 814 l 181 52 z "},"ń":{"ha":697,"x_min":68,"x_max":758,"o":"m 497 1074 q 507 1084 497 1074 q 535 1099 518 1094 q 556 1092 553 1104 q 546 1056 560 1080 q 403 866 481 944 q 363 837 382 845 q 338 839 343 829 q 343 871 332 849 q 386 926 354 894 q 463 1033 418 958 q 497 1074 475 1054 m 150 677 q 168 716 151 692 q 203 753 185 740 q 233 770 221 767 q 256 757 258 778 l 246 665 q 340 749 285 712 q 454 791 396 786 q 657 482 692 815 l 624 91 q 606 52 622 75 q 571 14 589 28 q 542 -4 553 0 q 518 9 517 -13 l 551 401 q 379 679 583 698 q 319 663 339 675 q 229 502 271 631 q 229 498 229 501 l 182 51 q 164 11 181 34 q 129 -26 147 -12 q 99 -43 111 -39 q 76 -28 74 -51 l 150 677 z "},"Ņ":{"ha":843,"x_min":68,"x_max":953,"o":"m 453 -82 q 460 -71 453 -82 q 488 -40 467 -60 q 527 -15 510 -20 q 549 -22 544 -10 q 453 -340 592 -190 q 412 -371 432 -361 q 384 -374 392 -381 q 385 -345 376 -366 q 411 -306 394 -324 q 438 -266 428 -288 q 443 -117 468 -197 q 453 -82 440 -105 m 181 52 q 163 11 179 35 q 128 -26 146 -12 q 99 -43 110 -39 q 75 -30 74 -52 l 172 979 q 248 1064 225 1049 q 276 1070 271 1079 l 688 273 l 753 1030 q 771 1070 754 1045 q 806 1107 788 1094 q 835 1124 824 1121 q 858 1111 860 1134 l 771 104 q 743 64 769 87 q 692 27 717 40 l 667 12 l 254 814 l 181 52 z "},"ņ":{"ha":697,"x_min":68,"x_max":758,"o":"m 347 -82 q 353 -71 347 -82 q 381 -40 360 -60 q 420 -15 403 -20 q 442 -22 438 -10 q 346 -340 485 -190 q 305 -371 325 -361 q 277 -374 285 -381 q 278 -345 269 -366 q 304 -306 288 -324 q 331 -266 321 -288 q 336 -117 361 -197 q 347 -82 333 -105 m 150 677 q 168 716 151 692 q 203 753 185 740 q 233 770 221 767 q 256 757 258 778 l 246 665 q 340 749 285 712 q 454 791 396 786 q 657 482 692 815 l 624 91 q 606 52 622 75 q 571 14 589 28 q 542 -4 553 0 q 518 9 517 -13 l 551 401 q 379 679 583 698 q 319 663 339 675 q 229 502 271 631 q 229 498 229 501 l 182 51 q 164 11 181 34 q 129 -26 147 -12 q 99 -43 111 -39 q 76 -28 74 -51 l 150 677 z "},"Ň":{"ha":843,"x_min":68,"x_max":953,"o":"m 417 1353 q 422 1365 417 1353 q 448 1397 428 1376 q 488 1426 468 1418 q 514 1425 507 1434 l 599 1290 l 672 1393 q 710 1434 689 1417 q 744 1452 732 1451 q 758 1444 756 1452 q 742 1396 764 1428 l 606 1203 q 519 1149 542 1111 l 411 1322 q 417 1353 406 1331 m 181 52 q 163 11 179 35 q 128 -26 146 -12 q 99 -43 110 -39 q 75 -30 74 -52 l 172 979 q 248 1064 225 1049 q 276 1070 271 1079 l 688 273 l 753 1030 q 771 1070 754 1045 q 806 1107 788 1094 q 835 1124 824 1121 q 858 1111 860 1134 l 771 104 q 743 64 769 87 q 692 27 717 40 l 667 12 l 254 814 l 181 52 z "},"ň":{"ha":697,"x_min":68,"x_max":758,"o":"m 285 1066 q 290 1077 285 1066 q 316 1110 296 1088 q 356 1139 336 1131 q 382 1138 375 1147 l 467 1002 l 540 1106 q 578 1147 557 1129 q 612 1164 600 1164 q 626 1156 624 1164 q 610 1109 632 1140 l 474 915 q 388 862 410 823 l 279 1034 q 285 1066 274 1043 m 150 677 q 168 716 151 692 q 203 753 185 740 q 233 770 221 767 q 256 757 258 778 l 246 665 q 340 749 285 712 q 454 791 396 786 q 657 482 692 815 l 624 91 q 606 52 622 75 q 571 14 589 28 q 542 -4 553 0 q 518 9 517 -13 l 551 401 q 379 679 583 698 q 319 663 339 675 q 229 502 271 631 q 229 498 229 501 l 182 51 q 164 11 181 34 q 129 -26 147 -12 q 99 -43 111 -39 q 76 -28 74 -51 l 150 677 z "},"Ō":{"ha":935,"x_min":53,"x_max":1056,"o":"m 367 1138 q 383 1170 371 1151 q 418 1206 396 1189 q 456 1225 440 1223 l 758 1251 q 769 1226 779 1253 q 727 1165 758 1190 q 681 1139 696 1140 l 378 1112 q 367 1138 358 1111 m 600 1105 q 911 584 964 1126 q 788 199 888 346 q 422 -16 647 -3 q 106 463 57 -37 q 149 701 118 598 q 242 889 181 803 q 600 1105 382 1093 m 522 993 q 313 894 375 984 q 251 754 279 845 q 211 545 222 662 q 500 97 165 78 q 715 195 653 104 q 771 320 746 239 q 806 502 796 400 q 522 993 856 1011 z "},"ō":{"ha":747,"x_min":53,"x_max":819,"o":"m 256 850 q 272 882 260 863 q 307 919 285 901 q 344 937 329 936 l 647 964 q 658 938 668 965 q 616 878 647 903 q 569 851 585 853 l 267 825 q 256 850 247 823 m 500 795 q 706 395 756 795 q 613 133 685 235 q 336 -23 501 -24 q 99 317 56 -23 q 135 488 111 414 q 208 629 160 563 q 500 795 326 795 m 419 683 q 276 630 314 683 q 235 539 256 602 q 204 396 214 477 q 417 89 165 89 q 543 132 513 89 q 575 204 558 154 q 600 316 592 253 q 419 683 647 683 z "},"Ŏ":{"ha":935,"x_min":53,"x_max":1056,"o":"m 662 1303 q 664 1316 662 1303 q 683 1353 665 1330 q 717 1390 700 1377 q 747 1407 735 1404 q 764 1406 758 1410 q 768 1391 769 1401 q 715 1251 757 1311 q 529 1133 639 1140 q 388 1287 372 1124 q 406 1327 389 1303 q 440 1365 422 1351 q 469 1382 458 1378 q 493 1369 494 1391 q 607 1245 481 1239 q 647 1253 631 1246 q 662 1303 658 1276 m 600 1105 q 911 584 964 1126 q 788 199 888 346 q 422 -16 647 -3 q 106 463 57 -37 q 149 701 118 598 q 242 889 181 803 q 600 1105 382 1093 m 522 993 q 313 894 375 984 q 251 754 279 845 q 211 545 222 662 q 500 97 165 78 q 715 195 653 104 q 771 320 746 239 q 806 502 796 400 q 522 993 856 1011 z "},"ŏ":{"ha":747,"x_min":53,"x_max":819,"o":"m 551 1015 q 552 1029 551 1015 q 572 1066 554 1042 q 606 1103 589 1090 q 635 1119 624 1116 q 653 1118 647 1123 q 657 1104 658 1114 q 604 963 646 1024 q 418 846 528 852 q 276 1000 261 836 q 294 1040 278 1015 q 329 1077 311 1064 q 358 1095 347 1091 q 382 1081 383 1104 q 496 958 369 951 q 536 966 519 959 q 551 1015 547 989 m 500 795 q 706 395 756 795 q 613 133 685 235 q 336 -23 501 -24 q 99 317 56 -23 q 135 488 111 414 q 208 629 160 563 q 500 795 326 795 m 419 683 q 276 630 314 683 q 235 539 256 602 q 204 396 214 477 q 417 89 165 89 q 543 132 513 89 q 575 204 558 154 q 600 316 592 253 q 419 683 647 683 z "},"Ő":{"ha":935,"x_min":53,"x_max":1056,"o":"m 565 1406 q 576 1416 565 1406 q 605 1435 586 1427 q 630 1433 624 1443 q 625 1401 636 1423 l 531 1208 q 499 1165 519 1186 q 459 1136 478 1144 q 434 1138 440 1128 q 439 1170 428 1148 l 533 1363 q 565 1406 544 1384 m 760 1421 q 771 1432 760 1421 q 801 1451 782 1443 q 827 1451 821 1460 q 824 1420 833 1442 l 726 1216 q 695 1173 717 1194 q 654 1143 674 1151 q 628 1143 635 1134 q 632 1174 622 1152 l 729 1378 q 760 1421 739 1400 m 600 1105 q 911 584 964 1126 q 788 199 888 346 q 422 -16 647 -3 q 106 463 57 -37 q 149 701 118 598 q 242 889 181 803 q 600 1105 382 1093 m 522 993 q 313 894 375 984 q 251 754 279 845 q 211 545 222 662 q 500 97 165 78 q 715 195 653 104 q 771 320 746 239 q 806 502 796 400 q 522 993 856 1011 z "},"ő":{"ha":747,"x_min":53,"x_max":819,"o":"m 454 1118 q 465 1129 454 1118 q 494 1147 475 1140 q 519 1145 513 1155 q 514 1114 525 1136 l 419 921 q 388 878 408 899 q 348 849 367 856 q 323 851 329 841 q 328 882 317 860 l 422 1075 q 454 1118 433 1097 m 649 1134 q 660 1145 649 1134 q 690 1164 671 1155 q 716 1163 710 1173 q 713 1132 722 1154 l 615 928 q 584 885 606 906 q 543 855 563 864 q 517 856 524 847 q 521 887 511 865 l 618 1091 q 649 1134 628 1113 m 500 795 q 706 395 756 795 q 613 133 685 235 q 336 -23 501 -24 q 99 317 56 -23 q 135 488 111 414 q 208 629 160 563 q 500 795 326 795 m 419 683 q 276 630 314 683 q 235 539 256 602 q 204 396 214 477 q 417 89 165 89 q 543 132 513 89 q 575 204 558 154 q 600 316 592 253 q 419 683 647 683 z "},"Œ":{"ha":1399,"x_min":57,"x_max":1507,"o":"m 1493 1060 q 1507 1046 1507 1060 q 1491 1008 1507 1031 q 1453 970 1475 986 q 1415 954 1431 954 l 947 954 l 914 565 q 1388 565 1150 565 q 1399 539 1408 565 q 1356 482 1388 504 q 1310 460 1325 460 q 904 460 1107 460 l 871 60 q 1406 60 1138 60 q 1417 33 1426 60 q 1374 -24 1406 -1 q 1328 -46 1343 -46 l 782 -46 q 767 -42 772 -47 q 764 -26 763 -37 l 849 971 q 867 1010 850 986 q 931 1058 897 1050 q 940 1060 938 1060 q 946 1060 943 1060 l 1493 1060 m 600 1053 q 911 504 964 1042 q 788 131 888 268 q 422 -53 647 -60 q 106 454 57 -42 q 149 688 118 588 q 242 868 181 788 q 600 1053 382 1060 m 522 947 q 313 867 375 951 q 251 732 279 821 q 211 526 222 643 q 500 53 165 64 q 715 132 653 47 q 771 252 746 174 q 806 432 796 331 q 522 947 856 936 z "},"œ":{"ha":1210,"x_min":56,"x_max":1243,"o":"m 706 325 q 929 53 700 68 q 1017 56 978 49 q 1072 75 1067 64 q 1105 115 1083 96 q 1144 141 1126 135 q 1169 136 1163 147 q 1143 71 1179 118 q 1069 -3 1107 24 q 994 -40 1031 -31 q 849 -53 914 -62 q 603 293 575 -35 q 633 469 611 394 q 704 608 656 543 q 981 751 815 758 q 1200 403 1243 742 q 1144 324 1188 347 q 1108 315 1128 314 l 706 325 m 715 429 q 731 432 725 432 l 1100 424 q 901 646 1096 639 q 775 606 807 650 q 715 429 733 550 m 500 751 q 706 333 756 729 q 613 79 685 175 q 336 -53 501 -68 q 99 308 56 -28 q 135 476 111 404 q 208 611 160 549 q 500 751 326 767 m 419 646 q 276 606 314 656 q 235 519 256 579 q 204 378 214 458 q 417 53 165 75 q 543 85 513 44 q 575 153 558 106 q 600 264 592 201 q 419 646 647 626 m 500 751 q 706 333 756 729 q 613 79 685 175 q 336 -53 501 -68 q 99 308 56 -28 q 135 476 111 404 q 208 611 160 549 q 500 751 326 767 m 419 646 q 276 606 314 656 q 235 519 256 579 q 204 378 214 458 q 417 53 165 75 q 543 85 513 44 q 575 153 558 106 q 600 264 592 201 q 419 646 647 626 z "},"Ŕ":{"ha":829,"x_min":71,"x_max":856,"o":"m 517 1377 q 528 1387 517 1377 q 556 1402 539 1397 q 577 1395 574 1407 q 567 1359 581 1383 q 424 1169 501 1247 q 383 1140 403 1148 q 358 1142 364 1132 q 364 1174 353 1152 q 407 1229 375 1197 q 483 1335 439 1261 q 517 1377 496 1357 m 443 398 q 301 361 361 366 q 208 356 240 356 l 183 52 q 165 13 182 37 q 131 -25 149 -11 q 101 -43 113 -39 q 78 -29 76 -52 l 163 978 q 181 1019 164 994 q 250 1075 215 1067 q 419 1123 332 1115 q 582 1102 506 1130 q 731 989 682 1065 q 781 825 781 913 q 626 515 781 660 q 563 463 596 485 l 718 109 q 710 75 722 98 q 678 32 699 53 q 638 4 657 12 q 615 8 619 -3 l 443 398 m 529 519 q 675 740 675 590 q 630 887 675 816 q 503 988 585 958 q 340 1010 421 1017 q 263 995 300 1007 l 219 475 q 496 504 364 453 q 529 519 515 519 z "},"ŕ":{"ha":443,"x_min":68,"x_max":624,"o":"m 470 1060 q 481 1070 470 1060 q 509 1085 492 1080 q 530 1078 526 1090 q 519 1043 533 1066 q 376 852 454 930 q 336 823 356 831 q 311 825 317 815 q 317 857 306 835 q 360 912 328 880 q 436 1019 392 944 q 470 1060 449 1041 m 150 677 q 168 716 151 692 q 203 753 185 740 q 233 770 221 767 q 256 757 258 778 l 249 695 q 469 792 356 795 q 479 764 489 791 q 433 703 465 727 q 389 680 401 680 q 268 640 318 682 q 235 552 244 620 l 182 51 q 164 11 181 34 q 129 -26 147 -12 q 99 -43 111 -39 q 76 -28 74 -51 l 128 463 q 129 474 128 465 l 150 677 z "},"Ŗ":{"ha":829,"x_min":71,"x_max":856,"o":"m 424 -82 q 431 -71 424 -82 q 459 -40 438 -60 q 498 -15 481 -20 q 519 -22 515 -10 q 424 -340 563 -190 q 383 -371 403 -361 q 355 -374 363 -381 q 356 -345 347 -366 q 382 -306 365 -324 q 408 -266 399 -288 q 414 -117 439 -197 q 424 -82 411 -105 m 443 398 q 301 361 361 366 q 208 356 240 356 l 183 52 q 165 13 182 37 q 131 -25 149 -11 q 101 -43 113 -39 q 78 -29 76 -52 l 163 978 q 181 1019 164 994 q 250 1075 215 1067 q 419 1123 332 1115 q 582 1102 506 1130 q 731 989 682 1065 q 781 825 781 913 q 626 515 781 660 q 563 463 596 485 l 718 109 q 710 75 722 98 q 678 32 699 53 q 638 4 657 12 q 615 8 619 -3 l 443 398 m 529 519 q 675 740 675 590 q 630 887 675 816 q 503 988 585 958 q 340 1010 421 1017 q 263 995 300 1007 l 219 475 q 496 504 364 453 q 529 519 515 519 z "},"ŗ":{"ha":443,"x_min":0,"x_max":556,"o":"m 103 -82 q 110 -71 103 -82 q 138 -40 117 -60 q 177 -15 160 -20 q 199 -22 194 -10 q 103 -340 242 -190 q 62 -371 82 -361 q 34 -374 42 -381 q 35 -345 26 -366 q 61 -306 44 -324 q 88 -266 78 -288 q 93 -117 118 -197 q 103 -82 90 -105 m 150 677 q 168 716 151 692 q 203 753 185 740 q 233 770 221 767 q 256 757 258 778 l 249 695 q 469 792 356 795 q 479 764 489 791 q 433 703 465 727 q 389 680 401 680 q 268 640 318 682 q 235 552 244 620 l 182 51 q 164 11 181 34 q 129 -26 147 -12 q 99 -43 111 -39 q 76 -28 74 -51 l 128 463 q 129 474 128 465 l 150 677 z "},"Ř":{"ha":829,"x_min":71,"x_max":856,"o":"m 207 1353 q 213 1365 207 1353 q 238 1397 218 1376 q 278 1426 258 1418 q 304 1425 297 1434 l 389 1290 l 463 1393 q 501 1434 479 1417 q 534 1452 522 1451 q 549 1444 546 1452 q 532 1396 554 1428 l 396 1203 q 310 1149 332 1111 l 201 1322 q 207 1353 196 1331 m 443 398 q 301 361 361 366 q 208 356 240 356 l 183 52 q 165 13 182 37 q 131 -25 149 -11 q 101 -43 113 -39 q 78 -29 76 -52 l 163 978 q 181 1019 164 994 q 250 1075 215 1067 q 419 1123 332 1115 q 582 1102 506 1130 q 731 989 682 1065 q 781 825 781 913 q 626 515 781 660 q 563 463 596 485 l 718 109 q 710 75 722 98 q 678 32 699 53 q 638 4 657 12 q 615 8 619 -3 l 443 398 m 529 519 q 675 740 675 590 q 630 887 675 816 q 503 988 585 958 q 340 1010 421 1017 q 263 995 300 1007 l 219 475 q 496 504 364 453 q 529 519 515 519 z "},"ř":{"ha":443,"x_min":68,"x_max":581,"o":"m 138 1066 q 143 1077 138 1066 q 169 1110 149 1088 q 208 1139 189 1131 q 235 1138 228 1147 l 319 1002 l 393 1106 q 431 1147 410 1129 q 465 1164 453 1164 q 479 1156 476 1164 q 463 1109 485 1140 l 326 915 q 240 862 263 823 l 132 1034 q 138 1066 126 1043 m 150 677 q 168 716 151 692 q 203 753 185 740 q 233 770 221 767 q 256 757 258 778 l 249 695 q 469 792 356 795 q 479 764 489 791 q 433 703 465 727 q 389 680 401 680 q 268 640 318 682 q 235 552 244 620 l 182 51 q 164 11 181 34 q 129 -26 147 -12 q 99 -43 111 -39 q 76 -28 74 -51 l 128 463 q 129 474 128 465 l 150 677 z "},"Ś":{"ha":867,"x_min":75,"x_max":940,"o":"m 716 1348 q 727 1358 716 1348 q 755 1373 738 1368 q 776 1366 772 1378 q 765 1330 779 1354 q 622 1140 700 1217 q 582 1111 601 1119 q 557 1113 563 1103 q 563 1145 551 1122 q 606 1199 574 1167 q 682 1306 638 1231 q 716 1348 694 1328 m 857 865 q 851 853 857 865 q 825 821 846 842 q 785 793 804 801 q 760 794 765 785 q 629 933 713 880 q 451 987 546 985 q 349 970 393 987 q 288 934 306 953 q 263 867 271 914 q 278 766 254 819 q 353 680 301 712 q 479 628 404 648 q 533 614 483 627 q 610 592 583 601 q 811 383 789 531 q 763 183 826 285 q 674 80 726 125 q 386 -19 542 -32 q 196 50 282 -10 q 63 203 110 110 q 69 235 57 213 q 101 278 81 257 q 141 306 122 298 q 165 303 160 314 q 292 159 211 216 q 462 95 374 102 q 608 112 550 87 q 683 167 665 137 q 706 294 717 221 q 519 482 686 424 q 444 501 494 490 q 258 571 315 535 q 174 669 201 608 q 160 807 146 729 q 243 963 175 885 q 532 1099 367 1102 q 724 1042 636 1097 q 863 896 813 986 q 857 865 868 887 z "},"ś":{"ha":710,"x_min":90,"x_max":786,"o":"m 633 1060 q 643 1070 633 1060 q 672 1085 654 1080 q 692 1078 689 1090 q 682 1043 696 1066 q 539 852 617 930 q 499 823 518 831 q 474 825 479 815 q 479 857 468 835 q 522 912 490 880 q 599 1019 554 944 q 633 1060 611 1041 m 647 596 q 641 585 647 596 q 613 553 635 574 q 574 527 592 532 q 551 532 556 521 q 476 634 528 593 q 367 678 424 675 q 278 660 310 681 q 293 538 250 600 q 443 450 331 484 q 544 414 519 426 q 653 249 656 356 q 572 79 650 164 q 251 -2 431 -73 q 85 138 150 40 q 90 169 79 147 q 121 212 100 191 q 161 242 142 233 q 186 241 181 251 q 378 98 261 130 q 513 103 453 78 q 536 118 532 112 q 543 197 554 150 q 389 327 524 285 q 357 337 383 329 q 257 377 282 359 q 174 589 131 457 q 229 685 190 642 q 443 790 328 797 q 572 742 515 787 q 654 629 629 698 q 647 596 658 619 z "},"Ŝ":{"ha":867,"x_min":75,"x_max":940,"o":"m 486 1202 q 449 1160 471 1178 q 414 1141 426 1143 q 397 1147 401 1140 q 411 1193 390 1162 l 533 1375 l 564 1414 q 622 1430 604 1458 l 722 1263 q 717 1231 728 1254 q 685 1187 706 1209 q 644 1158 664 1166 q 619 1159 625 1150 l 544 1288 l 486 1202 m 857 865 q 851 853 857 865 q 825 821 846 842 q 785 793 804 801 q 760 794 765 785 q 629 933 713 880 q 451 987 546 985 q 349 970 393 987 q 288 934 306 953 q 263 867 271 914 q 278 766 254 819 q 353 680 301 712 q 479 628 404 648 q 533 614 483 627 q 610 592 583 601 q 811 383 789 531 q 763 183 826 285 q 674 80 726 125 q 386 -19 542 -32 q 196 50 282 -10 q 63 203 110 110 q 69 235 57 213 q 101 278 81 257 q 141 306 122 298 q 165 303 160 314 q 292 159 211 216 q 462 95 374 102 q 608 112 550 87 q 683 167 665 137 q 706 294 717 221 q 519 482 686 424 q 444 501 494 490 q 258 571 315 535 q 174 669 201 608 q 160 807 146 729 q 243 963 175 885 q 532 1099 367 1102 q 724 1042 636 1097 q 863 896 813 986 q 857 865 868 887 z "},"ŝ":{"ha":710,"x_min":90,"x_max":725,"o":"m 403 914 q 365 873 388 891 q 331 854 343 855 q 314 859 318 853 q 328 905 307 874 l 450 1088 l 481 1127 q 539 1143 521 1171 l 639 975 q 633 944 644 966 q 601 900 622 921 q 561 871 581 879 q 536 872 542 863 l 461 1000 l 403 914 m 647 596 q 641 585 647 596 q 613 553 635 574 q 574 527 592 532 q 551 532 556 521 q 476 634 528 593 q 367 678 424 675 q 278 660 310 681 q 293 538 250 600 q 443 450 331 484 q 544 414 519 426 q 653 249 656 356 q 572 79 650 164 q 251 -2 431 -73 q 85 138 150 40 q 90 169 79 147 q 121 212 100 191 q 161 242 142 233 q 186 241 181 251 q 378 98 261 130 q 513 103 453 78 q 536 118 532 112 q 543 197 554 150 q 389 327 524 285 q 357 337 383 329 q 257 377 282 359 q 174 589 131 457 q 229 685 190 642 q 443 790 328 797 q 572 742 515 787 q 654 629 629 698 q 647 596 658 619 z "},"Ş":{"ha":867,"x_min":57,"x_max":868,"o":"m 320 -52 q 327 -41 320 -52 q 355 -12 333 -31 q 394 9 376 6 q 415 0 411 13 q 319 -310 458 -172 q 278 -337 299 -329 q 251 -337 258 -346 q 252 -309 243 -329 q 278 -272 261 -289 q 304 -235 294 -256 q 310 -86 335 -168 q 320 -52 307 -74 m 857 790 q 851 779 857 790 q 825 749 846 768 q 785 724 804 731 q 760 728 765 718 q 629 878 713 818 q 451 947 546 938 q 349 940 393 953 q 288 908 306 926 q 263 844 271 890 q 278 742 254 797 q 353 649 301 686 q 479 586 404 613 q 533 567 483 585 q 610 539 583 550 q 811 313 789 463 q 763 117 826 213 q 674 21 726 61 q 386 -53 542 -79 q 196 33 282 -35 q 63 197 110 100 q 69 229 57 208 q 101 269 81 250 q 141 294 122 288 q 165 289 160 300 q 292 133 211 197 q 462 54 374 69 q 608 59 550 39 q 683 107 665 79 q 706 232 717 158 q 519 436 686 364 q 444 463 494 447 q 258 549 315 507 q 174 653 201 590 q 160 793 146 717 q 243 942 175 869 q 532 1053 367 1069 q 724 978 636 1042 q 863 821 813 915 q 857 790 868 811 z "},"ş":{"ha":710,"x_min":79,"x_max":658,"o":"m 305 -49 q 311 -39 305 -49 q 340 -10 318 -28 q 378 12 361 8 q 400 3 396 15 q 304 -307 443 -169 q 263 -335 283 -326 q 235 -335 243 -343 q 237 -306 228 -326 q 263 -269 246 -286 q 289 -232 279 -253 q 294 -83 319 -165 q 305 -49 292 -71 m 647 540 q 641 529 647 540 q 613 499 635 518 q 574 476 592 481 q 551 483 556 472 q 476 592 528 547 q 367 646 424 638 q 278 636 310 654 q 293 513 250 578 q 443 411 331 456 q 544 367 519 381 q 653 192 656 299 q 572 29 650 107 q 251 -24 431 -111 q 85 131 150 26 q 90 161 79 140 q 121 201 100 182 q 161 228 142 221 q 186 225 181 235 q 378 65 261 107 q 513 58 453 39 q 536 71 532 65 q 543 150 554 101 q 389 293 524 239 q 357 306 383 296 q 257 354 282 335 q 174 574 131 446 q 229 665 190 625 q 443 751 328 768 q 572 692 515 742 q 654 572 629 643 q 647 540 658 561 z "},"Š":{"ha":867,"x_min":75,"x_max":940,"o":"m 385 1353 q 390 1365 385 1353 q 416 1397 396 1376 q 456 1426 436 1418 q 482 1425 475 1434 l 567 1290 l 640 1393 q 678 1434 657 1417 q 712 1452 700 1451 q 726 1444 724 1452 q 710 1396 732 1428 l 574 1203 q 488 1149 510 1111 l 379 1322 q 385 1353 374 1331 m 857 865 q 851 853 857 865 q 825 821 846 842 q 785 793 804 801 q 760 794 765 785 q 629 933 713 880 q 451 987 546 985 q 349 970 393 987 q 288 934 306 953 q 263 867 271 914 q 278 766 254 819 q 353 680 301 712 q 479 628 404 648 q 533 614 483 627 q 610 592 583 601 q 811 383 789 531 q 763 183 826 285 q 674 80 726 125 q 386 -19 542 -32 q 196 50 282 -10 q 63 203 110 110 q 69 235 57 213 q 101 278 81 257 q 141 306 122 298 q 165 303 160 314 q 292 159 211 216 q 462 95 374 102 q 608 112 550 87 q 683 167 665 137 q 706 294 717 221 q 519 482 686 424 q 444 501 494 490 q 258 571 315 535 q 174 669 201 608 q 160 807 146 729 q 243 963 175 885 q 532 1099 367 1102 q 724 1042 636 1097 q 863 896 813 986 q 857 865 868 887 z "},"š":{"ha":710,"x_min":90,"x_max":742,"o":"m 299 1066 q 304 1077 299 1066 q 330 1110 310 1088 q 369 1139 350 1131 q 396 1138 389 1147 l 481 1002 l 554 1106 q 592 1147 571 1129 q 626 1164 614 1164 q 640 1156 638 1164 q 624 1109 646 1140 l 488 915 q 401 862 424 823 l 293 1034 q 299 1066 288 1043 m 647 596 q 641 585 647 596 q 613 553 635 574 q 574 527 592 532 q 551 532 556 521 q 476 634 528 593 q 367 678 424 675 q 278 660 310 681 q 293 538 250 600 q 443 450 331 484 q 544 414 519 426 q 653 249 656 356 q 572 79 650 164 q 251 -2 431 -73 q 85 138 150 40 q 90 169 79 147 q 121 212 100 191 q 161 242 142 233 q 186 241 181 251 q 378 98 261 130 q 513 103 453 78 q 536 118 532 112 q 543 197 554 150 q 389 327 524 285 q 357 337 383 329 q 257 377 282 359 q 174 589 131 457 q 229 685 190 642 q 443 790 328 797 q 572 742 515 787 q 654 629 629 698 q 647 596 658 619 z "},"Ť":{"ha":732,"x_min":121,"x_max":879,"o":"m 282 1353 q 288 1365 282 1353 q 313 1397 293 1376 q 353 1426 333 1418 q 379 1425 372 1434 l 464 1290 l 538 1393 q 576 1434 554 1417 q 609 1452 597 1451 q 624 1444 621 1452 q 607 1396 629 1428 l 471 1203 q 385 1149 407 1111 l 276 1322 q 282 1353 271 1331 m 47 978 q 64 1010 51 991 q 99 1046 76 1029 q 136 1065 121 1063 l 765 1120 q 776 1094 786 1122 q 734 1034 765 1059 q 688 1007 703 1009 l 472 989 l 394 71 q 376 32 393 55 q 342 -6 360 8 q 313 -24 324 -20 q 289 -11 288 -33 l 372 980 l 58 952 q 47 978 39 951 z "},"ť":{"ha":578,"x_min":117,"x_max":738,"o":"m 567 914 q 573 925 567 914 q 600 957 579 936 q 640 984 621 977 q 663 981 658 992 q 571 628 736 812 q 531 595 551 606 q 501 591 510 584 q 501 619 493 598 q 531 662 510 640 q 565 716 551 686 q 580 790 578 746 q 560 880 582 834 q 567 914 556 891 m 456 153 q 465 156 456 153 q 476 145 474 158 q 465 109 479 132 q 411 51 451 87 q 322 -11 371 14 q 179 -4 226 -58 q 156 190 135 44 l 192 611 l 86 602 q 75 627 65 600 q 117 689 86 663 q 164 716 149 714 l 201 719 l 222 958 q 240 997 224 974 q 275 1035 257 1021 q 304 1053 293 1049 q 328 1040 329 1062 l 301 728 q 422 738 363 733 q 433 712 443 740 q 391 651 422 676 q 344 625 360 626 l 292 620 l 261 270 q 261 267 261 269 q 279 102 242 141 q 364 89 314 62 q 413 125 388 102 q 456 153 439 148 z "},"Ū":{"ha":861,"x_min":65,"x_max":972,"o":"m 336 1138 q 353 1170 340 1151 q 388 1206 365 1189 q 425 1225 410 1223 l 728 1251 q 739 1226 749 1253 q 697 1165 728 1190 q 650 1139 665 1140 l 347 1112 q 336 1138 328 1111 m 772 1031 q 790 1072 774 1048 q 825 1109 807 1096 q 854 1126 843 1122 q 878 1113 879 1135 l 807 321 q 806 312 807 316 q 740 177 783 239 q 569 27 665 71 q 354 -22 472 -17 q 106 252 69 -30 l 164 978 q 182 1017 165 994 q 216 1055 199 1041 q 246 1073 233 1069 q 269 1060 271 1082 l 211 331 q 435 91 179 82 q 593 121 535 94 q 670 174 651 147 q 701 243 689 201 l 772 1031 z "},"ū":{"ha":707,"x_min":67,"x_max":757,"o":"m 240 850 q 257 882 244 863 q 292 919 269 901 q 329 937 314 936 l 632 964 q 643 938 653 965 q 601 878 632 903 q 554 851 569 853 l 251 825 q 240 850 232 823 m 614 88 q 596 49 613 73 q 561 12 579 26 q 531 -5 543 -1 q 508 10 506 -13 l 518 101 q 424 16 479 53 q 310 -26 368 -21 q 107 284 72 -49 l 140 675 q 158 715 142 690 q 193 752 175 739 q 222 769 211 766 q 246 756 247 779 l 213 364 q 385 86 181 67 q 444 103 425 90 q 535 263 493 135 q 535 268 535 265 l 582 715 q 600 755 583 732 q 635 791 617 778 q 665 808 653 804 q 688 795 690 816 l 614 88 z "},"Ŭ":{"ha":861,"x_min":65,"x_max":972,"o":"m 631 1303 q 633 1316 631 1303 q 652 1353 635 1330 q 687 1390 669 1377 q 716 1407 704 1404 q 733 1406 728 1410 q 738 1391 739 1401 q 685 1251 726 1311 q 499 1133 608 1140 q 357 1287 342 1124 q 375 1327 358 1303 q 410 1365 392 1351 q 439 1382 428 1378 q 463 1369 464 1391 q 576 1245 450 1239 q 617 1253 600 1246 q 631 1303 628 1276 m 772 1031 q 790 1072 774 1048 q 825 1109 807 1096 q 854 1126 843 1122 q 878 1113 879 1135 l 807 321 q 806 312 807 316 q 740 177 783 239 q 569 27 665 71 q 354 -22 472 -17 q 106 252 69 -30 l 164 978 q 182 1017 165 994 q 216 1055 199 1041 q 246 1073 233 1069 q 269 1060 271 1082 l 211 331 q 435 91 179 82 q 593 121 535 94 q 670 174 651 147 q 701 243 689 201 l 772 1031 z "},"ŭ":{"ha":707,"x_min":67,"x_max":757,"o":"m 535 1015 q 537 1029 535 1015 q 556 1066 539 1042 q 591 1103 574 1090 q 620 1119 608 1116 q 638 1118 632 1123 q 642 1104 643 1114 q 589 963 631 1024 q 403 846 513 852 q 261 1000 246 836 q 279 1040 263 1015 q 314 1077 296 1064 q 343 1095 332 1091 q 367 1081 368 1104 q 481 958 354 951 q 521 966 504 959 q 535 1015 532 989 m 614 88 q 596 49 613 73 q 561 12 579 26 q 531 -5 543 -1 q 508 10 506 -13 l 518 101 q 424 16 479 53 q 310 -26 368 -21 q 107 284 72 -49 l 140 675 q 158 715 142 690 q 193 752 175 739 q 222 769 211 766 q 246 756 247 779 l 213 364 q 385 86 181 67 q 444 103 425 90 q 535 263 493 135 q 535 268 535 265 l 582 715 q 600 755 583 732 q 635 791 617 778 q 665 808 653 804 q 688 795 690 816 l 614 88 z "},"Ů":{"ha":861,"x_min":65,"x_max":972,"o":"m 572 1504 q 696 1393 693 1509 q 685 1306 696 1339 q 654 1246 674 1274 q 496 1147 588 1150 q 374 1287 375 1145 q 410 1407 372 1352 q 572 1504 475 1501 m 588 1261 q 479 1390 613 1406 q 479 1374 479 1382 q 576 1260 481 1259 q 588 1261 582 1261 m 772 1031 q 790 1072 774 1048 q 825 1109 807 1096 q 854 1126 843 1122 q 878 1113 879 1135 l 807 321 q 806 312 807 316 q 740 177 783 239 q 569 27 665 71 q 354 -22 472 -17 q 106 252 69 -30 l 164 978 q 182 1017 165 994 q 216 1055 199 1041 q 246 1073 233 1069 q 269 1060 271 1082 l 211 331 q 435 91 179 82 q 593 121 535 94 q 670 174 651 147 q 701 243 689 201 l 772 1031 z "},"ů":{"ha":707,"x_min":67,"x_max":757,"o":"m 476 1217 q 600 1105 597 1222 q 589 1019 600 1051 q 558 958 578 987 q 400 860 492 862 q 278 999 279 858 q 314 1119 276 1064 q 476 1217 379 1214 m 492 973 q 383 1103 517 1119 q 383 1086 383 1095 q 481 973 385 971 q 492 973 486 973 m 614 88 q 596 49 613 73 q 561 12 579 26 q 531 -5 543 -1 q 508 10 506 -13 l 518 101 q 424 16 479 53 q 310 -26 368 -21 q 107 284 72 -49 l 140 675 q 158 715 142 690 q 193 752 175 739 q 222 769 211 766 q 246 756 247 779 l 213 364 q 385 86 181 67 q 444 103 425 90 q 535 263 493 135 q 535 268 535 265 l 582 715 q 600 755 583 732 q 635 791 617 778 q 665 808 653 804 q 688 795 690 816 l 614 88 z "},"Ű":{"ha":861,"x_min":65,"x_max":972,"o":"m 532 1406 q 542 1416 532 1406 q 572 1435 553 1427 q 597 1433 590 1443 q 592 1401 603 1423 l 497 1208 q 465 1165 486 1186 q 426 1136 444 1144 q 401 1138 407 1128 q 406 1170 394 1148 l 500 1363 q 532 1406 511 1384 m 727 1421 q 738 1432 727 1421 q 768 1451 749 1443 q 794 1451 788 1460 q 790 1420 800 1442 l 693 1216 q 662 1173 683 1194 q 621 1143 640 1151 q 595 1143 601 1134 q 599 1174 589 1152 l 696 1378 q 727 1421 706 1400 m 772 1031 q 790 1072 774 1048 q 825 1109 807 1096 q 854 1126 843 1122 q 878 1113 879 1135 l 807 321 q 806 312 807 316 q 740 177 783 239 q 569 27 665 71 q 354 -22 472 -17 q 106 252 69 -30 l 164 978 q 182 1017 165 994 q 216 1055 199 1041 q 246 1073 233 1069 q 269 1060 271 1082 l 211 331 q 435 91 179 82 q 593 121 535 94 q 670 174 651 147 q 701 243 689 201 l 772 1031 z "},"ű":{"ha":707,"x_min":67,"x_max":803,"o":"m 438 1118 q 448 1129 438 1118 q 477 1147 458 1140 q 502 1145 496 1155 q 497 1114 508 1136 l 403 921 q 371 878 392 899 q 331 849 350 856 q 306 851 313 841 q 311 882 300 860 l 406 1075 q 438 1118 417 1097 m 633 1134 q 643 1145 633 1134 q 674 1164 654 1155 q 699 1163 693 1173 q 696 1132 706 1154 l 599 928 q 567 885 589 906 q 526 855 546 864 q 501 856 507 847 q 504 887 494 865 l 601 1091 q 633 1134 611 1113 m 614 88 q 596 49 613 73 q 561 12 579 26 q 531 -5 543 -1 q 508 10 506 -13 l 518 101 q 424 16 479 53 q 310 -26 368 -21 q 107 284 72 -49 l 140 675 q 158 715 142 690 q 193 752 175 739 q 222 769 211 766 q 246 756 247 779 l 213 364 q 385 86 181 67 q 444 103 425 90 q 535 263 493 135 q 535 268 535 265 l 582 715 q 600 755 583 732 q 635 791 617 778 q 665 808 653 804 q 688 795 690 816 l 614 88 z "},"Ų":{"ha":861,"x_min":65,"x_max":972,"o":"m 506 -172 q 490 -204 503 -185 q 455 -240 476 -222 q 417 -261 433 -258 q 312 -252 344 -271 q 293 -174 279 -232 q 399 18 319 -79 q 438 54 417 41 q 471 64 460 68 q 476 40 482 60 q 442 -15 471 20 q 396 -107 413 -50 q 412 -144 390 -131 q 492 -149 433 -156 q 506 -172 513 -145 m 772 1031 q 790 1072 774 1048 q 825 1109 807 1096 q 854 1126 843 1122 q 878 1113 879 1135 l 807 321 q 806 312 807 316 q 740 177 783 239 q 569 27 665 71 q 354 -22 472 -17 q 106 252 69 -30 l 164 978 q 182 1017 165 994 q 216 1055 199 1041 q 246 1073 233 1069 q 269 1060 271 1082 l 211 331 q 435 91 179 82 q 593 121 535 94 q 670 174 651 147 q 701 243 689 201 l 772 1031 z "},"ų":{"ha":707,"x_min":67,"x_max":757,"o":"m 408 -172 q 392 -204 406 -185 q 358 -240 379 -222 q 319 -261 336 -258 q 215 -252 247 -271 q 196 -174 182 -232 q 301 18 222 -79 q 341 54 319 41 q 374 64 363 68 q 379 40 385 60 q 344 -15 374 20 q 299 -107 315 -50 q 315 -144 293 -131 q 394 -149 336 -156 q 408 -172 415 -145 m 614 88 q 596 49 613 73 q 561 12 579 26 q 531 -5 543 -1 q 508 10 506 -13 l 518 101 q 424 16 479 53 q 310 -26 368 -21 q 107 284 72 -49 l 140 675 q 158 715 142 690 q 193 752 175 739 q 222 769 211 766 q 246 756 247 779 l 213 364 q 385 86 181 67 q 444 103 425 90 q 535 263 493 135 q 535 268 535 265 l 582 715 q 600 755 583 732 q 635 791 617 778 q 665 808 653 804 q 688 795 690 816 l 614 88 z "},"Ÿ":{"ha":749,"x_min":133,"x_max":944,"o":"m 293 1193 q 311 1246 292 1223 q 357 1271 331 1269 q 403 1254 383 1273 q 422 1204 422 1235 q 403 1151 422 1174 q 357 1126 383 1129 q 311 1143 331 1124 q 293 1193 292 1162 m 513 1207 q 531 1260 511 1237 q 576 1284 550 1282 q 622 1268 603 1287 q 642 1218 642 1249 q 622 1165 642 1187 q 576 1140 603 1142 q 531 1157 550 1138 q 513 1207 511 1176 m 62 992 q 68 1003 62 992 q 94 1035 74 1015 q 134 1063 115 1056 q 158 1060 153 1070 l 428 500 l 757 1058 q 792 1100 771 1080 q 831 1125 814 1120 q 851 1117 849 1130 q 840 1082 854 1104 l 453 424 l 422 73 q 404 34 421 58 q 369 -4 388 10 q 340 -22 351 -18 q 317 -8 315 -31 l 349 350 l 56 959 q 62 992 50 970 z "},"Ź":{"ha":871,"x_min":36,"x_max":997,"o":"m 731 1348 q 742 1358 731 1348 q 770 1373 753 1368 q 791 1366 788 1378 q 781 1330 794 1354 q 638 1140 715 1217 q 597 1111 617 1119 q 572 1113 578 1103 q 578 1145 567 1122 q 621 1199 589 1167 q 697 1306 653 1231 q 731 1348 710 1328 m 186 990 q 203 1022 190 1003 q 238 1058 215 1041 q 275 1077 260 1075 l 883 1130 q 896 1105 904 1132 q 881 1076 892 1092 l 181 69 l 811 124 q 822 98 832 126 q 780 38 811 63 q 733 11 749 13 l 67 -47 q 58 -13 42 -49 q 69 7 63 -3 l 769 1015 l 197 964 q 186 990 178 963 z "},"ź":{"ha":736,"x_min":58,"x_max":782,"o":"m 535 1077 q 546 1087 535 1077 q 574 1102 557 1097 q 595 1095 592 1107 q 585 1059 599 1083 q 442 869 519 947 q 401 840 421 848 q 376 842 382 832 q 382 874 371 852 q 425 929 393 897 q 501 1035 457 961 q 535 1077 514 1057 m 139 684 q 156 716 143 697 q 190 753 168 736 q 228 771 213 770 l 694 812 q 707 787 715 814 q 689 756 703 774 l 197 70 l 656 110 q 667 85 676 112 q 624 24 656 49 q 578 -2 593 -1 l 81 -46 q 66 -29 64 -46 q 86 10 68 -12 l 578 696 l 150 659 q 139 684 131 657 z "},"Ż":{"ha":871,"x_min":36,"x_max":997,"o":"m 558 1302 q 628 1216 640 1305 q 533 1125 615 1126 q 472 1214 460 1124 q 558 1302 485 1300 m 186 990 q 203 1022 190 1003 q 238 1058 215 1041 q 275 1077 260 1075 l 883 1130 q 896 1105 904 1132 q 881 1076 892 1092 l 181 69 l 811 124 q 822 98 832 126 q 780 38 811 63 q 733 11 749 13 l 67 -47 q 58 -13 42 -49 q 69 7 63 -3 l 769 1015 l 197 964 q 186 990 178 963 z "},"ż":{"ha":736,"x_min":58,"x_max":782,"o":"m 447 1014 q 517 928 529 1017 q 422 837 504 839 q 361 926 349 836 q 447 1014 374 1012 m 139 684 q 156 716 143 697 q 190 753 168 736 q 228 771 213 770 l 694 812 q 707 787 715 814 q 689 756 703 774 l 197 70 l 656 110 q 667 85 676 112 q 624 24 656 49 q 578 -2 593 -1 l 81 -46 q 66 -29 64 -46 q 86 10 68 -12 l 578 696 l 150 659 q 139 684 131 657 z "},"Ž":{"ha":871,"x_min":36,"x_max":997,"o":"m 399 1353 q 404 1365 399 1353 q 430 1397 410 1376 q 469 1426 450 1418 q 496 1425 489 1434 l 581 1290 l 654 1393 q 692 1434 671 1417 q 726 1452 714 1451 q 740 1444 738 1452 q 724 1396 746 1428 l 588 1203 q 501 1149 524 1111 l 393 1322 q 399 1353 388 1331 m 186 990 q 203 1022 190 1003 q 238 1058 215 1041 q 275 1077 260 1075 l 883 1130 q 896 1105 904 1132 q 881 1076 892 1092 l 181 69 l 811 124 q 822 98 832 126 q 780 38 811 63 q 733 11 749 13 l 67 -47 q 58 -13 42 -49 q 69 7 63 -3 l 769 1015 l 197 964 q 186 990 178 963 z "},"ž":{"ha":736,"x_min":58,"x_max":782,"o":"m 288 1066 q 293 1077 288 1066 q 319 1110 299 1088 q 358 1139 339 1131 q 385 1138 378 1147 l 469 1002 l 543 1106 q 581 1147 560 1129 q 615 1164 603 1164 q 629 1156 626 1164 q 613 1109 635 1140 l 476 915 q 390 862 413 823 l 282 1034 q 288 1066 276 1043 m 139 684 q 156 716 143 697 q 190 753 168 736 q 228 771 213 770 l 694 812 q 707 787 715 814 q 689 756 703 774 l 197 70 l 656 110 q 667 85 676 112 q 624 24 656 49 q 578 -2 593 -1 l 81 -46 q 66 -29 64 -46 q 86 10 68 -12 l 578 696 l 150 659 q 139 684 131 657 z "},"Ǆ":{"ha":1660,"x_min":32,"x_max":1740,"o":"m 399 1388 q 404 1400 399 1388 q 430 1435 410 1412 q 469 1467 450 1458 q 496 1469 489 1477 l 581 1340 l 654 1450 q 692 1495 671 1476 q 726 1515 714 1514 q 740 1508 738 1516 q 724 1460 746 1493 l 588 1254 q 501 1193 524 1157 l 393 1356 q 399 1388 388 1365 m 186 1006 q 203 1040 190 1019 q 238 1079 215 1060 q 275 1101 260 1098 l 883 1207 q 896 1183 904 1211 q 881 1153 892 1170 l 181 84 l 811 195 q 822 170 832 198 q 780 106 811 134 q 733 76 749 78 l 67 -41 q 58 -8 42 -45 q 69 14 63 3 l 769 1082 l 197 982 q 186 1006 178 978 m 828 -30 l 925 979 q 976 1061 933 1032 q 1014 1075 993 1072 q 1628 614 1644 1168 q 1512 250 1621 405 q 1236 28 1403 95 q 840 -45 1069 -39 q 828 -30 826 -47 m 935 67 q 1267 127 1138 74 q 1444 252 1396 181 q 1522 529 1515 354 q 1406 882 1529 772 q 1022 973 1282 993 l 935 67 z "},"ǅ":{"ha":1469,"x_min":54,"x_max":1550,"o":"m 288 1091 q 293 1103 288 1091 q 319 1138 299 1115 q 358 1170 339 1160 q 385 1171 378 1180 l 469 1043 l 543 1153 q 581 1197 560 1178 q 615 1218 603 1216 q 629 1211 626 1219 q 613 1163 635 1196 l 476 957 q 390 896 413 859 l 282 1059 q 288 1091 276 1068 m 139 697 q 156 730 143 710 q 190 769 168 750 q 228 791 213 789 l 694 873 q 707 849 715 877 q 689 816 703 835 l 197 87 l 656 167 q 667 143 676 171 q 624 79 656 106 q 578 48 593 51 l 81 -39 q 66 -23 64 -40 q 86 18 68 -6 l 578 747 l 150 672 q 139 697 131 669 m 638 -30 l 735 979 q 786 1061 743 1032 q 824 1075 803 1072 q 1438 614 1454 1168 q 1322 250 1431 405 q 1046 28 1213 95 q 650 -45 879 -39 q 638 -30 636 -47 m 744 67 q 1076 127 947 74 q 1254 252 1206 181 q 1332 529 1325 354 q 1215 882 1339 772 q 832 973 1092 993 l 744 67 z "},"Ǉ":{"ha":1272,"x_min":46,"x_max":1315,"o":"m 581 1016 q 599 1055 582 1031 q 634 1092 617 1079 q 663 1109 651 1106 q 681 1110 675 1113 q 686 1095 688 1106 l 597 293 q 538 123 588 196 q 286 -28 444 -15 q 42 173 51 -47 q 56 210 42 187 q 89 249 71 234 q 119 269 107 264 q 147 260 146 281 q 364 85 157 68 q 463 114 435 91 q 480 156 471 125 q 492 214 489 187 l 581 1016 m 707 -45 q 693 -29 692 -46 l 778 978 q 796 1017 779 994 q 831 1055 813 1041 q 860 1073 849 1069 q 883 1060 885 1082 l 800 69 l 1289 112 q 1300 86 1310 114 q 1258 26 1289 51 q 1211 -1 1226 1 l 707 -45 z "},"ǈ":{"ha":967,"x_min":14,"x_max":1010,"o":"m 36 -132 q 40 -121 36 -132 q 65 -89 44 -111 q 105 -57 85 -68 q 133 -54 125 -46 q 249 -113 200 -112 q 267 9 260 -68 l 339 769 q 357 808 340 785 q 392 845 374 831 q 421 863 410 859 q 444 849 446 872 l 372 91 q 369 47 372 84 q 365 -1 367 10 q 358 -41 364 -11 q 343 -87 351 -71 q 221 -215 294 -180 q 169 -231 190 -229 q 121 -220 149 -233 q 36 -159 86 -204 q 36 -132 28 -152 m 351 974 q 369 1013 353 989 q 403 1051 385 1036 q 433 1068 421 1065 q 457 1055 458 1078 l 450 957 q 433 918 449 942 q 399 881 417 895 q 368 863 381 867 q 344 876 343 854 l 351 974 m 401 -45 q 388 -29 386 -46 l 472 978 q 490 1017 474 994 q 525 1055 507 1041 q 554 1073 543 1069 q 578 1060 579 1082 l 494 69 l 983 112 q 994 86 1004 114 q 952 26 983 51 q 906 -1 921 1 l 401 -45 z "},"Ǌ":{"ha":1576,"x_min":46,"x_max":1568,"o":"m 581 1016 q 599 1055 582 1031 q 634 1092 617 1079 q 663 1109 651 1106 q 681 1110 675 1113 q 686 1095 688 1106 l 597 293 q 538 123 588 196 q 286 -28 444 -15 q 42 173 51 -47 q 56 210 42 187 q 89 249 71 234 q 119 269 107 264 q 147 260 146 281 q 364 85 157 68 q 463 114 435 91 q 480 156 471 125 q 492 214 489 187 l 581 1016 m 796 52 q 778 11 794 35 q 743 -26 761 -12 q 714 -43 725 -39 q 690 -30 689 -52 l 788 979 q 863 1064 840 1049 q 892 1070 886 1079 l 1303 273 l 1368 1030 q 1386 1070 1369 1045 q 1421 1107 1403 1094 q 1450 1124 1439 1121 q 1474 1111 1475 1134 l 1386 104 q 1358 64 1385 87 q 1307 27 1332 40 l 1282 12 l 869 814 l 796 52 z "},"ǋ":{"ha":1271,"x_min":14,"x_max":1263,"o":"m 36 -132 q 40 -121 36 -132 q 65 -89 44 -111 q 105 -57 85 -68 q 133 -54 125 -46 q 249 -113 200 -112 q 267 9 260 -68 l 339 769 q 357 808 340 785 q 392 845 374 831 q 421 863 410 859 q 444 849 446 872 l 372 91 q 369 47 372 84 q 365 -1 367 10 q 358 -41 364 -11 q 343 -87 351 -71 q 221 -215 294 -180 q 169 -231 190 -229 q 121 -220 149 -233 q 36 -159 86 -204 q 36 -132 28 -152 m 351 974 q 369 1013 353 989 q 403 1051 385 1036 q 433 1068 421 1065 q 457 1055 458 1078 l 450 957 q 433 918 449 942 q 399 881 417 895 q 368 863 381 867 q 344 876 343 854 l 351 974 m 490 52 q 472 11 489 35 q 438 -26 456 -12 q 408 -43 419 -39 q 385 -30 383 -52 l 482 979 q 558 1064 535 1049 q 586 1070 581 1079 l 997 273 l 1063 1030 q 1081 1070 1064 1045 q 1115 1107 1097 1094 q 1144 1124 1133 1121 q 1168 1111 1169 1134 l 1081 104 q 1053 64 1079 87 q 1001 27 1026 40 l 976 12 l 564 814 l 490 52 z "},"Ǳ":{"ha":1660,"x_min":36,"x_max":1740,"o":"m 186 990 q 203 1022 190 1003 q 238 1058 215 1041 q 275 1077 260 1075 l 883 1130 q 896 1105 904 1132 q 881 1076 892 1092 l 181 69 l 811 124 q 822 98 832 126 q 780 38 811 63 q 733 11 749 13 l 67 -47 q 58 -13 42 -49 q 69 7 63 -3 l 769 1015 l 197 964 q 186 990 178 963 m 828 -30 l 925 979 q 976 1061 933 1032 q 1014 1075 993 1072 q 1628 614 1644 1168 q 1512 250 1621 405 q 1236 28 1403 95 q 840 -45 1069 -39 q 828 -30 826 -47 m 935 67 q 1267 127 1138 74 q 1444 252 1396 181 q 1522 529 1515 354 q 1406 882 1529 772 q 1022 973 1282 993 l 935 67 z "},"ǲ":{"ha":1469,"x_min":58,"x_max":1550,"o":"m 139 684 q 156 716 143 697 q 190 753 168 736 q 228 771 213 770 l 694 812 q 707 787 715 814 q 689 756 703 774 l 197 70 l 656 110 q 667 85 676 112 q 624 24 656 49 q 578 -2 593 -1 l 81 -46 q 66 -29 64 -46 q 86 10 68 -12 l 578 696 l 150 659 q 139 684 131 657 m 638 -30 l 735 979 q 786 1061 743 1032 q 824 1075 803 1072 q 1438 614 1454 1168 q 1322 250 1431 405 q 1046 28 1213 95 q 650 -45 879 -39 q 638 -30 636 -47 m 744 67 q 1076 127 947 74 q 1254 252 1206 181 q 1332 529 1325 354 q 1215 882 1339 772 q 832 973 1092 993 l 744 67 z "},"Ǵ":{"ha":885,"x_min":126,"x_max":975,"o":"m 747 1348 q 757 1358 747 1348 q 785 1373 768 1368 q 806 1366 803 1378 q 796 1330 810 1354 q 653 1140 731 1217 q 613 1111 632 1119 q 588 1113 593 1103 q 593 1145 582 1122 q 636 1199 604 1167 q 713 1306 668 1231 q 747 1348 725 1328 m 769 149 q 468 -12 635 4 q 288 21 371 -20 q 158 146 204 62 q 107 365 107 239 q 129 545 107 447 q 361 979 190 819 q 617 1105 485 1094 q 775 1072 710 1113 q 894 859 894 996 q 893 831 894 846 q 875 792 892 815 q 840 755 858 768 q 810 738 822 741 q 792 737 799 734 q 788 752 786 741 q 789 772 789 762 q 765 875 789 823 q 688 959 740 926 q 540 993 621 1000 q 381 924 446 985 q 321 846 351 896 q 238 639 264 751 q 213 451 213 527 q 258 252 213 334 q 544 100 351 84 q 706 163 639 109 q 776 265 753 201 q 782 274 778 269 l 801 485 l 472 461 q 461 486 451 459 q 503 547 472 522 q 550 573 535 572 l 894 599 q 908 584 910 600 l 864 112 q 846 72 863 96 q 811 34 829 48 q 782 17 793 21 q 758 30 757 8 l 769 149 z "},"ǵ":{"ha":706,"x_min":36,"x_max":786,"o":"m 572 1060 q 582 1070 572 1060 q 610 1085 593 1080 q 631 1078 628 1090 q 621 1043 635 1066 q 478 852 556 930 q 438 823 457 831 q 413 825 418 815 q 418 857 407 835 q 461 912 429 880 q 538 1019 493 944 q 572 1060 550 1041 m 636 763 q 685 807 664 800 q 718 799 719 820 q 676 247 690 345 q 640 45 665 130 q 559 -123 615 -41 q 428 -249 503 -205 q 276 -298 353 -293 q 61 -220 119 -310 q 66 -188 56 -210 q 97 -145 76 -166 q 138 -116 118 -124 q 164 -116 157 -107 q 354 -186 214 -197 q 492 -121 454 -178 q 567 123 544 -43 q 420 -6 494 28 q 282 -27 346 -39 q 163 421 83 11 q 256 649 189 557 q 535 798 369 806 q 636 763 597 795 m 582 280 q 590 388 592 388 q 586 403 585 391 q 451 685 622 678 q 379 678 410 687 q 322 646 336 666 q 265 483 288 599 q 246 280 243 367 q 368 86 254 108 q 503 130 456 69 q 575 266 539 176 q 582 280 578 273 z "},"Ȁ":{"ha":903,"x_min":58,"x_max":844,"o":"m 259 1358 q 265 1369 259 1358 q 292 1400 271 1380 q 331 1429 313 1421 q 356 1426 350 1437 l 450 1244 q 444 1212 456 1234 q 411 1169 432 1190 q 372 1141 390 1149 q 347 1144 353 1133 l 253 1326 q 259 1358 247 1336 m 447 1377 q 452 1388 447 1377 q 480 1420 458 1399 q 519 1447 501 1440 q 542 1441 538 1453 l 611 1262 q 603 1229 615 1252 q 570 1187 592 1207 q 531 1160 549 1167 q 508 1165 513 1152 l 439 1343 q 447 1377 435 1354 m 137 -10 q 127 -21 137 -10 q 97 -41 117 -31 q 70 -42 78 -50 q 72 -13 63 -33 l 531 1027 l 572 1079 q 631 1098 624 1132 l 839 116 q 828 81 842 104 q 792 38 814 57 q 753 14 771 19 q 733 21 736 9 l 668 333 q 664 333 667 333 l 285 300 l 167 34 q 137 -10 157 12 m 646 437 l 547 898 l 333 410 l 646 437 z "},"ȁ":{"ha":717,"x_min":-11,"x_max":717,"o":"m 134 1071 q 140 1081 134 1071 q 167 1113 146 1092 q 206 1141 188 1134 q 231 1139 225 1149 l 325 957 q 319 924 331 946 q 286 882 307 902 q 247 853 265 861 q 222 856 228 845 l 128 1038 q 134 1071 122 1049 m 322 1089 q 327 1100 322 1089 q 355 1132 333 1112 q 394 1159 376 1153 q 417 1154 413 1166 l 486 975 q 478 942 490 964 q 445 899 467 919 q 406 872 424 879 q 383 877 388 865 l 314 1056 q 322 1089 310 1066 m 687 155 q 695 157 687 155 q 707 146 704 159 q 695 109 710 133 q 646 55 681 86 q 572 6 611 24 q 478 25 496 -32 q 471 112 469 48 q 325 -15 399 18 q 188 -35 251 -47 q 68 413 -11 3 q 161 640 94 549 q 440 790 275 798 q 549 748 510 788 q 615 805 581 794 q 633 805 626 809 q 638 789 639 800 q 581 123 557 195 q 617 105 592 91 q 649 131 628 112 q 687 155 669 150 m 478 252 q 492 394 488 363 q 357 677 528 670 q 285 669 315 679 q 228 638 243 657 q 171 475 193 590 q 151 272 149 359 q 274 78 160 100 q 408 122 361 61 q 478 252 443 167 z "},"Ȃ":{"ha":903,"x_min":58,"x_max":844,"o":"m 454 1239 q 455 1229 454 1239 q 440 1195 456 1219 q 408 1156 425 1172 q 378 1136 390 1141 q 349 1143 350 1123 q 347 1191 347 1169 q 393 1305 346 1242 q 506 1390 450 1379 q 589 1392 546 1397 q 685 1229 707 1375 q 665 1189 682 1212 q 629 1153 647 1166 q 600 1136 611 1139 q 583 1138 589 1133 q 579 1153 578 1142 q 503 1278 596 1267 q 456 1280 476 1282 q 454 1239 453 1259 m 137 -10 q 127 -21 137 -10 q 97 -41 117 -31 q 70 -42 78 -50 q 72 -13 63 -33 l 531 1027 l 572 1079 q 631 1098 624 1132 l 839 116 q 828 81 842 104 q 792 38 814 57 q 753 14 771 19 q 733 21 736 9 l 668 333 q 664 333 667 333 l 285 300 l 167 34 q 137 -10 157 12 m 646 437 l 547 898 l 333 410 l 646 437 z "},"ȃ":{"ha":717,"x_min":-11,"x_max":717,"o":"m 329 951 q 330 941 329 951 q 315 908 331 931 q 283 869 300 884 q 253 848 265 853 q 224 855 225 836 q 222 904 222 881 q 268 1017 221 955 q 381 1102 325 1092 q 464 1104 421 1110 q 560 942 582 1088 q 540 902 557 925 q 504 865 522 879 q 475 849 486 852 q 458 850 464 846 q 454 866 453 854 q 378 991 471 980 q 331 992 351 994 q 329 951 328 971 m 687 155 q 695 157 687 155 q 707 146 704 159 q 695 109 710 133 q 646 55 681 86 q 572 6 611 24 q 478 25 496 -32 q 471 112 469 48 q 325 -15 399 18 q 188 -35 251 -47 q 68 413 -11 3 q 161 640 94 549 q 440 790 275 798 q 549 748 510 788 q 615 805 581 794 q 633 805 626 809 q 638 789 639 800 q 581 123 557 195 q 617 105 592 91 q 649 131 628 112 q 687 155 669 150 m 478 252 q 492 394 488 363 q 357 677 528 670 q 285 669 315 679 q 228 638 243 657 q 171 475 193 590 q 151 272 149 359 q 274 78 160 100 q 408 122 361 61 q 478 252 443 167 z "},"Ȅ":{"ha":800,"x_min":72,"x_max":914,"o":"m 253 1358 q 259 1369 253 1358 q 286 1400 265 1380 q 326 1429 307 1421 q 350 1426 344 1437 l 444 1244 q 438 1212 450 1234 q 406 1169 426 1190 q 366 1141 385 1149 q 342 1144 347 1133 l 247 1326 q 253 1358 242 1336 m 441 1377 q 447 1388 441 1377 q 474 1420 453 1399 q 514 1447 496 1440 q 536 1441 532 1453 l 606 1262 q 598 1229 610 1252 q 565 1187 586 1207 q 525 1160 543 1167 q 503 1165 507 1152 l 433 1343 q 441 1377 429 1354 m 807 1123 q 821 1111 821 1125 q 805 1072 821 1095 q 767 1030 789 1048 q 729 1011 744 1012 l 261 970 l 228 578 q 701 620 464 599 q 713 594 722 622 q 670 534 701 559 q 624 507 639 509 q 218 472 421 490 l 185 69 q 719 116 451 92 q 731 90 740 118 q 688 30 719 55 q 642 3 657 5 l 96 -44 q 81 -42 86 -47 q 78 -27 76 -38 l 163 978 q 181 1019 164 994 q 244 1073 211 1062 q 254 1075 251 1075 q 260 1075 257 1075 l 807 1123 z "},"ȅ":{"ha":731,"x_min":64,"x_max":801,"o":"m 201 1071 q 207 1081 201 1071 q 233 1113 213 1092 q 273 1141 254 1134 q 297 1139 292 1149 l 392 957 q 385 924 397 946 q 353 882 374 902 q 313 853 332 861 q 289 856 294 845 l 194 1038 q 201 1071 189 1049 m 388 1089 q 394 1100 388 1089 q 422 1132 400 1112 q 461 1159 443 1153 q 483 1154 479 1166 l 553 975 q 545 942 557 964 q 512 899 533 919 q 472 872 490 879 q 450 877 454 865 l 381 1056 q 388 1089 376 1066 m 199 342 q 422 90 193 85 q 510 100 471 90 q 565 124 560 113 q 598 168 576 146 q 638 197 619 189 q 663 194 656 205 q 636 126 672 177 q 562 46 600 76 q 488 2 524 15 q 342 -23 407 -27 q 96 301 68 -29 q 126 480 104 404 q 197 626 149 556 q 474 793 308 785 q 693 463 736 806 q 638 379 681 407 q 601 368 621 368 l 199 342 m 208 447 q 224 452 218 451 l 593 475 q 394 680 589 690 q 268 629 300 676 q 208 447 226 570 z "},"Ȇ":{"ha":800,"x_min":72,"x_max":914,"o":"m 449 1239 q 449 1229 449 1239 q 435 1195 450 1219 q 402 1156 419 1172 q 372 1136 385 1141 q 343 1143 344 1123 q 342 1191 342 1169 q 388 1305 340 1242 q 500 1390 444 1379 q 583 1392 540 1397 q 679 1229 701 1375 q 659 1189 676 1212 q 624 1153 642 1166 q 594 1136 606 1139 q 578 1138 583 1133 q 574 1153 572 1142 q 497 1278 590 1267 q 450 1280 471 1282 q 449 1239 447 1259 m 807 1123 q 821 1111 821 1125 q 805 1072 821 1095 q 767 1030 789 1048 q 729 1011 744 1012 l 261 970 l 228 578 q 701 620 464 599 q 713 594 722 622 q 670 534 701 559 q 624 507 639 509 q 218 472 421 490 l 185 69 q 719 116 451 92 q 731 90 740 118 q 688 30 719 55 q 642 3 657 5 l 96 -44 q 81 -42 86 -47 q 78 -27 76 -38 l 163 978 q 181 1019 164 994 q 244 1073 211 1062 q 254 1075 251 1075 q 260 1075 257 1075 l 807 1123 z "},"ȇ":{"ha":731,"x_min":64,"x_max":801,"o":"m 396 951 q 397 941 396 951 q 382 908 397 931 q 349 869 367 884 q 319 848 332 853 q 290 855 292 836 q 289 904 289 881 q 335 1017 288 955 q 447 1102 392 1092 q 531 1104 488 1110 q 626 942 649 1088 q 606 902 624 925 q 571 865 589 879 q 542 849 553 852 q 525 850 531 846 q 521 866 519 854 q 444 991 538 980 q 397 992 418 994 q 396 951 394 971 m 199 342 q 422 90 193 85 q 510 100 471 90 q 565 124 560 113 q 598 168 576 146 q 638 197 619 189 q 663 194 656 205 q 636 126 672 177 q 562 46 600 76 q 488 2 524 15 q 342 -23 407 -27 q 96 301 68 -29 q 126 480 104 404 q 197 626 149 556 q 474 793 308 785 q 693 463 736 806 q 638 379 681 407 q 601 368 621 368 l 199 342 m 208 447 q 224 452 218 451 l 593 475 q 394 680 589 690 q 268 629 300 676 q 208 447 226 570 z "},"Ȉ":{"ha":343,"x_min":78,"x_max":436,"o":"m -1 1358 q 5 1369 -1 1358 q 32 1400 11 1380 q 72 1429 53 1421 q 96 1426 90 1437 l 190 1244 q 184 1212 196 1234 q 151 1169 172 1190 q 112 1141 131 1149 q 88 1144 93 1133 l -7 1326 q -1 1358 -12 1336 m 187 1377 q 193 1388 187 1377 q 220 1420 199 1399 q 260 1447 242 1440 q 282 1441 278 1453 l 351 1262 q 344 1229 356 1252 q 310 1187 332 1207 q 271 1160 289 1167 q 249 1165 253 1152 l 179 1343 q 187 1377 175 1354 m 185 980 q 203 1020 186 997 q 238 1057 219 1043 q 267 1075 256 1071 q 290 1061 292 1084 l 206 54 q 188 15 204 39 q 153 -23 171 -9 q 124 -41 135 -37 q 100 -27 99 -50 l 185 980 z "},"ȉ":{"ha":264,"x_min":38,"x_max":396,"o":"m -41 1071 q -35 1081 -41 1071 q -8 1113 -29 1092 q 31 1141 13 1134 q 56 1139 50 1149 l 150 957 q 144 924 156 946 q 111 882 132 902 q 72 853 90 861 q 47 856 53 845 l -47 1038 q -41 1071 -53 1049 m 147 1089 q 152 1100 147 1089 q 180 1132 158 1112 q 219 1159 201 1153 q 242 1154 238 1166 l 311 975 q 303 942 315 964 q 270 899 292 919 q 231 872 249 879 q 208 877 213 865 l 139 1056 q 147 1089 135 1066 m 150 677 q 168 716 151 692 q 203 753 185 740 q 233 770 221 767 q 256 757 258 778 l 182 51 q 164 11 181 34 q 129 -26 147 -12 q 99 -43 111 -39 q 76 -28 74 -51 l 150 677 z "},"Ȋ":{"ha":343,"x_min":93,"x_max":539,"o":"m 194 1239 q 195 1229 194 1239 q 181 1195 196 1219 q 148 1156 165 1172 q 118 1136 131 1141 q 89 1143 90 1123 q 88 1191 88 1169 q 133 1305 86 1242 q 246 1390 190 1379 q 329 1392 286 1397 q 425 1229 447 1375 q 405 1189 422 1212 q 369 1153 388 1166 q 340 1136 351 1139 q 324 1138 329 1133 q 319 1153 318 1142 q 243 1278 336 1267 q 196 1280 217 1282 q 194 1239 193 1259 m 185 980 q 203 1020 186 997 q 238 1057 219 1043 q 267 1075 256 1071 q 290 1061 292 1084 l 206 54 q 188 15 204 39 q 153 -23 171 -9 q 124 -41 135 -37 q 100 -27 99 -50 l 185 980 z "},"ȋ":{"ha":264,"x_min":68,"x_max":499,"o":"m 154 951 q 155 941 154 951 q 140 908 156 931 q 108 869 125 884 q 78 848 90 853 q 49 855 50 836 q 47 904 47 881 q 93 1017 46 955 q 206 1102 150 1092 q 289 1104 246 1110 q 385 942 407 1088 q 365 902 382 925 q 329 865 347 879 q 300 849 311 852 q 283 850 289 846 q 279 866 278 854 q 203 991 296 980 q 156 992 176 994 q 154 951 153 971 m 150 677 q 168 716 151 692 q 203 753 185 740 q 233 770 221 767 q 256 757 258 778 l 182 51 q 164 11 181 34 q 129 -26 147 -12 q 99 -43 111 -39 q 76 -28 74 -51 l 150 677 z "},"Ȍ":{"ha":935,"x_min":53,"x_max":1056,"o":"m 312 1358 q 318 1369 312 1358 q 344 1400 324 1380 q 384 1429 365 1421 q 408 1426 403 1437 l 503 1244 q 497 1212 508 1234 q 464 1169 485 1190 q 424 1141 443 1149 q 400 1144 406 1133 l 306 1326 q 312 1358 300 1336 m 499 1377 q 505 1388 499 1377 q 533 1420 511 1399 q 572 1447 554 1440 q 594 1441 590 1453 l 664 1262 q 656 1229 668 1252 q 623 1187 644 1207 q 583 1160 601 1167 q 561 1165 565 1152 l 492 1343 q 499 1377 488 1354 m 600 1105 q 911 584 964 1126 q 788 199 888 346 q 422 -16 647 -3 q 106 463 57 -37 q 149 701 118 598 q 242 889 181 803 q 600 1105 382 1093 m 522 993 q 313 894 375 984 q 251 754 279 845 q 211 545 222 662 q 500 97 165 78 q 715 195 653 104 q 771 320 746 239 q 806 502 796 400 q 522 993 856 1011 z "},"ȍ":{"ha":747,"x_min":53,"x_max":819,"o":"m 201 1071 q 207 1081 201 1071 q 233 1113 213 1092 q 273 1141 254 1134 q 297 1139 292 1149 l 392 957 q 385 924 397 946 q 353 882 374 902 q 313 853 332 861 q 289 856 294 845 l 194 1038 q 201 1071 189 1049 m 388 1089 q 394 1100 388 1089 q 422 1132 400 1112 q 461 1159 443 1153 q 483 1154 479 1166 l 553 975 q 545 942 557 964 q 512 899 533 919 q 472 872 490 879 q 450 877 454 865 l 381 1056 q 388 1089 376 1066 m 500 795 q 706 395 756 795 q 613 133 685 235 q 336 -23 501 -24 q 99 317 56 -23 q 135 488 111 414 q 208 629 160 563 q 500 795 326 795 m 419 683 q 276 630 314 683 q 235 539 256 602 q 204 396 214 477 q 417 89 165 89 q 543 132 513 89 q 575 204 558 154 q 600 316 592 253 q 419 683 647 683 z "},"Ȏ":{"ha":935,"x_min":53,"x_max":1056,"o":"m 507 1239 q 508 1229 507 1239 q 493 1195 508 1219 q 460 1156 478 1172 q 431 1136 443 1141 q 401 1143 403 1123 q 400 1191 400 1169 q 446 1305 399 1242 q 558 1390 503 1379 q 642 1392 599 1397 q 738 1229 760 1375 q 717 1189 735 1212 q 682 1153 700 1166 q 653 1136 664 1139 q 636 1138 642 1133 q 632 1153 631 1142 q 556 1278 649 1267 q 508 1280 529 1282 q 507 1239 506 1259 m 600 1105 q 911 584 964 1126 q 788 199 888 346 q 422 -16 647 -3 q 106 463 57 -37 q 149 701 118 598 q 242 889 181 803 q 600 1105 382 1093 m 522 993 q 313 894 375 984 q 251 754 279 845 q 211 545 222 662 q 500 97 165 78 q 715 195 653 104 q 771 320 746 239 q 806 502 796 400 q 522 993 856 1011 z "},"ȏ":{"ha":747,"x_min":53,"x_max":819,"o":"m 396 951 q 397 941 396 951 q 382 908 397 931 q 349 869 367 884 q 319 848 332 853 q 290 855 292 836 q 289 904 289 881 q 335 1017 288 955 q 447 1102 392 1092 q 531 1104 488 1110 q 626 942 649 1088 q 606 902 624 925 q 571 865 589 879 q 542 849 553 852 q 525 850 531 846 q 521 866 519 854 q 444 991 538 980 q 397 992 418 994 q 396 951 394 971 m 500 795 q 706 395 756 795 q 613 133 685 235 q 336 -23 501 -24 q 99 317 56 -23 q 135 488 111 414 q 208 629 160 563 q 500 795 326 795 m 419 683 q 276 630 314 683 q 235 539 256 602 q 204 396 214 477 q 417 89 165 89 q 543 132 513 89 q 575 204 558 154 q 600 316 592 253 q 419 683 647 683 z "},"Ș":{"ha":867,"x_min":75,"x_max":940,"o":"m 417 -98 q 424 -86 417 -98 q 452 -55 431 -75 q 491 -30 474 -35 q 513 -37 508 -25 q 417 -355 556 -206 q 376 -387 396 -377 q 348 -389 356 -397 q 349 -361 340 -381 q 375 -321 358 -340 q 401 -282 392 -303 q 407 -133 432 -212 q 417 -98 404 -120 m 857 865 q 851 853 857 865 q 825 821 846 842 q 785 793 804 801 q 760 794 765 785 q 629 933 713 880 q 451 987 546 985 q 349 970 393 987 q 288 934 306 953 q 263 867 271 914 q 278 766 254 819 q 353 680 301 712 q 479 628 404 648 q 533 614 483 627 q 610 592 583 601 q 811 383 789 531 q 763 183 826 285 q 674 80 726 125 q 386 -19 542 -32 q 196 50 282 -10 q 63 203 110 110 q 69 235 57 213 q 101 278 81 257 q 141 306 122 298 q 165 303 160 314 q 292 159 211 216 q 462 95 374 102 q 608 112 550 87 q 683 167 665 137 q 706 294 717 221 q 519 482 686 424 q 444 501 494 490 q 258 571 315 535 q 174 669 201 608 q 160 807 146 729 q 243 963 175 885 q 532 1099 367 1102 q 724 1042 636 1097 q 863 896 813 986 q 857 865 868 887 z "},"ș":{"ha":710,"x_min":90,"x_max":708,"o":"m 338 -98 q 345 -86 338 -98 q 373 -55 351 -75 q 412 -30 394 -35 q 433 -37 429 -25 q 338 -355 476 -206 q 297 -387 317 -377 q 269 -389 276 -397 q 270 -361 261 -381 q 296 -321 279 -340 q 322 -282 313 -303 q 328 -133 353 -212 q 338 -98 325 -120 m 647 596 q 641 585 647 596 q 613 553 635 574 q 574 527 592 532 q 551 532 556 521 q 476 634 528 593 q 367 678 424 675 q 278 660 310 681 q 293 538 250 600 q 443 450 331 484 q 544 414 519 426 q 653 249 656 356 q 572 79 650 164 q 251 -2 431 -73 q 85 138 150 40 q 90 169 79 147 q 121 212 100 191 q 161 242 142 233 q 186 241 181 251 q 378 98 261 130 q 513 103 453 78 q 536 118 532 112 q 543 197 554 150 q 389 327 524 285 q 357 337 383 329 q 257 377 282 359 q 174 589 131 457 q 229 685 190 642 q 443 790 328 797 q 572 742 515 787 q 654 629 629 698 q 647 596 658 619 z "},"Ț":{"ha":732,"x_min":121,"x_max":879,"o":"m 319 -82 q 325 -71 319 -82 q 353 -40 332 -60 q 392 -15 375 -20 q 414 -22 410 -10 q 318 -340 457 -190 q 277 -371 297 -361 q 249 -374 257 -381 q 251 -345 242 -366 q 276 -306 260 -324 q 303 -266 293 -288 q 308 -117 333 -197 q 319 -82 306 -105 m 47 978 q 64 1010 51 991 q 99 1046 76 1029 q 136 1065 121 1063 l 765 1120 q 776 1094 786 1122 q 734 1034 765 1059 q 688 1007 703 1009 l 472 989 l 394 71 q 376 32 393 55 q 342 -6 360 8 q 313 -24 324 -20 q 289 -11 288 -33 l 372 980 l 58 952 q 47 978 39 951 z "},"ț":{"ha":514,"x_min":117,"x_max":506,"o":"m 312 -93 q 318 -82 312 -93 q 347 -51 325 -71 q 385 -26 368 -31 q 407 -33 403 -21 q 311 -351 450 -202 q 270 -383 290 -372 q 242 -385 250 -393 q 244 -356 235 -377 q 269 -317 253 -335 q 296 -277 286 -299 q 301 -128 326 -208 q 312 -93 299 -116 m 456 153 q 465 156 456 153 q 476 145 474 158 q 465 109 479 132 q 411 51 451 87 q 322 -11 371 14 q 179 -4 226 -58 q 156 190 135 44 l 192 611 l 86 602 q 75 627 65 600 q 117 689 86 663 q 164 716 149 714 l 201 719 l 222 958 q 240 997 224 974 q 275 1035 257 1021 q 304 1053 293 1049 q 328 1040 329 1062 l 301 728 q 422 738 363 733 q 433 712 443 740 q 391 651 422 676 q 344 625 360 626 l 292 620 l 261 270 q 261 267 261 269 q 279 102 242 141 q 364 89 314 62 q 413 125 388 102 q 456 153 439 148 z "},"ȷ":{"ha":453,"x_min":28,"x_max":446,"o":"m 36 -135 q 40 -125 36 -135 q 65 -95 44 -115 q 105 -66 85 -75 q 133 -65 125 -57 q 249 -135 200 -129 q 267 -14 260 -90 l 339 739 q 357 777 340 756 q 392 811 374 799 q 421 826 410 824 q 444 810 446 833 l 372 58 q 369 15 372 51 q 365 -33 367 -22 q 358 -72 364 -43 q 343 -117 351 -101 q 221 -235 294 -206 q 169 -246 190 -246 q 121 -231 149 -246 q 36 -162 86 -211 q 36 -135 28 -154 z "},"ˆ":{"ha":540,"x_min":196,"x_max":533,"o":"m 292 886 q 254 848 276 864 q 219 832 232 832 q 203 839 207 832 q 217 883 196 854 l 339 1056 l 369 1092 q 428 1103 410 1132 l 528 926 q 522 895 533 917 q 490 854 511 874 q 450 828 469 835 q 425 832 431 822 l 350 967 l 292 886 z "},"ˇ":{"ha":539,"x_min":179,"x_max":538,"o":"m 190 1047 q 196 1057 190 1047 q 222 1088 201 1068 q 261 1113 242 1107 q 288 1110 281 1119 l 372 967 l 446 1064 q 484 1101 463 1086 q 517 1116 506 1117 q 532 1107 529 1115 q 515 1061 538 1090 l 379 879 q 293 833 315 793 l 185 1015 q 190 1047 179 1025 z "},"˘":{"ha":518,"x_min":142,"x_max":539,"o":"m 431 983 q 433 997 431 983 q 452 1032 435 1010 q 487 1066 469 1054 q 516 1080 504 1078 q 533 1077 528 1082 q 538 1063 539 1072 q 485 926 526 983 q 299 825 408 822 q 157 992 142 829 q 175 1030 158 1007 q 210 1065 192 1053 q 239 1079 228 1076 q 263 1064 264 1086 q 376 931 250 935 q 417 935 400 929 q 431 983 428 957 z "},"˙":{"ha":347,"x_min":161,"x_max":342,"o":"m 260 1072 q 329 980 342 1068 q 235 897 317 892 q 174 992 161 903 q 260 1072 186 1076 z "},"˚":{"ha":468,"x_min":149,"x_max":472,"o":"m 349 1176 q 472 1054 469 1171 q 461 969 472 1000 q 431 911 450 938 q 272 826 364 821 q 150 976 151 835 q 186 1093 149 1042 q 349 1176 251 1182 m 364 932 q 256 1071 389 1075 q 256 1054 256 1063 q 353 932 257 939 q 364 932 358 932 z "},"˛":{"ha":299,"x_min":26,"x_max":260,"o":"m 253 -187 q 237 -217 250 -200 q 202 -251 224 -235 q 164 -268 181 -267 q 59 -250 92 -272 q 40 -171 26 -228 q 146 13 67 -78 q 185 45 164 33 q 218 52 207 57 q 224 28 229 47 q 189 -24 218 8 q 143 -112 160 -57 q 159 -151 138 -136 q 239 -162 181 -165 q 253 -187 260 -161 z "},"˜":{"ha":514,"x_min":83,"x_max":464,"o":"m 371 975 q 439 1029 401 1019 q 463 1014 464 1036 q 462 1006 463 1013 q 461 998 461 1000 q 460 990 461 996 q 458 980 458 983 q 455 970 457 976 q 450 958 453 964 q 444 947 447 953 q 395 888 424 908 q 355 862 367 867 q 326 857 343 857 q 293 864 303 858 l 238 894 l 181 922 q 115 865 151 878 q 86 875 88 856 q 86 883 86 875 q 84 896 85 892 q 84 910 83 900 q 88 928 85 921 q 95 948 90 936 q 107 969 100 960 q 185 1035 139 1011 q 223 1043 207 1046 q 241 1040 239 1040 q 244 1039 243 1040 l 329 997 l 371 975 z "},"˝":{"ha":481,"x_min":103,"x_max":508,"o":"m 240 1094 q 251 1104 240 1094 q 280 1120 261 1114 q 305 1116 299 1126 q 300 1085 311 1106 l 206 900 q 174 860 194 879 q 134 834 153 840 q 109 838 115 828 q 114 869 103 849 l 208 1054 q 240 1094 219 1075 m 435 1093 q 446 1103 435 1093 q 476 1119 457 1113 q 502 1117 496 1126 q 499 1086 508 1107 l 401 890 q 370 850 392 869 q 329 824 349 831 q 303 826 310 817 q 307 857 297 836 l 404 1053 q 435 1093 414 1074 z "},"̇":{"ha":347,"x_min":158,"x_max":333,"o":"m 178 894 q 200 992 158 953 q 260 1014 224 1014 q 315 991 296 1014 q 330 933 333 968 q 303 876 326 899 q 237 853 281 853 q 178 894 193 853 z "},"̏":{"ha":479,"x_min":128,"x_max":496,"o":"m 140 1056 q 145 1066 140 1056 q 172 1095 151 1076 q 212 1120 193 1114 q 236 1115 231 1126 l 331 925 q 324 893 336 914 q 292 853 313 872 q 252 828 271 835 q 228 833 233 822 l 133 1024 q 140 1056 128 1035 m 327 1058 q 333 1068 327 1058 q 360 1098 339 1079 q 400 1122 382 1117 q 422 1114 418 1126 l 492 929 q 484 897 496 918 q 451 857 472 875 q 411 833 429 839 q 389 840 393 828 l 319 1025 q 327 1058 315 1036 z "},"̑":{"ha":518,"x_min":168,"x_max":529,"o":"m 276 933 q 277 923 276 933 q 263 890 278 913 q 230 854 247 868 q 200 836 213 840 q 171 846 172 826 q 169 894 169 872 q 215 1004 168 946 q 328 1079 272 1074 q 411 1074 368 1083 q 507 903 529 1047 q 487 865 504 886 q 451 831 469 843 q 422 817 433 819 q 406 820 411 815 q 401 836 400 825 q 325 968 418 949 q 278 974 299 974 q 276 933 275 953 z "},"̦":{"ha":264,"x_min":38,"x_max":253,"o":"m 115 -9 q 121 2 115 -9 q 149 31 128 13 q 188 52 171 49 q 210 43 206 56 q 114 -267 253 -129 q 73 -294 93 -286 q 45 -294 53 -303 q 47 -266 38 -286 q 72 -229 56 -246 q 99 -192 89 -212 q 104 -43 129 -125 q 115 -9 101 -31 z "}}}
